<svg width="137" height="156" viewBox="0 0 137 156" fill="none" xmlns="http://www.w3.org/2000/svg">
<g clip-path="url(#clip0_50_180)">
<path d="M52.5255 95.6463C53.304 97.163 53.1577 98.7967 52.1986 99.2953C51.2396 99.7939 49.831 98.9686 49.0525 97.4519C48.7117 96.788 48.5481 96.1016 48.5524 95.4979L45.3336 89.0296L48.382 87.5742L51.2315 94.1051C51.7232 94.451 52.1847 94.9824 52.5255 95.6463Z" fill="#FFB6B6"/>
<path d="M28.5723 154.009L31.3167 154.009L32.6222 143.356L28.5718 143.356L28.5723 154.009Z" fill="#FFB6B6"/>
<path d="M37.9749 153.946C38.0603 154.091 38.1054 154.558 38.1054 154.727C38.1054 155.245 37.6884 155.664 37.174 155.664H28.675C28.324 155.664 28.0395 155.378 28.0395 155.025V154.669C28.0395 154.669 27.6191 153.598 28.4847 152.279C28.4847 152.279 29.5605 153.312 31.1681 151.694L31.6422 150.83L35.0737 153.356L36.9758 153.591C37.3919 153.643 37.7608 153.583 37.9749 153.946Z" fill="#2F2E41"/>
<path d="M15.6973 154.009L18.4416 154.009L19.7472 143.356L15.6967 143.356L15.6973 154.009Z" fill="#FFB6B6"/>
<path d="M25.0998 153.946C25.1852 154.091 25.2303 154.558 25.2303 154.727C25.2303 155.245 24.8133 155.664 24.2989 155.664H15.7999C15.449 155.664 15.1645 155.378 15.1645 155.025V154.669C15.1645 154.669 14.744 153.598 15.6096 152.279C15.6096 152.279 16.6855 153.312 18.293 151.694L18.7671 150.83L22.1986 153.356L24.1007 153.591C24.5168 153.643 24.8858 153.583 25.0998 153.946Z" fill="#2F2E41"/>
<path d="M11.8127 91.1544L10.6566 98.2647L14.2534 121.276L15.1526 149.071H20.0088L22.4748 122.827L22.2179 105.504L27.9985 149.329H33.0449L33.5223 94.3863L11.8127 91.1544Z" fill="#2F2E41"/>
<path d="M17.8503 54.3104H26.9415L34.8069 58.9644C33.5827 58.6512 32.637 70.0806 32.6049 80.1796C32.6027 80.8507 31.9419 81.6222 31.9481 82.2777C31.9533 82.8424 32.6244 83.2936 32.6361 83.8415C32.6469 84.3535 32.6607 84.8571 32.6773 85.3503C32.6912 85.7597 31.9301 86.302 31.9481 86.6959C31.971 87.1991 32.7742 87.5485 32.8041 88.0221C32.9874 90.9333 33.3035 93.2397 33.7792 94.3863C33.7792 94.3863 13.4826 100.075 11.9411 91.2837C11.9411 91.2837 12.0292 88.124 12.0168 83.7606C12.0157 83.3734 11.6881 83.0223 11.6853 82.6175C11.6832 82.3166 12.0063 81.9658 12.0032 81.6565C12.0006 81.4022 11.6887 81.1775 11.6853 80.9182C11.6833 80.7637 11.99 80.5761 11.9877 80.42C11.8644 72.1227 11.3109 61.6661 9.37195 58.9643L17.8503 54.3104Z" fill="#FFD957"/>
<path d="M26.8424 54.3104C26.8424 54.3104 32.7334 56.4648 34.6027 58.1811C35.596 59.0932 42.2575 76.2875 42.2575 76.2875L51.5101 92.5039L46.7006 94.3424L36.8622 79.3902L32.4946 69.5651L26.8424 54.3104Z" fill="#FFD957"/>
<path d="M14.6234 96.26C15.4826 97.7319 15.4246 99.3712 14.4939 99.9214C13.5632 100.472 12.1121 99.7246 11.2529 98.2526C10.8768 97.6083 10.6765 96.932 10.6481 96.3289L7.08514 90.046L10.0505 88.4261L13.2482 94.7918C13.7578 95.1103 14.2473 95.6157 14.6234 96.26Z" fill="#FFB6B6"/>
<path d="M16.5657 62.3256L13.9965 56.3788C13.9965 56.3788 7.95889 58.318 7.95889 61.1621C7.95889 61.1621 4.36203 82.8807 4.87586 88.3103L8.21581 94.2571L12.9688 90.508L10.0142 83.6563L16.5657 62.3256Z" fill="#FFD957"/>
<path d="M11.2819 100.96L14.3124 94.9034L17.8502 99.816L14.6662 102.919L11.2819 100.96Z" fill="#2F2E41"/>
<path d="M22.3102 52.602C25.5575 52.602 28.19 49.9528 28.19 46.6848C28.19 43.4168 25.5575 40.7675 22.3102 40.7675C19.0629 40.7675 16.4304 43.4168 16.4304 46.6848C16.4304 49.9528 19.0629 52.602 22.3102 52.602Z" fill="#FFB6B6"/>
<path d="M26.8952 40.0747C25.8734 39.7454 25.3899 38.5223 24.4553 37.9921C23.4217 37.4057 22.1851 37.0397 21.0453 37.3714C20.3459 37.575 19.7366 38.0249 19.0368 38.2268C18.9144 38.2621 18.7857 38.2864 18.6551 38.2989C17.9024 38.3711 17.2562 38.8253 16.8801 39.4854L16.8703 39.5024C16.6494 39.8827 16.3356 40.1977 16.057 40.5374C15.0404 41.7771 14.4902 43.3882 14.5016 44.9954C14.5137 46.7231 15.1743 48.4384 16.3222 49.7232L16.6154 49.5871C17.3241 50.2031 18.0327 50.8191 18.7414 51.4351C18.3557 50.0347 17.9665 48.5853 18.1706 47.1468C18.3748 45.7082 19.3361 44.273 20.7534 43.9952C21.2896 43.8902 21.8551 43.9537 22.3756 43.7869C22.8961 43.6201 23.3755 43.0816 23.1969 42.562C23.5192 43.4195 24.7213 43.3688 25.5487 43.7525C27.4005 44.6111 26.7227 43.2842 28.3302 44.5464C28.8732 41.5179 30.9531 41.3827 26.8952 40.0747Z" fill="#2F2E41"/>
<path d="M0 155.46C0 155.684 0.178998 155.864 0.401899 155.864H136.598C136.821 155.864 137 155.684 137 155.46C137 155.235 136.821 155.055 136.598 155.055H0.401899C0.178998 155.055 0 155.235 0 155.46Z" fill="#CCCCCC"/>
<path d="M118.781 155.864H59.2C51.9352 155.864 46.0247 149.916 46.0247 142.605V13.7457C46.0247 6.4346 51.9352 0.486511 59.2 0.486511H118.781C126.046 0.486511 131.956 6.4346 131.956 13.7457V142.605C131.956 149.916 126.046 155.864 118.781 155.864Z" fill="#3F3D56"/>
<path d="M131.956 47.8851C131.649 47.8851 131.399 48.1366 131.399 48.446V66.3957C131.399 66.7051 131.649 66.9567 131.956 66.9567C132.264 66.9567 132.514 66.7051 132.514 66.3957V48.446C132.514 48.1366 132.264 47.8851 131.956 47.8851Z" fill="#3F3D56"/>
<path d="M130.702 13.7458V142.602C130.702 148.966 125.78 154.172 119.557 154.575H119.555C119.463 154.581 119.371 154.587 119.276 154.59C119.111 154.598 118.947 154.601 118.78 154.601C118.78 154.601 118.167 154.556 117.046 154.472C115.915 154.388 114.268 154.261 112.214 154.096C111.598 154.048 110.949 153.995 110.263 153.939C108.897 153.827 107.398 153.703 105.79 153.563C105.149 153.51 104.486 153.451 103.809 153.392C100.347 153.092 96.4706 152.741 92.3823 152.343C91.6911 152.278 90.9944 152.211 90.2921 152.141C90.1082 152.121 89.9214 152.105 89.7347 152.085C86.8196 151.796 47.2789 144.106 47.2789 142.602V13.7458C47.2789 7.11846 52.6158 1.74756 59.2013 1.74756H66.319C67.4561 1.74756 68.3702 2.63943 68.4677 3.78093C68.4761 3.85666 68.4844 3.93237 68.4984 4.0081C68.7046 5.15521 69.7497 5.95453 70.909 5.95453H107.072C108.231 5.95453 109.276 5.15521 109.483 4.0081C109.497 3.93237 109.505 3.85666 109.513 3.78093C109.611 2.63943 110.525 1.74756 111.662 1.74756H118.78C125.365 1.74756 130.702 7.11846 130.702 13.7458Z" fill="white"/>
<path d="M45.7461 34.4228C45.4387 34.4228 45.1887 34.6743 45.1887 34.9837V39.4711C45.1887 39.7805 45.4387 40.032 45.7461 40.032C46.0535 40.032 46.3035 39.7805 46.3035 39.4711V34.9837C46.3035 34.6743 46.0535 34.4228 45.7461 34.4228Z" fill="#3F3D56"/>
<path d="M45.7461 47.8851C45.4387 47.8851 45.1887 48.1366 45.1887 48.446V57.1404C45.1887 57.4498 45.4387 57.7013 45.7461 57.7013C46.0535 57.7013 46.3035 57.4498 46.3035 57.1404V48.446C46.3035 48.1366 46.0535 47.8851 45.7461 47.8851Z" fill="#3F3D56"/>
<path d="M45.7461 60.2255C45.4387 60.2255 45.1887 60.4771 45.1887 60.7864V69.4808C45.1887 69.7902 45.4387 70.0418 45.7461 70.0418C46.0535 70.0418 46.3035 69.7902 46.3035 69.4808V60.7864C46.3035 60.4771 46.0535 60.2255 45.7461 60.2255Z" fill="#3F3D56"/>
<path d="M66.125 3.71188H55.4657C55.4078 3.71188 55.3609 3.75909 55.3609 3.81731V5.00878C55.3609 5.06701 55.4078 5.11421 55.4657 5.11421H66.125C66.1829 5.11421 66.2298 5.06701 66.2298 5.00878V3.81731C66.2298 3.75909 66.1829 3.71188 66.125 3.71188Z" fill="#E6E6E6"/>
<path d="M113.423 5.11423C114.039 5.11423 114.538 4.61196 114.538 3.99237C114.538 3.37279 114.039 2.87051 113.423 2.87051C112.808 2.87051 112.309 3.37279 112.309 3.99237C112.309 4.61196 112.808 5.11423 113.423 5.11423Z" fill="#E6E6E6"/>
<path d="M116.489 5.11423C117.105 5.11423 117.604 4.61196 117.604 3.99237C117.604 3.37279 117.105 2.87051 116.489 2.87051C115.873 2.87051 115.374 3.37279 115.374 3.99237C115.374 4.61196 115.873 5.11423 116.489 5.11423Z" fill="#E6E6E6"/>
<path d="M119.554 5.11423C120.17 5.11423 120.669 4.61196 120.669 3.99237C120.669 3.37279 120.17 2.87051 119.554 2.87051C118.939 2.87051 118.44 3.37279 118.44 3.99237C118.44 4.61196 118.939 5.11423 119.554 5.11423Z" fill="#E6E6E6"/>
<path d="M112.63 32.8276H65.3507C64.6058 32.8276 63.9998 32.2177 63.9998 31.4681C63.9998 30.7185 64.6058 30.1086 65.3507 30.1086H112.63C113.375 30.1086 113.981 30.7185 113.981 31.4681C113.981 32.2177 113.375 32.8276 112.63 32.8276Z" fill="#E6E6E6"/>
<path d="M120.58 140.394H103.019C102.274 140.394 101.668 139.784 101.668 139.035C101.668 138.285 102.274 137.675 103.019 137.675H120.58C121.325 137.675 121.931 138.285 121.931 139.035C121.931 139.784 121.325 140.394 120.58 140.394Z" fill="#E6E6E6"/>
<path d="M73.6382 140.394H56.0772C55.3323 140.394 54.7263 139.784 54.7263 139.035C54.7263 138.285 55.3323 137.675 56.0772 137.675H73.6382C74.3831 137.675 74.9891 138.285 74.9891 139.035C74.9891 139.784 74.3831 140.394 73.6382 140.394Z" fill="#E6E6E6"/>
<path d="M121.931 36.4804H56.0499V36.8195H121.931V36.4804Z" fill="#3F3D56"/>
<path d="M112.63 53.5592H65.3507C64.6058 53.5592 63.9998 52.9494 63.9998 52.1998C63.9998 51.4502 64.6058 50.8403 65.3507 50.8403H112.63C113.375 50.8403 113.981 51.4502 113.981 52.1998C113.981 52.9494 113.375 53.5592 112.63 53.5592Z" fill="#E6E6E6"/>
<path d="M121.931 57.2121H56.0499V57.5511H121.931V57.2121Z" fill="#3F3D56"/>
<path d="M112.63 74.2909H65.3507C64.6058 74.2909 63.9998 73.6811 63.9998 72.9315C63.9998 72.1819 64.6058 71.572 65.3507 71.572H112.63C113.375 71.572 113.981 72.1819 113.981 72.9315C113.981 73.6811 113.375 74.2909 112.63 74.2909Z" fill="#E6E6E6"/>
<path d="M121.931 77.9438H56.0499V78.2828H121.931V77.9438Z" fill="#3F3D56"/>
<path d="M121.931 95.6167H56.0499V95.9557H121.931V95.6167Z" fill="#3F3D56"/>
<path d="M121.931 113.29H56.0499V113.629H121.931V113.29Z" fill="#3F3D56"/>
<path d="M89.4542 125.721C100.272 125.721 109.042 116.896 109.042 106.009C109.042 95.1226 100.272 86.2972 89.4542 86.2972C78.6364 86.2972 69.8668 95.1226 69.8668 106.009C69.8668 116.896 78.6364 125.721 89.4542 125.721Z" fill="#FFD957"/>
</g>
<defs>
<clipPath id="clip0_50_180">
<rect width="137" height="155.377" fill="white" transform="translate(0 0.486511)"/>
</clipPath>
</defs>
</svg>
