<svg width="33" height="33" viewBox="0 0 33 33" fill="none" xmlns="http://www.w3.org/2000/svg">
<path d="M12.125 16.1728V5.9857C12.125 4.82255 12.5859 3.70705 13.4064 2.88458C14.2269 2.06211 15.3397 1.60005 16.5 1.60005C17.6603 1.60005 18.7731 2.06211 19.5936 2.88458C20.4141 3.70705 20.875 4.82255 20.875 5.9857V7.45197M20.875 16.2211V26.4521C20.875 27.6152 20.4141 28.7307 19.5936 29.5532C18.7731 30.3757 17.6603 30.8377 16.5 30.8377C15.3397 30.8377 14.2269 30.3757 13.4064 29.5532C12.5859 28.7307 12.125 27.6152 12.125 26.4521V24.9683" stroke="white" stroke-width="2.91667" stroke-linecap="round"/>
<path d="M16.5 20.6046H6.28002C3.87085 20.6046 1.91669 18.6412 1.91669 16.2189C1.91669 13.7966 3.87085 11.8332 6.28002 11.8332H7.742M16.5 11.8332H26.7003C27.8617 11.8323 28.9759 12.2938 29.7978 13.1162C30.6198 13.9387 31.0822 15.0547 31.0834 16.2189C31.0834 18.6412 29.1212 20.6046 26.7003 20.6046H25.2981" stroke="white" stroke-width="2.91667" stroke-linecap="round"/>
</svg>
