<svg width="73" height="62" viewBox="0 0 73 62" fill="none" xmlns="http://www.w3.org/2000/svg">
<path d="M71.2478 0.262817H1.25731C0.924007 0.263321 0.604495 0.396587 0.368812 0.633405C0.133129 0.870223 0.000501419 1.19127 0 1.52619V43.0769C0.000501419 43.4119 0.133129 43.7329 0.368812 43.9697C0.604495 44.2065 0.924007 44.3398 1.25731 44.3403H71.2478C71.5811 44.3398 71.9006 44.2065 72.1363 43.9697C72.372 43.7329 72.5046 43.4119 72.5051 43.0769V1.52619C72.5046 1.19127 72.372 0.870223 72.1363 0.633405C71.9006 0.396587 71.5811 0.263321 71.2478 0.262817ZM72.2257 43.0769C72.2254 43.3375 72.1223 43.5872 71.939 43.7714C71.7556 43.9557 71.5071 44.0593 71.2478 44.0596H1.25731C0.998044 44.0593 0.749475 43.9557 0.566143 43.7714C0.382812 43.5872 0.279691 43.3375 0.279403 43.0769V1.52619C0.279691 1.26567 0.382812 1.0159 0.566143 0.831687C0.749475 0.647472 0.998044 0.543855 1.25731 0.543566H71.2478C71.5071 0.543855 71.7556 0.647472 71.939 0.831687C72.1223 1.0159 72.2254 1.26567 72.2257 1.52619V43.0769Z" fill="#3F3D56"/>
<path d="M72.3653 5.03552H0.139648V5.31559H72.3653V5.03552Z" fill="#3F3D56"/>
<path d="M2.51467 3.4212C2.90044 3.4212 3.21318 3.10696 3.21318 2.71933C3.21318 2.33169 2.90044 2.01746 2.51467 2.01746C2.12889 2.01746 1.81616 2.33169 1.81616 2.71933C1.81616 3.10696 2.12889 3.4212 2.51467 3.4212Z" fill="#CCCCCC"/>
<path d="M4.61013 3.4212C4.9959 3.4212 5.30864 3.10696 5.30864 2.71933C5.30864 2.33169 4.9959 2.01746 4.61013 2.01746C4.22435 2.01746 3.91162 2.33169 3.91162 2.71933C3.91162 3.10696 4.22435 3.4212 4.61013 3.4212Z" fill="#CCCCCC"/>
<path d="M6.70571 3.4212C7.09149 3.4212 7.40422 3.10696 7.40422 2.71933C7.40422 2.33169 7.09149 2.01746 6.70571 2.01746C6.31993 2.01746 6.0072 2.33169 6.0072 2.71933C6.0072 3.10696 6.31993 3.4212 6.70571 3.4212Z" fill="#CCCCCC"/>
<path d="M53.1565 61.115H19.3487C19.0339 61.1147 18.7321 60.9888 18.5094 60.7651C18.2868 60.5415 18.1616 60.2382 18.1613 59.9218V21.8804C18.1616 21.5641 18.2868 21.2608 18.5094 21.0371C18.7321 20.8134 19.0339 20.6876 19.3487 20.6873H53.1565C53.4713 20.6876 53.7732 20.8134 53.9958 21.0371C54.2184 21.2608 54.3436 21.5641 54.344 21.8804V59.9218C54.3436 60.2382 54.2184 60.5415 53.9958 60.7651C53.7732 60.9888 53.4713 61.1147 53.1565 61.115Z" fill="#FFD957"/>
<path d="M46.1714 40.1993H26.3338C25.8707 40.1993 25.4265 40.0144 25.099 39.6854C24.7715 39.3563 24.5875 38.91 24.5875 38.4446C24.5875 37.9792 24.7715 37.5329 25.099 37.2039C25.4265 36.8748 25.8707 36.6899 26.3338 36.6899H46.1714C46.6346 36.6899 47.0787 36.8748 47.4062 37.2039C47.7337 37.5329 47.9177 37.9792 47.9177 38.4446C47.9177 38.91 47.7337 39.3563 47.4062 39.6854C47.0787 40.0144 46.6346 40.1993 46.1714 40.1993Z" fill="white"/>
<path d="M46.1714 46.7266H26.3338C25.8707 46.7266 25.4265 46.5418 25.099 46.2127C24.7715 45.8836 24.5875 45.4373 24.5875 44.972C24.5875 44.5066 24.7715 44.0603 25.099 43.7312C25.4265 43.4022 25.8707 43.2173 26.3338 43.2173H46.1714C46.6346 43.2173 47.0787 43.4022 47.4062 43.7312C47.7337 44.0603 47.9177 44.5066 47.9177 44.972C47.9177 45.4373 47.7337 45.8836 47.4062 46.2127C47.0787 46.5418 46.6346 46.7266 46.1714 46.7266Z" fill="white"/>
<path d="M46.1714 53.3243H26.3338C25.8707 53.3243 25.4265 53.1394 25.099 52.8104C24.7715 52.4813 24.5875 52.035 24.5875 51.5696C24.5875 51.1042 24.7715 50.6579 25.099 50.3289C25.4265 49.9998 25.8707 49.8149 26.3338 49.8149H46.1714C46.6346 49.8149 47.0787 49.9998 47.4062 50.3289C47.7337 50.6579 47.9177 51.1042 47.9177 51.5696C47.9177 52.035 47.7337 52.4813 47.4062 52.8104C47.0787 53.1394 46.6346 53.3243 46.1714 53.3243Z" fill="white"/>
<path d="M40.0944 31.5662H32.4108C31.9477 31.5662 31.5035 31.3814 31.176 31.0523C30.8485 30.7232 30.6646 30.2769 30.6646 29.8116C30.6646 29.3462 30.8485 28.8999 31.176 28.5708C31.5035 28.2418 31.9477 28.0569 32.4108 28.0569H40.0944C40.5575 28.0569 41.0017 28.2418 41.3292 28.5708C41.6567 28.8999 41.8407 29.3462 41.8407 29.8116C41.8407 30.2769 41.6567 30.7232 41.3292 31.0523C41.0017 31.3814 40.5575 31.5662 40.0944 31.5662Z" fill="white"/>
<path d="M65.0311 10.2294H7.47407C6.66394 10.2294 6.0072 10.8893 6.0072 11.7033V11.7033C6.0072 12.5173 6.66394 13.1772 7.47407 13.1772H65.0311C65.8412 13.1772 66.498 12.5173 66.498 11.7033C66.498 10.8893 65.8412 10.2294 65.0311 10.2294Z" fill="#CCCCCC"/>
</svg>
