<svg width="35" height="42" viewBox="0 0 35 42" fill="none" xmlns="http://www.w3.org/2000/svg">
<path d="M4.53704 4.48381C4.36514 4.48381 4.20028 4.55226 4.07873 4.67411C3.95718 4.79596 3.88889 4.96122 3.88889 5.13354V29.9531C3.88889 30.187 4.01333 30.4001 4.21296 30.5171L16.8104 37.7992C16.9067 37.855 17.0157 37.8851 17.1269 37.8864C17.2382 37.8878 17.3479 37.8604 17.4456 37.807L30.7741 30.4859C30.8764 30.4298 30.9617 30.347 31.021 30.2464C31.0803 30.1458 31.1114 30.031 31.1111 29.9141V5.13354C31.1111 4.96122 31.0428 4.79596 30.9213 4.67411C30.7997 4.55226 30.6349 4.48381 30.463 4.48381H4.53704ZM0 5.13354C0 2.62299 2.03259 0.585449 4.53704 0.585449H30.463C32.9674 0.585449 35 2.62299 35 5.13354V29.9167C34.9997 30.732 34.7808 31.5322 34.3662 32.2335C33.9516 32.9349 33.3565 33.5116 32.6433 33.9034L19.3148 41.2246C18.6317 41.6004 17.8635 41.7935 17.0843 41.7853C16.305 41.7772 15.541 41.5679 14.8659 41.1778L2.27111 33.893C1.58074 33.4941 1.00736 32.9199 0.608675 32.2283C0.209988 31.5366 5.52662e-05 30.7519 0 29.9531V5.13354ZM9.72222 11.6308C9.72222 11.1138 9.92708 10.6181 10.2917 10.2525C10.6564 9.88698 11.151 9.68162 11.6667 9.68162H23.6315C24.1472 9.68162 24.6418 9.88698 25.0064 10.2525C25.3711 10.6181 25.5759 11.1138 25.5759 11.6308C25.5759 12.1478 25.3711 12.6435 25.0064 13.0091C24.6418 13.3746 24.1472 13.58 23.6315 13.58H13.6111V18.0293H23.6315C24.1472 18.0293 24.6418 18.2347 25.0064 18.6002C25.3711 18.9658 25.5759 19.4615 25.5759 19.9785V27.4737C25.5762 27.8356 25.4759 28.1905 25.2863 28.4985C25.0967 28.8065 24.8254 29.0555 24.5026 29.2176L18.5189 32.2167C18.2492 32.3517 17.9518 32.422 17.6504 32.422C17.3489 32.422 17.0516 32.3517 16.7819 32.2167L10.7981 29.2176C10.4753 29.056 10.2037 28.8076 10.0136 28.5001C9.82362 28.1925 9.72272 27.8381 9.72222 27.4763V25.9742C9.72222 25.4572 9.92708 24.9614 10.2917 24.5959C10.6564 24.2303 11.151 24.025 11.6667 24.025C12.1824 24.025 12.6769 24.2303 13.0416 24.5959C13.4062 24.9614 13.6111 25.4572 13.6111 25.9742V26.2704L17.6504 28.295L21.687 26.2678V21.9277H11.6667C11.151 21.9277 10.6564 21.7223 10.2917 21.3568C9.92708 20.9912 9.72222 20.4954 9.72222 19.9785V11.6308Z" fill="white"/>
</svg>
