<svg width="224" height="113" viewBox="0 0 224 113" fill="none" xmlns="http://www.w3.org/2000/svg">
<g clip-path="url(#clip0_50_41)">
<path d="M47.3279 0.498452C41.2421 0.487959 35.2121 1.66158 29.5715 3.95437C29.3443 4.04777 29.1163 4.14163 28.8884 4.23761C20.3161 7.86763 13.0022 13.9559 7.8632 21.7394C2.72424 29.5228 -0.0111331 38.6553 -8.87576e-05 47.9921V99.8162C0.000525898 100.364 0.217457 100.888 0.603113 101.275C0.988769 101.662 1.51165 101.88 2.05705 101.881L2.0979 101.884C41.7475 109.11 80.2936 112.771 116.697 112.771C117.243 112.771 117.788 112.77 118.333 112.769C154.117 112.659 188.96 108.998 221.895 101.886L221.943 101.881C222.488 101.88 223.011 101.662 223.397 101.275C223.782 100.888 223.999 100.364 224 99.8162V2.56281C223.999 2.0155 223.782 1.49078 223.397 1.10378C223.011 0.71677 222.488 0.499083 221.943 0.498466L47.3279 0.498452Z" fill="#FFD957"/>
<path d="M170.469 41.8297C170.112 41.8356 169.772 41.9819 169.522 42.237C169.272 42.4921 169.132 42.8357 169.132 43.1936C169.132 43.5514 169.272 43.895 169.522 44.1501C169.772 44.4052 170.112 44.5515 170.469 44.5574H204.545C204.724 44.5605 204.901 44.5283 205.067 44.4626C205.234 44.3969 205.385 44.2989 205.514 44.1743C205.642 44.0498 205.745 43.901 205.816 43.7365C205.887 43.5721 205.925 43.3952 205.928 43.216C205.931 43.0367 205.899 42.8587 205.833 42.692C205.767 42.5253 205.67 42.3732 205.545 42.2445C205.421 42.1157 205.273 42.0128 205.109 41.9417C204.945 41.8705 204.768 41.8325 204.59 41.8297C204.575 41.8295 204.56 41.8295 204.545 41.8297H170.469Z" fill="#3F3D56"/>
<path d="M212.273 41.4499C212.248 41.4749 212.228 41.5045 212.215 41.537C212.202 41.5696 212.195 41.6045 212.195 41.6397C212.195 41.675 212.202 41.7099 212.215 41.7424C212.228 41.775 212.248 41.8046 212.273 41.8295L213.421 42.9816H210.59C210.519 42.9816 210.451 43.0099 210.401 43.0602C210.351 43.1105 210.323 43.1788 210.323 43.25C210.323 43.3212 210.351 43.3894 210.401 43.4397C210.451 43.4901 210.519 43.5184 210.59 43.5184H213.421L212.273 44.6705C212.248 44.6954 212.228 44.725 212.215 44.7575C212.202 44.7901 212.195 44.825 212.195 44.8602C212.195 44.8955 212.202 44.9304 212.215 44.9629C212.228 44.9955 212.248 45.0251 212.273 45.05C212.298 45.0749 212.327 45.0947 212.36 45.1082C212.392 45.1217 212.427 45.1286 212.462 45.1286C212.497 45.1286 212.532 45.1217 212.564 45.1082C212.597 45.0947 212.626 45.0749 212.651 45.05L214.256 43.4397C214.306 43.3894 214.334 43.3212 214.334 43.25C214.334 43.1788 214.306 43.1105 214.256 43.0602L212.651 41.4499C212.626 41.425 212.597 41.4053 212.564 41.3918C212.532 41.3783 212.497 41.3713 212.462 41.3713C212.427 41.3713 212.392 41.3783 212.36 41.3918C212.327 41.4053 212.298 41.425 212.273 41.4499Z" fill="white"/>
<path d="M162.726 41.4499C162.751 41.4749 162.771 41.5045 162.784 41.537C162.798 41.5696 162.805 41.6045 162.805 41.6397C162.805 41.675 162.798 41.7099 162.784 41.7424C162.771 41.775 162.751 41.8046 162.726 41.8295L161.578 42.9816H164.409C164.444 42.9815 164.479 42.9884 164.512 43.0018C164.544 43.0152 164.574 43.035 164.599 43.0599C164.624 43.0849 164.643 43.1145 164.657 43.1471C164.67 43.1797 164.677 43.2147 164.677 43.25C164.677 43.2853 164.67 43.3202 164.657 43.3529C164.643 43.3855 164.624 43.4151 164.599 43.44C164.574 43.465 164.544 43.4847 164.512 43.4981C164.479 43.5116 164.444 43.5185 164.409 43.5184H161.578L162.726 44.6705C162.776 44.7208 162.805 44.789 162.805 44.8602C162.805 44.9314 162.776 44.9997 162.726 45.05C162.676 45.1003 162.608 45.1286 162.537 45.1286C162.466 45.1286 162.398 45.1003 162.348 45.05L160.743 43.4397C160.693 43.3894 160.665 43.3212 160.665 43.25C160.665 43.1788 160.693 43.1105 160.743 43.0602L162.348 41.4499C162.373 41.425 162.402 41.4053 162.435 41.3918C162.467 41.3783 162.502 41.3713 162.537 41.3713C162.572 41.3713 162.607 41.3783 162.639 41.3918C162.672 41.4053 162.701 41.425 162.726 41.4499Z" fill="white"/>
<g opacity="0.4">
<path d="M171.845 13.5224C172.651 13.5224 173.305 12.8662 173.305 12.0567C173.305 11.2472 172.651 10.591 171.845 10.591C171.038 10.591 170.384 11.2472 170.384 12.0567C170.384 12.8662 171.038 13.5224 171.845 13.5224Z" fill="white"/>
<path d="M177.93 13.5224C178.737 13.5224 179.391 12.8662 179.391 12.0567C179.391 11.2472 178.737 10.591 177.93 10.591C177.124 10.591 176.47 11.2472 176.47 12.0567C176.47 12.8662 177.124 13.5224 177.93 13.5224Z" fill="white"/>
<path d="M184.016 13.5224C184.822 13.5224 185.476 12.8662 185.476 12.0567C185.476 11.2472 184.822 10.591 184.016 10.591C183.209 10.591 182.555 11.2472 182.555 12.0567C182.555 12.8662 183.209 13.5224 184.016 13.5224Z" fill="white"/>
<path d="M190.101 13.5224C190.908 13.5224 191.562 12.8662 191.562 12.0567C191.562 11.2472 190.908 10.591 190.101 10.591C189.295 10.591 188.641 11.2472 188.641 12.0567C188.641 12.8662 189.295 13.5224 190.101 13.5224Z" fill="white"/>
<path d="M196.187 13.5224C196.994 13.5224 197.648 12.8662 197.648 12.0567C197.648 11.2472 196.994 10.591 196.187 10.591C195.38 10.591 194.727 11.2472 194.727 12.0567C194.727 12.8662 195.38 13.5224 196.187 13.5224Z" fill="white"/>
<path d="M202.273 13.5224C203.079 13.5224 203.733 12.8662 203.733 12.0567C203.733 11.2472 203.079 10.591 202.273 10.591C201.466 10.591 200.812 11.2472 200.812 12.0567C200.812 12.8662 201.466 13.5224 202.273 13.5224Z" fill="white"/>
<path d="M208.358 13.5224C209.165 13.5224 209.819 12.8662 209.819 12.0567C209.819 11.2472 209.165 10.591 208.358 10.591C207.552 10.591 206.898 11.2472 206.898 12.0567C206.898 12.8662 207.552 13.5224 208.358 13.5224Z" fill="white"/>
<path d="M171.845 18.1636C172.651 18.1636 173.305 17.5074 173.305 16.698C173.305 15.8885 172.651 15.2323 171.845 15.2323C171.038 15.2323 170.384 15.8885 170.384 16.698C170.384 17.5074 171.038 18.1636 171.845 18.1636Z" fill="white"/>
<path d="M177.93 18.1636C178.737 18.1636 179.391 17.5074 179.391 16.698C179.391 15.8885 178.737 15.2323 177.93 15.2323C177.124 15.2323 176.47 15.8885 176.47 16.698C176.47 17.5074 177.124 18.1636 177.93 18.1636Z" fill="white"/>
<path d="M184.016 18.1636C184.822 18.1636 185.476 17.5074 185.476 16.698C185.476 15.8885 184.822 15.2323 184.016 15.2323C183.209 15.2323 182.555 15.8885 182.555 16.698C182.555 17.5074 183.209 18.1636 184.016 18.1636Z" fill="white"/>
<path d="M190.101 18.1636C190.908 18.1636 191.562 17.5074 191.562 16.698C191.562 15.8885 190.908 15.2323 190.101 15.2323C189.295 15.2323 188.641 15.8885 188.641 16.698C188.641 17.5074 189.295 18.1636 190.101 18.1636Z" fill="white"/>
<path d="M196.187 18.1636C196.994 18.1636 197.648 17.5074 197.648 16.698C197.648 15.8885 196.994 15.2323 196.187 15.2323C195.38 15.2323 194.727 15.8885 194.727 16.698C194.727 17.5074 195.38 18.1636 196.187 18.1636Z" fill="white"/>
<path d="M202.273 18.1636C203.079 18.1636 203.733 17.5074 203.733 16.698C203.733 15.8885 203.079 15.2323 202.273 15.2323C201.466 15.2323 200.812 15.8885 200.812 16.698C200.812 17.5074 201.466 18.1636 202.273 18.1636Z" fill="white"/>
<path d="M208.358 18.1636C209.165 18.1636 209.819 17.5074 209.819 16.698C209.819 15.8885 209.165 15.2323 208.358 15.2323C207.552 15.2323 206.898 15.8885 206.898 16.698C206.898 17.5074 207.552 18.1636 208.358 18.1636Z" fill="white"/>
<path d="M171.845 22.8049C172.651 22.8049 173.305 22.1487 173.305 21.3392C173.305 20.5297 172.651 19.8735 171.845 19.8735C171.038 19.8735 170.384 20.5297 170.384 21.3392C170.384 22.1487 171.038 22.8049 171.845 22.8049Z" fill="white"/>
<path d="M177.93 22.8049C178.737 22.8049 179.391 22.1487 179.391 21.3392C179.391 20.5297 178.737 19.8735 177.93 19.8735C177.124 19.8735 176.47 20.5297 176.47 21.3392C176.47 22.1487 177.124 22.8049 177.93 22.8049Z" fill="white"/>
<path d="M184.016 22.8049C184.822 22.8049 185.476 22.1487 185.476 21.3392C185.476 20.5297 184.822 19.8735 184.016 19.8735C183.209 19.8735 182.555 20.5297 182.555 21.3392C182.555 22.1487 183.209 22.8049 184.016 22.8049Z" fill="white"/>
<path d="M190.101 22.8049C190.908 22.8049 191.562 22.1487 191.562 21.3392C191.562 20.5297 190.908 19.8735 190.101 19.8735C189.295 19.8735 188.641 20.5297 188.641 21.3392C188.641 22.1487 189.295 22.8049 190.101 22.8049Z" fill="white"/>
<path d="M196.187 22.8049C196.994 22.8049 197.648 22.1487 197.648 21.3392C197.648 20.5297 196.994 19.8735 196.187 19.8735C195.38 19.8735 194.727 20.5297 194.727 21.3392C194.727 22.1487 195.38 22.8049 196.187 22.8049Z" fill="white"/>
<path d="M202.273 22.8049C203.079 22.8049 203.733 22.1487 203.733 21.3392C203.733 20.5297 203.079 19.8735 202.273 19.8735C201.466 19.8735 200.812 20.5297 200.812 21.3392C200.812 22.1487 201.466 22.8049 202.273 22.8049Z" fill="white"/>
<path d="M208.358 22.8049C209.165 22.8049 209.819 22.1487 209.819 21.3392C209.819 20.5297 209.165 19.8735 208.358 19.8735C207.552 19.8735 206.898 20.5297 206.898 21.3392C206.898 22.1487 207.552 22.8049 208.358 22.8049Z" fill="white"/>
<path d="M171.845 27.4461C172.651 27.4461 173.305 26.7899 173.305 25.9805C173.305 25.171 172.651 24.5148 171.845 24.5148C171.038 24.5148 170.384 25.171 170.384 25.9805C170.384 26.7899 171.038 27.4461 171.845 27.4461Z" fill="white"/>
<path d="M177.93 27.4461C178.737 27.4461 179.391 26.7899 179.391 25.9805C179.391 25.171 178.737 24.5148 177.93 24.5148C177.124 24.5148 176.47 25.171 176.47 25.9805C176.47 26.7899 177.124 27.4461 177.93 27.4461Z" fill="white"/>
<path d="M171.845 32.0874C172.651 32.0874 173.305 31.4312 173.305 30.6217C173.305 29.8123 172.651 29.1561 171.845 29.1561C171.038 29.1561 170.384 29.8123 170.384 30.6217C170.384 31.4312 171.038 32.0874 171.845 32.0874Z" fill="white"/>
<path d="M177.93 32.0874C178.737 32.0874 179.391 31.4312 179.391 30.6217C179.391 29.8123 178.737 29.1561 177.93 29.1561C177.124 29.1561 176.47 29.8123 176.47 30.6217C176.47 31.4312 177.124 32.0874 177.93 32.0874Z" fill="white"/>
<path d="M184.016 32.0874C184.822 32.0874 185.476 31.4312 185.476 30.6217C185.476 29.8123 184.822 29.1561 184.016 29.1561C183.209 29.1561 182.555 29.8123 182.555 30.6217C182.555 31.4312 183.209 32.0874 184.016 32.0874Z" fill="white"/>
<path d="M184.016 27.4461C184.822 27.4461 185.476 26.7899 185.476 25.9805C185.476 25.171 184.822 24.5148 184.016 24.5148C183.209 24.5148 182.555 25.171 182.555 25.9805C182.555 26.7899 183.209 27.4461 184.016 27.4461Z" fill="white"/>
<path d="M190.101 27.4461C190.908 27.4461 191.562 26.7899 191.562 25.9805C191.562 25.171 190.908 24.5148 190.101 24.5148C189.295 24.5148 188.641 25.171 188.641 25.9805C188.641 26.7899 189.295 27.4461 190.101 27.4461Z" fill="white"/>
<path d="M196.187 27.4461C196.994 27.4461 197.648 26.7899 197.648 25.9805C197.648 25.171 196.994 24.5148 196.187 24.5148C195.38 24.5148 194.727 25.171 194.727 25.9805C194.727 26.7899 195.38 27.4461 196.187 27.4461Z" fill="white"/>
<path d="M202.273 27.4461C203.079 27.4461 203.733 26.7899 203.733 25.9805C203.733 25.171 203.079 24.5148 202.273 24.5148C201.466 24.5148 200.812 25.171 200.812 25.9805C200.812 26.7899 201.466 27.4461 202.273 27.4461Z" fill="white"/>
<path d="M208.358 27.4461C209.165 27.4461 209.819 26.7899 209.819 25.9805C209.819 25.171 209.165 24.5148 208.358 24.5148C207.552 24.5148 206.898 25.171 206.898 25.9805C206.898 26.7899 207.552 27.4461 208.358 27.4461Z" fill="white"/>
</g>
<path d="M150.893 86.6182C149.299 86.6182 147.74 86.1437 146.414 85.2547C145.088 84.3657 144.055 83.1022 143.445 81.6238C142.834 80.1455 142.675 78.5187 142.986 76.9493C143.297 75.3799 144.065 73.9384 145.192 72.8069C146.32 71.6754 147.756 70.9049 149.32 70.5927C150.884 70.2805 152.505 70.4407 153.978 71.0531C155.452 71.6654 156.711 72.7024 157.597 74.0329C158.483 75.3634 158.955 76.9276 158.955 78.5277C158.953 80.6727 158.103 82.7291 156.591 84.2459C155.08 85.7626 153.031 86.6158 150.893 86.6182ZM150.893 70.896C149.389 70.896 147.919 71.3436 146.668 72.1822C145.417 73.0207 144.442 74.2127 143.867 75.6072C143.291 77.0017 143.141 78.5362 143.434 80.0166C143.728 81.497 144.452 82.8569 145.515 83.9242C146.579 84.9915 147.934 85.7183 149.409 86.0128C150.885 86.3073 152.414 86.1562 153.803 85.5785C155.193 85.0009 156.381 84.0227 157.217 82.7677C158.052 81.5126 158.498 80.0371 158.498 78.5277C158.496 76.5044 157.694 74.5645 156.268 73.1338C154.842 71.703 152.909 70.8982 150.893 70.896Z" fill="#3F3D56"/>
<path d="M153.984 77.7522H151.666V75.4259C151.666 75.2202 151.585 75.023 151.44 74.8775C151.295 74.7321 151.098 74.6504 150.893 74.6504C150.688 74.6504 150.492 74.7321 150.347 74.8775C150.202 75.023 150.12 75.2202 150.12 75.4259V77.7522H147.802C147.597 77.7522 147.401 77.8339 147.256 77.9794C147.111 78.1248 147.029 78.322 147.029 78.5277C147.029 78.7333 147.111 78.9306 147.256 79.076C147.401 79.2214 147.597 79.3031 147.802 79.3031H150.12V81.6295C150.12 81.8352 150.202 82.0324 150.347 82.1778C150.492 82.3233 150.688 82.405 150.893 82.405C151.098 82.405 151.295 82.3233 151.44 82.1778C151.585 82.0324 151.666 81.8352 151.666 81.6295V79.3031H153.984C154.189 79.3031 154.386 79.2214 154.531 79.076C154.675 78.9306 154.757 78.7333 154.757 78.5277C154.757 78.322 154.675 78.1248 154.531 77.9794C154.386 77.8339 154.189 77.7522 153.984 77.7522Z" fill="white"/>
<g opacity="0.4">
<path d="M12.3483 87.6115C12.9825 87.6115 13.4966 87.0956 13.4966 86.4592C13.4966 85.8227 12.9825 85.3068 12.3483 85.3068C11.7141 85.3068 11.2 85.8227 11.2 86.4592C11.2 87.0956 11.7141 87.6115 12.3483 87.6115Z" fill="white"/>
<path d="M12.3483 82.8101C12.9825 82.8101 13.4966 82.2942 13.4966 81.6577C13.4966 81.0213 12.9825 80.5054 12.3483 80.5054C11.7141 80.5054 11.2 81.0213 11.2 81.6577C11.2 82.2942 11.7141 82.8101 12.3483 82.8101Z" fill="white"/>
<path d="M12.3483 78.0087C12.9825 78.0087 13.4966 77.4927 13.4966 76.8563C13.4966 76.2199 12.9825 75.704 12.3483 75.704C11.7141 75.704 11.2 76.2199 11.2 76.8563C11.2 77.4927 11.7141 78.0087 12.3483 78.0087Z" fill="white"/>
<path d="M12.3483 73.2072C12.9825 73.2072 13.4966 72.6913 13.4966 72.0549C13.4966 71.4185 12.9825 70.9026 12.3483 70.9026C11.7141 70.9026 11.2 71.4185 11.2 72.0549C11.2 72.6913 11.7141 73.2072 12.3483 73.2072Z" fill="white"/>
<path d="M12.3483 68.4058C12.9825 68.4058 13.4966 67.8899 13.4966 67.2535C13.4966 66.6171 12.9825 66.1011 12.3483 66.1011C11.7141 66.1011 11.2 66.6171 11.2 67.2535C11.2 67.8899 11.7141 68.4058 12.3483 68.4058Z" fill="white"/>
<path d="M12.3483 63.6044C12.9825 63.6044 13.4966 63.0885 13.4966 62.4521C13.4966 61.8156 12.9825 61.2997 12.3483 61.2997C11.7141 61.2997 11.2 61.8156 11.2 62.4521C11.2 63.0885 11.7141 63.6044 12.3483 63.6044Z" fill="white"/>
<path d="M12.3483 58.803C12.9825 58.803 13.4966 58.2871 13.4966 57.6506C13.4966 57.0142 12.9825 56.4983 12.3483 56.4983C11.7141 56.4983 11.2 57.0142 11.2 57.6506C11.2 58.2871 11.7141 58.803 12.3483 58.803Z" fill="white"/>
<path d="M15.9846 87.6115C16.6188 87.6115 17.1329 87.0956 17.1329 86.4592C17.1329 85.8227 16.6188 85.3068 15.9846 85.3068C15.3504 85.3068 14.8363 85.8227 14.8363 86.4592C14.8363 87.0956 15.3504 87.6115 15.9846 87.6115Z" fill="white"/>
<path d="M15.9846 82.8101C16.6188 82.8101 17.1329 82.2942 17.1329 81.6577C17.1329 81.0213 16.6188 80.5054 15.9846 80.5054C15.3504 80.5054 14.8363 81.0213 14.8363 81.6577C14.8363 82.2942 15.3504 82.8101 15.9846 82.8101Z" fill="white"/>
<path d="M15.9846 78.0087C16.6188 78.0087 17.1329 77.4927 17.1329 76.8563C17.1329 76.2199 16.6188 75.704 15.9846 75.704C15.3504 75.704 14.8363 76.2199 14.8363 76.8563C14.8363 77.4927 15.3504 78.0087 15.9846 78.0087Z" fill="white"/>
<path d="M15.9846 73.2072C16.6188 73.2072 17.1329 72.6913 17.1329 72.0549C17.1329 71.4185 16.6188 70.9026 15.9846 70.9026C15.3504 70.9026 14.8363 71.4185 14.8363 72.0549C14.8363 72.6913 15.3504 73.2072 15.9846 73.2072Z" fill="white"/>
<path d="M15.9846 68.4058C16.6188 68.4058 17.1329 67.8899 17.1329 67.2535C17.1329 66.6171 16.6188 66.1011 15.9846 66.1011C15.3504 66.1011 14.8363 66.6171 14.8363 67.2535C14.8363 67.8899 15.3504 68.4058 15.9846 68.4058Z" fill="white"/>
<path d="M15.9846 63.6044C16.6188 63.6044 17.1329 63.0885 17.1329 62.4521C17.1329 61.8156 16.6188 61.2997 15.9846 61.2997C15.3504 61.2997 14.8363 61.8156 14.8363 62.4521C14.8363 63.0885 15.3504 63.6044 15.9846 63.6044Z" fill="white"/>
<path d="M15.9846 58.803C16.6188 58.803 17.1329 58.2871 17.1329 57.6506C17.1329 57.0142 16.6188 56.4983 15.9846 56.4983C15.3504 56.4983 14.8363 57.0142 14.8363 57.6506C14.8363 58.2871 15.3504 58.803 15.9846 58.803Z" fill="white"/>
<path d="M19.621 87.6115C20.2552 87.6115 20.7693 87.0956 20.7693 86.4592C20.7693 85.8227 20.2552 85.3068 19.621 85.3068C18.9868 85.3068 18.4727 85.8227 18.4727 86.4592C18.4727 87.0956 18.9868 87.6115 19.621 87.6115Z" fill="white"/>
<path d="M19.621 82.8101C20.2552 82.8101 20.7693 82.2942 20.7693 81.6577C20.7693 81.0213 20.2552 80.5054 19.621 80.5054C18.9868 80.5054 18.4727 81.0213 18.4727 81.6577C18.4727 82.2942 18.9868 82.8101 19.621 82.8101Z" fill="white"/>
<path d="M19.621 78.0087C20.2552 78.0087 20.7693 77.4927 20.7693 76.8563C20.7693 76.2199 20.2552 75.704 19.621 75.704C18.9868 75.704 18.4727 76.2199 18.4727 76.8563C18.4727 77.4927 18.9868 78.0087 19.621 78.0087Z" fill="white"/>
<path d="M19.621 73.2072C20.2552 73.2072 20.7693 72.6913 20.7693 72.0549C20.7693 71.4185 20.2552 70.9026 19.621 70.9026C18.9868 70.9026 18.4727 71.4185 18.4727 72.0549C18.4727 72.6913 18.9868 73.2072 19.621 73.2072Z" fill="white"/>
<path d="M19.621 68.4058C20.2552 68.4058 20.7693 67.8899 20.7693 67.2535C20.7693 66.6171 20.2552 66.1011 19.621 66.1011C18.9868 66.1011 18.4727 66.6171 18.4727 67.2535C18.4727 67.8899 18.9868 68.4058 19.621 68.4058Z" fill="white"/>
<path d="M19.621 63.6044C20.2552 63.6044 20.7693 63.0885 20.7693 62.4521C20.7693 61.8156 20.2552 61.2997 19.621 61.2997C18.9868 61.2997 18.4727 61.8156 18.4727 62.4521C18.4727 63.0885 18.9868 63.6044 19.621 63.6044Z" fill="white"/>
<path d="M19.621 58.803C20.2552 58.803 20.7693 58.2871 20.7693 57.6506C20.7693 57.0142 20.2552 56.4983 19.621 56.4983C18.9868 56.4983 18.4727 57.0142 18.4727 57.6506C18.4727 58.2871 18.9868 58.803 19.621 58.803Z" fill="white"/>
<path d="M23.2573 87.6115C23.8915 87.6115 24.4057 87.0956 24.4057 86.4592C24.4057 85.8227 23.8915 85.3068 23.2573 85.3068C22.6231 85.3068 22.109 85.8227 22.109 86.4592C22.109 87.0956 22.6231 87.6115 23.2573 87.6115Z" fill="white"/>
<path d="M23.2573 82.8101C23.8915 82.8101 24.4057 82.2942 24.4057 81.6577C24.4057 81.0213 23.8915 80.5054 23.2573 80.5054C22.6231 80.5054 22.109 81.0213 22.109 81.6577C22.109 82.2942 22.6231 82.8101 23.2573 82.8101Z" fill="white"/>
<path d="M26.8937 87.6115C27.5279 87.6115 28.042 87.0956 28.042 86.4592C28.042 85.8227 27.5279 85.3068 26.8937 85.3068C26.2595 85.3068 25.7454 85.8227 25.7454 86.4592C25.7454 87.0956 26.2595 87.6115 26.8937 87.6115Z" fill="white"/>
<path d="M26.8937 82.8101C27.5279 82.8101 28.042 82.2942 28.042 81.6577C28.042 81.0213 27.5279 80.5054 26.8937 80.5054C26.2595 80.5054 25.7454 81.0213 25.7454 81.6577C25.7454 82.2942 26.2595 82.8101 26.8937 82.8101Z" fill="white"/>
<path d="M26.8937 78.0087C27.5279 78.0087 28.042 77.4927 28.042 76.8563C28.042 76.2199 27.5279 75.704 26.8937 75.704C26.2595 75.704 25.7454 76.2199 25.7454 76.8563C25.7454 77.4927 26.2595 78.0087 26.8937 78.0087Z" fill="white"/>
<path d="M23.2573 78.0087C23.8915 78.0087 24.4057 77.4927 24.4057 76.8563C24.4057 76.2199 23.8915 75.704 23.2573 75.704C22.6231 75.704 22.109 76.2199 22.109 76.8563C22.109 77.4927 22.6231 78.0087 23.2573 78.0087Z" fill="white"/>
<path d="M23.2573 73.2072C23.8915 73.2072 24.4057 72.6913 24.4057 72.0549C24.4057 71.4185 23.8915 70.9026 23.2573 70.9026C22.6231 70.9026 22.109 71.4185 22.109 72.0549C22.109 72.6913 22.6231 73.2072 23.2573 73.2072Z" fill="white"/>
<path d="M23.2573 68.4058C23.8915 68.4058 24.4057 67.8899 24.4057 67.2535C24.4057 66.6171 23.8915 66.1011 23.2573 66.1011C22.6231 66.1011 22.109 66.6171 22.109 67.2535C22.109 67.8899 22.6231 68.4058 23.2573 68.4058Z" fill="white"/>
<path d="M23.2573 63.6044C23.8915 63.6044 24.4057 63.0885 24.4057 62.4521C24.4057 61.8156 23.8915 61.2997 23.2573 61.2997C22.6231 61.2997 22.109 61.8156 22.109 62.4521C22.109 63.0885 22.6231 63.6044 23.2573 63.6044Z" fill="white"/>
<path d="M23.2573 58.803C23.8915 58.803 24.4057 58.2871 24.4057 57.6506C24.4057 57.0142 23.8915 56.4983 23.2573 56.4983C22.6231 56.4983 22.109 57.0142 22.109 57.6506C22.109 58.2871 22.6231 58.803 23.2573 58.803Z" fill="white"/>
</g>
<path d="M113.693 8.06845H37.4094C37.0348 8.06883 36.6756 8.21836 36.4106 8.48421C36.1457 8.75007 35.9967 9.11054 35.9963 9.48651V74.9452C35.9967 75.3212 36.1457 75.6817 36.4106 75.9475C36.6756 76.2134 37.0348 76.3629 37.4094 76.3633H113.693C114.068 76.3629 114.427 76.2134 114.692 75.9475C114.957 75.6817 115.106 75.3212 115.106 74.9452V9.4865C115.106 9.11053 114.957 8.75006 114.692 8.48421C114.427 8.21835 114.068 8.06883 113.693 8.06845ZM114.54 74.9452C114.54 75.1708 114.451 75.3872 114.292 75.5469C114.133 75.7067 113.918 75.7968 113.693 75.7976H37.4094C37.1845 75.7973 36.9689 75.7073 36.8101 75.5474C36.6513 75.3876 36.5623 75.1709 36.5626 74.9452V9.4865C36.5623 9.26078 36.6513 9.04417 36.8101 8.88431C36.9689 8.72445 37.1845 8.63444 37.4094 8.63407H113.693C113.918 8.63488 114.133 8.72504 114.292 8.8848C114.451 9.04456 114.54 9.26092 114.54 9.4865V74.9452Z" fill="#3F3D56"/>
<path d="M55.0178 64.7241C55.0178 64.825 55.0151 64.9259 55.0098 65.0242C54.9329 66.5014 54.2939 67.8928 53.2247 68.9111C52.1555 69.9295 50.7376 70.4972 49.2635 70.4972C47.7893 70.4972 46.3714 69.9295 45.3022 68.9111C44.233 67.8928 43.594 66.5014 43.5171 65.0242C43.5118 64.9259 43.5092 64.825 43.5092 64.7241C43.5087 63.9655 43.6572 63.2142 43.9461 62.5132C44.2351 61.8122 44.6589 61.1752 45.1933 60.6386C45.7277 60.102 46.3622 59.6763 47.0605 59.3859C47.7589 59.0955 48.5075 58.946 49.2635 58.946C50.0194 58.946 50.768 59.0955 51.4664 59.3859C52.1648 59.6763 52.7993 60.102 53.3336 60.6386C53.868 61.1752 54.2918 61.8122 54.5808 62.5132C54.8698 63.2142 55.0182 63.9655 55.0178 64.7241Z" fill="white"/>
<path d="M107.766 60.8736H62.5517C62.2975 60.874 62.0539 60.9756 61.8743 61.1561C61.6947 61.3366 61.5939 61.5812 61.5939 61.8362C61.5939 62.0913 61.6947 62.3359 61.8743 62.5164C62.0539 62.6969 62.2975 62.7985 62.5517 62.7989H107.766C108.02 62.7985 108.264 62.6969 108.443 62.5164C108.623 62.3359 108.724 62.0913 108.724 61.8362C108.724 61.5812 108.623 61.3366 108.443 61.1561C108.264 60.9756 108.02 60.874 107.766 60.8736Z" fill="#3F3D56"/>
<path d="M82.0069 66.6494H62.5516C62.2975 66.6494 62.0539 66.7506 61.8742 66.9309C61.6946 67.1112 61.5936 67.3557 61.5936 67.6107C61.5936 67.8656 61.6946 68.1101 61.8742 68.2904C62.0539 68.4707 62.2975 68.5719 62.5516 68.5719H82.0069C82.261 68.5719 82.5046 68.4707 82.6843 68.2904C82.8639 68.1101 82.9649 67.8656 82.9649 67.6107C82.9649 67.3557 82.8639 67.1112 82.6843 66.9309C82.5046 66.7506 82.261 66.6494 82.0069 66.6494Z" fill="white"/>
<path d="M131.817 54.0755H55.5332C55.0152 54.0749 54.5185 53.868 54.1521 53.5004C53.7858 53.1327 53.5798 52.6343 53.5792 52.1144V18.5202C53.5798 18.0003 53.7859 17.5019 54.1522 17.1343C54.5185 16.7667 55.0152 16.5599 55.5332 16.5593H131.817C132.335 16.5599 132.831 16.7667 133.198 17.1343C133.564 17.5019 133.77 18.0003 133.771 18.5202V52.1144C133.77 52.6343 133.564 53.1327 133.198 53.5004C132.831 53.868 132.335 54.0749 131.817 54.0755ZM55.5332 17.2474C55.197 17.2478 54.8746 17.382 54.6368 17.6206C54.399 17.8593 54.2653 18.1828 54.2649 18.5202V52.1144C54.2653 52.4518 54.399 52.7754 54.6368 53.014C54.8746 53.2527 55.197 53.3869 55.5332 53.3873H131.817C132.153 53.3869 132.475 53.2527 132.713 53.014C132.951 52.7754 133.085 52.4518 133.085 52.1144V18.5202C133.085 18.1828 132.951 17.8593 132.713 17.6206C132.475 17.382 132.153 17.2478 131.817 17.2474H55.5332Z" fill="white"/>
<path d="M71.0684 28.8122C70.8141 28.8122 70.5701 28.9136 70.3903 29.094C70.2104 29.2745 70.1094 29.5193 70.1094 29.7746C70.1094 30.0298 70.2104 30.2746 70.3903 30.4551C70.5701 30.6356 70.8141 30.737 71.0684 30.737H116.282C116.536 30.737 116.78 30.6356 116.96 30.4551C117.14 30.2746 117.241 30.0298 117.241 29.7746C117.241 29.5193 117.14 29.2745 116.96 29.094C116.78 28.9136 116.536 28.8122 116.282 28.8122H71.0684Z" fill="white"/>
<path d="M71.0684 34.3888C70.8141 34.3888 70.5701 34.4902 70.3903 34.6706C70.2104 34.8511 70.1094 35.0959 70.1094 35.3512C70.1094 35.6064 70.2104 35.8512 70.3903 36.0317C70.5701 36.2122 70.8141 36.3136 71.0684 36.3136H116.282C116.536 36.3132 116.779 36.2116 116.959 36.0312C117.138 35.8507 117.239 35.6062 117.239 35.3512C117.239 35.0962 117.138 34.8516 116.959 34.6712C116.779 34.4907 116.536 34.3892 116.282 34.3888H71.0684Z" fill="white"/>
<path d="M71.0684 39.8977C70.8141 39.8977 70.5701 39.9991 70.3903 40.1796C70.2104 40.3601 70.1094 40.6049 70.1094 40.8602C70.1094 41.1154 70.2104 41.3602 70.3903 41.5407C70.5701 41.7212 70.8141 41.8226 71.0684 41.8226H90.5238C90.7779 41.8222 91.0215 41.7206 91.201 41.5402C91.3805 41.3597 91.4814 41.1152 91.4814 40.8602C91.4814 40.6052 91.3805 40.3606 91.201 40.1802C91.0215 39.9997 90.7779 39.8981 90.5238 39.8977H71.0684Z" fill="white"/>
<path d="M144.394 68.3084L136.732 57.4574L139.213 57.9761C139.257 57.9853 139.302 57.9857 139.346 57.9773C139.391 57.9688 139.433 57.9517 139.471 57.927C139.508 57.9022 139.541 57.8702 139.566 57.8328C139.591 57.7955 139.609 57.7534 139.618 57.7092C139.628 57.6649 139.628 57.6193 139.62 57.5748C139.611 57.5304 139.594 57.4881 139.569 57.4502C139.545 57.4124 139.513 57.3799 139.476 57.3544C139.438 57.329 139.397 57.3111 139.352 57.3019L135.656 56.5298L135.157 60.2847C135.151 60.3296 135.154 60.3752 135.166 60.419C135.177 60.4628 135.197 60.5039 135.225 60.54C135.252 60.576 135.286 60.6062 135.325 60.629C135.364 60.6517 135.407 60.6665 135.452 60.6725C135.497 60.6785 135.542 60.6755 135.586 60.6638C135.63 60.6521 135.67 60.6319 135.706 60.6043C135.742 60.5768 135.772 60.5424 135.795 60.5031C135.817 60.4639 135.832 60.4205 135.838 60.3756L136.172 57.8541L143.835 68.7062C143.861 68.743 143.894 68.7744 143.932 68.7985C143.97 68.8225 144.012 68.8388 144.057 68.8464C144.101 68.854 144.146 68.8527 144.19 68.8427C144.234 68.8327 144.276 68.8141 144.312 68.7879C144.349 68.7618 144.38 68.7287 144.404 68.6905C144.428 68.6522 144.445 68.6096 144.452 68.5651C144.46 68.5206 144.459 68.475 144.449 68.4309C144.439 68.3869 144.42 68.3452 144.394 68.3084Z" fill="white"/>
<path d="M102.781 99.89H48.322C48.0546 99.8896 47.7983 99.7829 47.6092 99.5932C47.4201 99.4035 47.3138 99.1462 47.3135 98.8779V85.3218C47.3138 85.0535 47.4201 84.7962 47.6092 84.6065C47.7983 84.4168 48.0546 84.3101 48.322 84.3098H102.781C103.048 84.3101 103.304 84.4168 103.494 84.6065C103.683 84.7962 103.789 85.0535 103.789 85.3218V98.8779C103.789 99.1462 103.683 99.4035 103.494 99.5932C103.304 99.7829 103.048 99.8896 102.781 99.89ZM48.322 84.7146C48.1615 84.7147 48.0077 84.7788 47.8943 84.8926C47.7809 85.0064 47.717 85.1608 47.7169 85.3218V98.8779C47.717 99.0389 47.7809 99.1933 47.8943 99.3071C48.0077 99.4209 48.1615 99.485 48.322 99.4852H102.781C102.941 99.485 103.095 99.4209 103.208 99.3071C103.322 99.1933 103.386 99.0389 103.386 98.8779V85.3218C103.386 85.1608 103.322 85.0064 103.208 84.8926C103.095 84.7788 102.941 84.7147 102.781 84.7146H48.322Z" fill="#3F3D56"/>
<path d="M56.7839 95.7022C59.0527 95.7022 60.8919 93.8565 60.8919 91.5797C60.8919 89.303 59.0527 87.4573 56.7839 87.4573C54.515 87.4573 52.6758 89.303 52.6758 91.5797C52.6758 93.8565 54.515 95.7022 56.7839 95.7022Z" fill="white"/>
<path d="M66.2715 88.8314C66.1815 88.8313 66.0923 88.8489 66.0091 88.8834C65.9259 88.9178 65.8503 88.9684 65.7865 89.0322C65.7228 89.096 65.6723 89.1718 65.6378 89.2553C65.6033 89.3387 65.5856 89.4282 65.5856 89.5185C65.5856 89.6088 65.6033 89.6983 65.6378 89.7817C65.6723 89.8652 65.7228 89.941 65.7865 90.0048C65.8503 90.0686 65.9259 90.1192 66.0091 90.1536C66.0923 90.1881 66.1815 90.2057 66.2715 90.2056H98.5492C98.7308 90.2056 98.9049 90.1332 99.0333 90.0043C99.1617 89.8755 99.2339 89.7007 99.2339 89.5185C99.2339 89.3363 99.1617 89.1615 99.0333 89.0327C98.9049 88.9038 98.7308 88.8314 98.5492 88.8314H66.2715Z" fill="white"/>
<path d="M66.2715 92.9539C66.1815 92.9537 66.0923 92.9713 66.0091 93.0058C65.9259 93.0403 65.8503 93.0908 65.7865 93.1546C65.7228 93.2185 65.6723 93.2943 65.6378 93.3777C65.6033 93.4611 65.5856 93.5506 65.5856 93.6409C65.5856 93.7313 65.6033 93.8207 65.6378 93.9041C65.6723 93.9876 65.7228 94.0634 65.7865 94.1272C65.8503 94.191 65.9259 94.2416 66.0091 94.2761C66.0923 94.3105 66.1815 94.3282 66.2715 94.328H80.1607C80.3423 94.328 80.5164 94.2556 80.6448 94.1268C80.7732 93.9979 80.8454 93.8231 80.8454 93.6409C80.8454 93.4587 80.7732 93.2839 80.6448 93.1551C80.5164 93.0262 80.3423 92.9539 80.1607 92.9539H66.2715Z" fill="white"/>
<path d="M174.634 51.5925H198.838C199.106 51.5928 199.362 51.6995 199.551 51.8892C199.74 52.079 199.846 52.3362 199.847 52.6045V77.9001C199.846 78.1684 199.74 78.4257 199.551 78.6154C199.362 78.8051 199.106 78.9118 198.838 78.9121H174.634C174.367 78.9118 174.111 78.8051 173.921 78.6154C173.732 78.4257 173.626 78.1684 173.626 77.9001V52.6045C173.626 52.3362 173.732 52.079 173.921 51.8892C174.111 51.6995 174.367 51.5928 174.634 51.5925ZM198.838 78.5073C198.999 78.5072 199.152 78.4431 199.266 78.3293C199.379 78.2155 199.443 78.0611 199.443 77.9001V52.6045C199.443 52.4435 199.379 52.2892 199.266 52.1753C199.152 52.0615 198.999 51.9975 198.838 51.9973H174.634C174.474 51.9975 174.32 52.0615 174.207 52.1753C174.093 52.2892 174.029 52.4435 174.029 52.6045V77.9001C174.029 78.0611 174.093 78.2155 174.207 78.3293C174.32 78.4431 174.474 78.5072 174.634 78.5073H198.838Z" fill="#3F3D56"/>
<path d="M193.681 73.6957C193.862 73.6957 194.036 73.6234 194.165 73.4945C194.293 73.3657 194.365 73.1909 194.365 73.0087C194.365 72.8264 194.293 72.6517 194.165 72.5228C194.036 72.394 193.862 72.3216 193.681 72.3216H179.791C179.61 72.3216 179.436 72.394 179.307 72.5228C179.179 72.6517 179.107 72.8264 179.107 73.0087C179.107 73.1909 179.179 73.3657 179.307 73.4945C179.436 73.6234 179.61 73.6957 179.791 73.6957H193.681Z" fill="white"/>
<path d="M193.681 69.6476C193.771 69.6478 193.86 69.6302 193.943 69.5957C194.026 69.5612 194.102 69.5107 194.166 69.4469C194.229 69.383 194.28 69.3072 194.314 69.2238C194.349 69.1404 194.367 69.0509 194.367 68.9606C194.367 68.8702 194.349 68.7808 194.314 68.6973C194.28 68.6139 194.229 68.5381 194.166 68.4743C194.102 68.4105 194.026 68.3599 193.943 68.3254C193.86 68.291 193.771 68.2733 193.681 68.2735H179.792C179.702 68.2733 179.612 68.291 179.529 68.3254C179.446 68.3599 179.37 68.4105 179.307 68.4743C179.243 68.5381 179.192 68.6139 179.158 68.6973C179.123 68.7808 179.106 68.8702 179.106 68.9606C179.106 69.0509 179.123 69.1404 179.158 69.2238C179.192 69.3072 179.243 69.383 179.307 69.4469C179.37 69.5107 179.446 69.5612 179.529 69.5957C179.612 69.6302 179.702 69.6478 179.792 69.6476H193.681Z" fill="white"/>
<path d="M186.736 56.8089C187.589 56.8089 188.422 57.0625 189.13 57.5378C189.839 58.013 190.392 58.6884 190.718 59.4787C191.044 60.2689 191.129 61.1385 190.963 61.9774C190.797 62.8164 190.386 63.587 189.784 64.1918C189.181 64.7967 188.413 65.2086 187.577 65.3754C186.741 65.5423 185.874 65.4567 185.087 65.1293C184.299 64.802 183.626 64.2477 183.153 63.5365C182.679 62.8252 182.426 61.9891 182.426 61.1337C182.428 59.9871 182.882 58.8878 183.69 58.077C184.498 57.2663 185.593 56.8102 186.736 56.8089Z" fill="white"/>
</g>
<defs>
<clipPath id="clip0_50_41">
<rect width="224" height="112.273" fill="white" transform="translate(0 0.498688)"/>
</clipPath>
</defs>
</svg>
