<svg width="40" height="36" viewBox="0 0 40 36" fill="none" xmlns="http://www.w3.org/2000/svg">
<path d="M20 34.3154L18.8375 34.9952C18.9559 35.199 19.1256 35.3681 19.3296 35.4856C19.5336 35.6031 19.7647 35.6649 20 35.6649C20.2353 35.6649 20.4664 35.6031 20.6704 35.4856C20.8744 35.3681 21.0441 35.199 21.1625 34.9952L20 34.3154ZM30.7643 1.94399L31.9322 2.613C32.0491 2.4079 32.1101 2.17563 32.1094 1.93943C32.1086 1.70323 32.0459 1.47138 31.9276 1.26708C31.8094 1.06277 31.6397 0.893183 31.4355 0.775269C31.2314 0.657354 30.9999 0.595253 30.7643 0.595177V1.94399ZM20 20.8273L18.8321 21.4963C18.9498 21.7026 19.1198 21.8741 19.3249 21.9933C19.53 22.1126 19.7629 22.1754 20 22.1754C20.2371 22.1754 20.47 22.1126 20.6751 21.9933C20.8802 21.8741 21.0502 21.7026 21.1679 21.4963L20 20.8273ZM9.23574 1.94399V0.595177C9.00011 0.595253 8.76863 0.657354 8.56447 0.775269C8.3603 0.893183 8.1906 1.06277 8.07235 1.26708C7.9541 1.47138 7.89144 1.70323 7.89065 1.93943C7.88985 2.17563 7.95094 2.4079 8.06781 2.613L9.23574 1.94399ZM17.3089 1.94399L18.5118 1.33972L18.1432 0.595177H17.3089V1.94399ZM20 7.33923L18.7971 7.94349C18.909 8.16723 19.0807 8.35537 19.2932 8.48684C19.5056 8.61831 19.7503 8.68795 20 8.68795C20.2497 8.68795 20.4944 8.61831 20.7068 8.48684C20.9193 8.35537 21.091 8.16723 21.2029 7.94349L20 7.33923ZM22.6911 1.94399V0.595177H21.8595L21.4882 1.33972L22.6911 1.94399ZM0 2.62379L18.8375 34.9952L21.1625 33.6356L2.32508 1.26419L0 2.62379ZM21.1625 34.9952L40 2.62379L37.6749 1.26419L18.8375 33.6356L21.1625 34.9952ZM29.5963 1.27498L18.8321 20.1583L21.1679 21.4963L31.9322 2.613L29.5963 1.27498ZM21.1679 20.1583L10.4037 1.27498L8.06781 2.613L18.8321 21.4963L21.1679 20.1583ZM9.23574 3.2928H17.3089V0.595177H9.23574V3.2928ZM16.106 2.54825L18.7971 7.94349L21.2029 6.73496L18.5118 1.33972L16.106 2.54825ZM21.2029 7.94349L23.894 2.54825L21.4882 1.33972L18.7971 6.73496L21.2029 7.94349ZM22.6911 3.2928H30.7643V0.595177H22.6911V3.2928Z" fill="white"/>
</svg>
