<svg width="79" height="83" viewBox="0 0 79 83" fill="none" xmlns="http://www.w3.org/2000/svg">
<path d="M79 15.7996H1.00964V66.1137H79V15.7996Z" fill="#E6E6E6"/>
<path d="M76.7699 22.1101H3.23975V63.137H76.7699V22.1101Z" fill="white"/>
<path d="M78.9667 15.755H0.976318V19.0926H78.9667V15.755Z" fill="#FFD957"/>
<path d="M3.43856 18.08C3.77772 18.08 4.05266 17.803 4.05266 17.4614C4.05266 17.1197 3.77772 16.8428 3.43856 16.8428C3.09941 16.8428 2.82446 17.1197 2.82446 17.4614C2.82446 17.803 3.09941 18.08 3.43856 18.08Z" fill="white"/>
<path d="M5.7695 18.08C6.10865 18.08 6.38359 17.803 6.38359 17.4614C6.38359 17.1197 6.10865 16.8428 5.7695 16.8428C5.43034 16.8428 5.1554 17.1197 5.1554 17.4614C5.1554 17.803 5.43034 18.08 5.7695 18.08Z" fill="white"/>
<path d="M8.10043 18.08C8.43959 18.08 8.71452 17.803 8.71452 17.4614C8.71452 17.1197 8.43959 16.8428 8.10043 16.8428C7.76127 16.8428 7.48633 17.1197 7.48633 17.4614C7.48633 17.803 7.76127 18.08 8.10043 18.08Z" fill="white"/>
<path d="M47.821 26.3671H32.0762V35.3167H47.821V26.3671Z" fill="#FFD957"/>
<path d="M47.821 37.809H32.0762V47.4383H47.821V37.809Z" fill="#E6E6E6"/>
<path d="M70.0886 26.3671H51.1948V40.5361H70.0886V26.3671Z" fill="#E6E6E6"/>
<path d="M70.0886 44.7112H51.1948V58.8802H70.0886V44.7112Z" fill="#FFD957"/>
<path d="M28.9048 26.3671H10.011V40.5361H28.9048V26.3671Z" fill="#E6E6E6"/>
<path d="M45.2464 9.95117L39.8641 30.3466L40.1108 30.4126L45.4425 10.2081L45.2464 9.95117Z" fill="#3F3D56"/>
<path d="M60.7819 51.6744L55.4502 71.879L55.6463 72.136L61.0286 51.7404L60.7819 51.6744Z" fill="#3F3D56"/>
<path d="M28.5324 49.1189H10.363C10.2506 49.1189 10.1428 49.0739 10.0633 48.9938C9.98376 48.9137 9.93909 48.8051 9.93909 48.6918C9.93909 48.5786 9.98376 48.4699 10.0633 48.3899C10.1428 48.3098 10.2506 48.2648 10.363 48.2648H28.5324C28.6448 48.2648 28.7527 48.3098 28.8322 48.3899C28.9117 48.4699 28.9564 48.5786 28.9564 48.6918C28.9564 48.8051 28.9117 48.9137 28.8322 48.9938C28.7527 49.0739 28.6448 49.1189 28.5324 49.1189Z" fill="#E6E6E6"/>
<path d="M28.5324 46.6786H10.363C10.2506 46.6786 10.1428 46.6336 10.0633 46.5535C9.98376 46.4734 9.93909 46.3648 9.93909 46.2515C9.93909 46.1383 9.98376 46.0296 10.0633 45.9495C10.1428 45.8695 10.2506 45.8245 10.363 45.8245H28.5324C28.6448 45.8245 28.7527 45.8695 28.8322 45.9495C28.9117 46.0296 28.9564 46.1383 28.9564 46.2515C28.9564 46.3648 28.9117 46.4734 28.8322 46.5535C28.7527 46.6336 28.6448 46.6786 28.5324 46.6786Z" fill="#E6E6E6"/>
<path d="M28.5324 51.5592H10.363C10.2506 51.5592 10.1428 51.5142 10.0633 51.4341C9.98376 51.354 9.93909 51.2454 9.93909 51.1321C9.93909 51.0189 9.98376 50.9102 10.0633 50.8302C10.1428 50.7501 10.2506 50.7051 10.363 50.7051H28.5324C28.6448 50.7051 28.7527 50.7501 28.8322 50.8302C28.9117 50.9102 28.9564 51.0189 28.9564 51.1321C28.9564 51.2454 28.9117 51.354 28.8322 51.4341C28.7527 51.5142 28.6448 51.5592 28.5324 51.5592Z" fill="#E6E6E6"/>
<path d="M28.5324 53.9995H10.363C10.2506 53.9995 10.1428 53.9545 10.0633 53.8744C9.98376 53.7943 9.93909 53.6857 9.93909 53.5724C9.93909 53.4592 9.98376 53.3506 10.0633 53.2705C10.1428 53.1904 10.2506 53.1454 10.363 53.1454H28.5324C28.6448 53.1454 28.7527 53.1904 28.8322 53.2705C28.9117 53.3506 28.9564 53.4592 28.9564 53.5724C28.9564 53.6857 28.9117 53.7943 28.8322 53.8744C28.7527 53.9545 28.6448 53.9995 28.5324 53.9995Z" fill="#E6E6E6"/>
<path d="M28.5324 56.4398H10.363C10.2506 56.4398 10.1428 56.3948 10.0633 56.3147C9.98376 56.2346 9.93909 56.126 9.93909 56.0127C9.93909 55.8995 9.98376 55.7909 10.0633 55.7108C10.1428 55.6307 10.2506 55.5857 10.363 55.5857H28.5324C28.6448 55.5857 28.7527 55.6307 28.8322 55.7108C28.9117 55.7909 28.9564 55.8995 28.9564 56.0127C28.9564 56.126 28.9117 56.2346 28.8322 56.3147C28.7527 56.3948 28.6448 56.4398 28.5324 56.4398Z" fill="#E6E6E6"/>
<path d="M28.5324 58.8801H10.363C10.2506 58.8801 10.1428 58.8351 10.0633 58.755C9.98376 58.6749 9.93909 58.5663 9.93909 58.4531C9.93909 58.3398 9.98376 58.2312 10.0633 58.1511C10.1428 58.071 10.2506 58.026 10.363 58.026H28.5324C28.6448 58.026 28.7527 58.071 28.8322 58.1511C28.9117 58.2312 28.9564 58.3398 28.9564 58.4531C28.9564 58.5663 28.9117 58.6749 28.8322 58.755C28.7527 58.8351 28.6448 58.8801 28.5324 58.8801Z" fill="#E6E6E6"/>
<path d="M47.4586 51.5592H32.4386C32.3262 51.5592 32.2183 51.5142 32.1388 51.4341C32.0593 51.354 32.0146 51.2454 32.0146 51.1321C32.0146 51.0189 32.0593 50.9102 32.1388 50.8302C32.2183 50.7501 32.3262 50.7051 32.4386 50.7051H47.4586C47.5711 50.7051 47.6789 50.7501 47.7584 50.8302C47.8379 50.9102 47.8826 51.0189 47.8826 51.1321C47.8826 51.2454 47.8379 51.354 47.7584 51.4341C47.6789 51.5142 47.5711 51.5592 47.4586 51.5592Z" fill="#E6E6E6"/>
<path d="M47.4586 53.9995H32.4386C32.3262 53.9995 32.2183 53.9545 32.1388 53.8744C32.0593 53.7943 32.0146 53.6857 32.0146 53.5724C32.0146 53.4592 32.0593 53.3506 32.1388 53.2705C32.2183 53.1904 32.3262 53.1454 32.4386 53.1454H47.4586C47.5711 53.1454 47.6789 53.1904 47.7584 53.2705C47.8379 53.3506 47.8826 53.4592 47.8826 53.5724C47.8826 53.6857 47.8379 53.7943 47.7584 53.8744C47.6789 53.9545 47.5711 53.9995 47.4586 53.9995Z" fill="#E6E6E6"/>
<path d="M47.4586 56.4398H32.4386C32.3262 56.4398 32.2183 56.3948 32.1388 56.3147C32.0593 56.2346 32.0146 56.126 32.0146 56.0127C32.0146 55.8995 32.0593 55.7909 32.1388 55.7108C32.2183 55.6307 32.3262 55.5857 32.4386 55.5857H47.4586C47.5711 55.5857 47.6789 55.6307 47.7584 55.7108C47.8379 55.7909 47.8826 55.8995 47.8826 56.0127C47.8826 56.126 47.8379 56.2346 47.7584 56.3147C47.6789 56.3948 47.5711 56.4398 47.4586 56.4398Z" fill="#E6E6E6"/>
<path d="M47.4586 58.8801H32.4386C32.3262 58.8801 32.2183 58.8351 32.1388 58.755C32.0593 58.6749 32.0146 58.5663 32.0146 58.4531C32.0146 58.3398 32.0593 58.2312 32.1388 58.1511C32.2183 58.071 32.3262 58.026 32.4386 58.026H47.4586C47.5711 58.026 47.6789 58.071 47.7584 58.1511C47.8379 58.2312 47.8826 58.3398 47.8826 58.4531C47.8826 58.5663 47.8379 58.6749 47.7584 58.755C47.6789 58.8351 47.5711 58.8801 47.4586 58.8801Z" fill="#E6E6E6"/>
<path d="M45.6117 11.3371C48.6221 11.3371 51.0625 8.87885 51.0625 5.84642C51.0625 2.81399 48.6221 0.355713 45.6117 0.355713C42.6013 0.355713 40.1609 2.81399 40.1609 5.84642C40.1609 8.87885 42.6013 11.3371 45.6117 11.3371Z" fill="#F0F0F0"/>
<path d="M45.6116 0.233643C45.3314 0.233676 45.0516 0.254885 44.7746 0.29709C44.6329 0.317833 44.4948 0.344671 44.3579 0.377621C43.3523 0.611109 42.4309 1.12145 41.6965 1.85169C40.9621 2.58194 40.4435 3.50337 40.1987 4.51319C39.9539 5.52301 39.9924 6.5815 40.3099 7.57056C40.6275 8.55962 41.2116 9.44034 41.9971 10.1145C42.0904 10.1938 42.1849 10.2707 42.283 10.3439C42.9902 10.875 43.8124 11.2293 44.6821 11.3778C45.5518 11.5262 46.444 11.4645 47.2854 11.1978C48.1268 10.931 48.8932 10.4668 49.5217 9.84329C50.1502 9.21982 50.6227 8.45493 50.9004 7.61157C51.178 6.7682 51.2529 5.87047 51.1188 4.99226C50.9848 4.11405 50.6456 3.28046 50.1292 2.56009C49.6128 1.83973 48.934 1.25318 48.1486 0.848719C47.3632 0.44426 46.4937 0.233451 45.6116 0.233643ZM45.6116 11.2151C44.4784 11.2163 43.3746 10.8515 42.4623 10.1743C42.363 10.1011 42.2673 10.0254 42.174 9.94487C41.4087 9.29456 40.8408 8.44013 40.5356 7.47958C40.2303 6.51903 40.2 5.49125 40.4481 4.51414C40.6962 3.53702 41.2126 2.65013 41.9383 1.95518C42.6639 1.26023 43.5693 0.785362 44.5506 0.585048C44.6862 0.556984 44.8219 0.535021 44.96 0.517939C45.1761 0.49097 45.3938 0.477523 45.6116 0.477674C47.0251 0.477674 48.3808 1.0433 49.3803 2.05013C50.3798 3.05695 50.9413 4.4225 50.9413 5.84637C50.9413 7.27023 50.3798 8.63578 49.3803 9.6426C48.3808 10.6494 47.0251 11.2151 45.6116 11.2151Z" fill="#3F3D56"/>
<path d="M42.9468 4.74817L48.2765 4.74817C48.4772 4.74817 48.6399 4.58428 48.6399 4.38212C48.6399 4.17996 48.4772 4.01607 48.2765 4.01607L42.9468 4.01607C42.7461 4.01607 42.5834 4.17996 42.5834 4.38212C42.5834 4.58428 42.7461 4.74817 42.9468 4.74817Z" fill="#FFD957"/>
<path d="M42.9468 6.2124L48.2765 6.2124C48.4772 6.2124 48.6399 6.04852 48.6399 5.84636C48.6399 5.64419 48.4772 5.48031 48.2765 5.48031L42.9468 5.48031C42.7461 5.48031 42.5834 5.64419 42.5834 5.84636C42.5834 6.04852 42.7461 6.2124 42.9468 6.2124Z" fill="#FFD957"/>
<path d="M42.9468 7.67664L48.2765 7.67664C48.4772 7.67664 48.6399 7.51275 48.6399 7.31059C48.6399 7.10843 48.4772 6.94454 48.2765 6.94454L42.9468 6.94454C42.7461 6.94454 42.5834 7.10843 42.5834 7.31059C42.5834 7.51275 42.7461 7.67664 42.9468 7.67664Z" fill="#FFD957"/>
<path d="M54.8175 82.3502C57.8279 82.3502 60.2683 79.8919 60.2683 76.8595C60.2683 73.827 57.8279 71.3688 54.8175 71.3688C51.8071 71.3688 49.3667 73.827 49.3667 76.8595C49.3667 79.8919 51.8071 82.3502 54.8175 82.3502Z" fill="#F0F0F0"/>
<path d="M54.8174 71.2468C54.5372 71.2469 54.2574 71.2681 53.9804 71.3103C53.8387 71.331 53.7007 71.3579 53.5637 71.3908C52.5582 71.6243 51.6368 72.1346 50.9023 72.8649C50.1679 73.5951 49.6493 74.5166 49.4045 75.5264C49.1597 76.5362 49.1982 77.5947 49.5157 78.5837C49.8333 79.5728 50.4174 80.4535 51.203 81.1277C51.2962 81.207 51.3907 81.2838 51.4888 81.357C52.196 81.8882 53.0182 82.2425 53.8879 82.391C54.7576 82.5394 55.6498 82.4777 56.4912 82.2109C57.3326 81.9442 58.099 81.4799 58.7275 80.8565C59.356 80.233 59.8285 79.4681 60.1062 78.6247C60.3838 77.7814 60.4587 76.8837 60.3246 76.0054C60.1906 75.1272 59.8514 74.2936 59.335 73.5733C58.8186 72.8529 58.1398 72.2664 57.3544 71.8619C56.569 71.4574 55.6995 71.2466 54.8174 71.2468ZM54.8174 82.2282C53.6842 82.2295 52.5804 81.8647 51.6681 81.1874C51.5688 81.1142 51.4731 81.0386 51.3798 80.9581C50.6145 80.3077 50.0466 79.4533 49.7414 78.4928C49.4361 77.5322 49.4058 76.5044 49.6539 75.5273C49.902 74.5502 50.4184 73.6633 51.1441 72.9684C51.8697 72.2734 52.7751 71.7985 53.7564 71.5982C53.892 71.5702 54.0277 71.5482 54.1658 71.5311C54.382 71.5042 54.5996 71.4907 54.8174 71.4909C56.231 71.4909 57.5866 72.0565 58.5861 73.0633C59.5856 74.0701 60.1471 75.4357 60.1471 76.8595C60.1471 78.2834 59.5856 79.649 58.5861 80.6558C57.5866 81.6626 56.231 82.2282 54.8174 82.2282Z" fill="#3F3D56"/>
<path d="M52.1526 75.7614H57.4823C57.683 75.7614 57.8457 75.5975 57.8457 75.3953C57.8457 75.1931 57.683 75.0293 57.4823 75.0293H52.1526C51.9519 75.0293 51.7892 75.1931 51.7892 75.3953C51.7892 75.5975 51.9519 75.7614 52.1526 75.7614Z" fill="#FFD957"/>
<path d="M52.1526 77.2256H57.4823C57.683 77.2256 57.8457 77.0617 57.8457 76.8595C57.8457 76.6574 57.683 76.4935 57.4823 76.4935H52.1526C51.9519 76.4935 51.7892 76.6574 51.7892 76.8595C51.7892 77.0617 51.9519 77.2256 52.1526 77.2256Z" fill="#FFD957"/>
<path d="M52.1526 78.6897H57.4823C57.683 78.6897 57.8457 78.5258 57.8457 78.3237C57.8457 78.1215 57.683 77.9576 57.4823 77.9576H52.1526C51.9519 77.9576 51.7892 78.1215 51.7892 78.3237C51.7892 78.5258 51.9519 78.6897 52.1526 78.6897Z" fill="#FFD957"/>
</svg>
