<svg width="88" height="58" viewBox="0 0 88 58" fill="none" xmlns="http://www.w3.org/2000/svg">
<path d="M15.0072 51.4791C14.884 51.4847 14.762 51.4523 14.6577 51.3862C14.5535 51.3201 14.472 51.2235 14.4244 51.1095C14.3768 50.9955 14.3654 50.8696 14.3916 50.7488C14.4179 50.6281 14.4805 50.5183 14.5711 50.4344C14.5863 50.374 14.5972 50.3306 14.6123 50.2702C14.6069 50.2571 14.6015 50.2439 14.596 50.2308C14.4718 49.937 14.2637 49.6866 13.9979 49.5109C13.7321 49.3352 13.4204 49.2421 13.1019 49.2433C12.7834 49.2445 12.4724 49.3399 12.2079 49.5176C11.9434 49.6952 11.7372 49.9472 11.6152 50.2419C11.1277 51.418 10.507 52.5961 10.3541 53.8396C10.2868 54.3893 10.3152 54.9465 10.4381 55.4864C9.29302 52.9846 8.69842 50.2653 8.6946 47.5131C8.69436 46.8225 8.73267 46.1324 8.80935 45.446C8.87272 44.8833 8.96064 44.3247 9.0731 43.77C9.68682 40.7605 11.0045 37.9397 12.918 35.5394C13.8441 35.0332 14.593 34.2549 15.0639 33.3093C15.2345 32.9694 15.355 32.6065 15.4218 32.232C15.3174 32.2457 15.2112 32.2543 15.1067 32.2612C15.0742 32.2629 15.0399 32.2646 15.0074 32.2663L14.9951 32.2669C14.8803 32.272 14.7664 32.2438 14.6672 32.1857C14.568 32.1275 14.4877 32.0419 14.436 31.9391C14.3843 31.8363 14.3633 31.7207 14.3756 31.6063C14.3879 31.4918 14.433 31.3834 14.5055 31.294C14.5506 31.2384 14.5957 31.1828 14.6409 31.1273C14.7094 31.0415 14.7796 30.9574 14.8481 30.8717C14.856 30.8635 14.8634 30.8549 14.8703 30.8459C14.9491 30.7481 15.0279 30.6521 15.1067 30.5543C14.9629 30.3307 14.7695 30.1435 14.5415 30.0071C13.752 29.5439 12.6628 29.8647 12.0924 30.5801C11.5204 31.2954 11.4125 32.2989 11.6112 33.1927C11.8066 33.9531 12.1297 34.6748 12.5669 35.3267C12.524 35.3816 12.4795 35.4347 12.4367 35.4896C11.654 36.4977 10.9718 37.5802 10.4 38.7215C10.5391 37.4429 10.3731 36.1494 9.91569 34.9475C9.45214 33.8275 8.58328 32.8841 7.81815 31.9158C6.8991 30.7527 5.01451 31.2603 4.8526 32.7347C4.85103 32.749 4.8495 32.7633 4.84801 32.7775C4.96166 32.8417 5.0729 32.9099 5.18175 32.982C5.31849 33.0735 5.42444 33.2043 5.48573 33.3571C5.54701 33.51 5.56077 33.6778 5.5252 33.8386C5.48963 33.9994 5.40639 34.1458 5.28638 34.2584C5.16637 34.371 5.0152 34.4447 4.85267 34.4698L4.83602 34.4724C4.87651 34.8826 4.94808 35.2892 5.0501 35.6886C5.34573 36.8036 5.86814 37.8454 6.58458 38.7487C7.30101 39.652 8.19603 40.3973 9.21351 40.9378C9.2803 40.9721 9.34539 41.0064 9.41219 41.039C8.83764 42.6699 8.47724 44.3687 8.34007 46.0927C8.26242 47.1098 8.267 48.1315 8.35378 49.1479L8.34864 49.1119C8.1294 47.9817 7.52749 46.9619 6.64456 46.2248C5.33318 45.1458 3.48044 44.7484 2.0657 43.8811C1.91534 43.7844 1.74052 43.7328 1.56185 43.7324C1.38317 43.732 1.2081 43.7827 1.05728 43.8787C0.906453 43.9746 0.786171 44.1118 0.710618 44.274C0.635065 44.4361 0.60739 44.6166 0.630859 44.794C0.632756 44.8066 0.634685 44.8192 0.636645 44.8319C0.847541 44.9179 1.05288 45.017 1.25147 45.1286C1.36512 45.1929 1.47637 45.261 1.58522 45.3331C1.72196 45.4246 1.82791 45.5554 1.8892 45.7082C1.95048 45.8611 1.96424 46.0289 1.92867 46.1897C1.8931 46.3506 1.80986 46.4969 1.68985 46.6095C1.56984 46.7221 1.41867 46.7958 1.25614 46.8209L1.23948 46.8235C1.22749 46.8252 1.21722 46.8269 1.20525 46.8286C1.56559 47.6904 2.07135 48.4837 2.70037 49.1736C3.47742 50.0088 4.41658 50.6762 5.46028 51.1349C6.50398 51.5935 7.63022 51.8339 8.76995 51.8411H8.77167C9.08105 53.1877 9.52932 54.4985 10.1092 55.7523H14.8875C14.9046 55.6991 14.92 55.6442 14.9354 55.591C14.4932 55.6189 14.0491 55.5924 13.6133 55.5121C13.9678 55.0764 14.3223 54.6373 14.6768 54.2015C14.6847 54.1934 14.6922 54.1848 14.6991 54.1758C14.8789 53.9528 15.0605 53.7315 15.2403 53.5085L15.2404 53.5082C15.25 52.8247 15.1716 52.1427 15.0074 51.4792L15.0072 51.4791Z" fill="#F2F2F2"/>
<path d="M87.7057 6.01763H12.0489C11.9702 6.01595 11.8953 5.98346 11.8402 5.92713C11.7852 5.8708 11.7543 5.79511 11.7543 5.71627C11.7543 5.63744 11.7852 5.56175 11.8402 5.50542C11.8953 5.44908 11.9702 5.4166 12.0489 5.41492H87.7057C87.7844 5.4166 87.8593 5.44908 87.9143 5.50542C87.9694 5.56175 88.0002 5.63744 88.0002 5.71627C88.0002 5.79511 87.9694 5.8708 87.9143 5.92713C87.8593 5.98346 87.7844 6.01595 87.7057 6.01763Z" fill="#CACACA"/>
<path d="M17.1989 3.87617C18.1727 3.87617 18.9621 3.06784 18.9621 2.07071C18.9621 1.07359 18.1727 0.265259 17.1989 0.265259C16.2251 0.265259 15.4357 1.07359 15.4357 2.07071C15.4357 3.06784 16.2251 3.87617 17.1989 3.87617Z" fill="#3F3D56"/>
<path d="M23.29 3.87617C24.2638 3.87617 25.0532 3.06784 25.0532 2.07071C25.0532 1.07359 24.2638 0.265259 23.29 0.265259C22.3162 0.265259 21.5268 1.07359 21.5268 2.07071C21.5268 3.06784 22.3162 3.87617 23.29 3.87617Z" fill="#3F3D56"/>
<path d="M29.3811 3.87617C30.3549 3.87617 31.1444 3.06784 31.1444 2.07071C31.1444 1.07359 30.3549 0.265259 29.3811 0.265259C28.4073 0.265259 27.6179 1.07359 27.6179 2.07071C27.6179 3.06784 28.4073 3.87617 29.3811 3.87617Z" fill="#3F3D56"/>
<path d="M84.0384 0.712769H79.7115C79.6258 0.714479 79.5441 0.749805 79.4841 0.811159C79.424 0.872513 79.3904 0.955005 79.3904 1.04092C79.3904 1.12684 79.424 1.20933 79.4841 1.27068C79.5441 1.33204 79.6258 1.36736 79.7115 1.36907H84.0384C84.1241 1.36736 84.2058 1.33204 84.2658 1.27068C84.3259 1.20933 84.3595 1.12684 84.3595 1.04092C84.3595 0.955005 84.3259 0.872513 84.2658 0.811159C84.2058 0.749805 84.1241 0.714479 84.0384 0.712769Z" fill="#3F3D56"/>
<path d="M84.0384 1.94458H79.7115C79.6258 1.94629 79.5441 1.98162 79.4841 2.04297C79.424 2.10432 79.3904 2.18682 79.3904 2.27273C79.3904 2.35865 79.424 2.44114 79.4841 2.5025C79.5441 2.56385 79.6258 2.59918 79.7115 2.60089H84.0384C84.1241 2.59918 84.2058 2.56385 84.2658 2.5025C84.3259 2.44114 84.3595 2.35865 84.3595 2.27273C84.3595 2.18682 84.3259 2.10432 84.2658 2.04297C84.2058 1.98162 84.1241 1.94629 84.0384 1.94458Z" fill="#3F3D56"/>
<path d="M84.0383 3.1748H79.7115C79.6258 3.1765 79.5441 3.21182 79.484 3.27318C79.424 3.33454 79.3903 3.41703 79.3903 3.50296C79.3903 3.58888 79.424 3.67138 79.484 3.73273C79.5441 3.79409 79.6258 3.82941 79.7115 3.83111H84.0383C84.1241 3.82941 84.2058 3.79409 84.2658 3.73273C84.3259 3.67138 84.3595 3.58888 84.3595 3.50296C84.3595 3.41703 84.3259 3.33454 84.2658 3.27318C84.2058 3.21182 84.1241 3.1765 84.0383 3.1748Z" fill="#3F3D56"/>
<path d="M58.998 17.761C60.2019 17.761 61.1779 16.7835 61.1779 15.5776C61.1779 14.3717 60.2019 13.3942 58.998 13.3942C57.7941 13.3942 56.8181 14.3717 56.8181 15.5776C56.8181 16.7835 57.7941 17.761 58.998 17.761Z" fill="#E6E7E8"/>
<path d="M77.3708 20.4125H57.4672C57.3819 20.4127 57.2974 20.396 57.2185 20.3634C57.1396 20.3307 57.068 20.2829 57.0076 20.2225C56.9472 20.1621 56.8993 20.0904 56.8666 20.0114C56.8339 19.9325 56.8171 19.8478 56.8171 19.7624C56.8171 19.6769 56.8339 19.5923 56.8666 19.5133C56.8993 19.4344 56.9472 19.3626 57.0076 19.3022C57.068 19.2419 57.1396 19.194 57.2185 19.1614C57.2974 19.1288 57.3819 19.112 57.4672 19.1122H77.3708C77.4562 19.112 77.5407 19.1288 77.6195 19.1614C77.6984 19.194 77.7701 19.2419 77.8305 19.3022C77.8909 19.3626 77.9388 19.4344 77.9715 19.5133C78.0042 19.5923 78.021 19.6769 78.021 19.7624C78.021 19.8478 78.0042 19.9325 77.9715 20.0114C77.9388 20.0904 77.8909 20.1621 77.8305 20.2225C77.7701 20.2829 77.6984 20.3307 77.6195 20.3634C77.5407 20.396 77.4562 20.4127 77.3708 20.4125Z" fill="#E6E7E8"/>
<path d="M62.4107 22.9817H57.4673C57.2951 22.9817 57.13 22.9132 57.0082 22.7913C56.8865 22.6693 56.8181 22.5039 56.8181 22.3315C56.8181 22.159 56.8865 21.9937 57.0082 21.8717C57.13 21.7498 57.2951 21.6813 57.4673 21.6813H62.4107C62.5829 21.6813 62.748 21.7498 62.8697 21.8717C62.9915 21.9937 63.0599 22.159 63.0599 22.3315C63.0599 22.5039 62.9915 22.6693 62.8697 22.7913C62.748 22.9132 62.5829 22.9817 62.4107 22.9817Z" fill="#E6E7E8"/>
<path d="M58.998 51.841C60.2019 51.841 61.1779 50.8634 61.1779 49.6576C61.1779 48.4517 60.2019 47.4741 58.998 47.4741C57.7941 47.4741 56.8181 48.4517 56.8181 49.6576C56.8181 50.8634 57.7941 51.841 58.998 51.841Z" fill="#E6E7E8"/>
<path d="M77.3708 54.4925H57.4672C57.2951 54.4925 57.13 54.424 57.0082 54.3021C56.8865 54.1801 56.8181 54.0148 56.8181 53.8423C56.8181 53.6699 56.8865 53.5045 57.0082 53.3826C57.13 53.2606 57.2951 53.1921 57.4672 53.1921H77.3708C77.543 53.1921 77.7081 53.2606 77.8298 53.3826C77.9515 53.5045 78.0199 53.6699 78.0199 53.8423C78.0199 54.0148 77.9515 54.1801 77.8298 54.3021C77.7081 54.424 77.543 54.4925 77.3708 54.4925Z" fill="#E6E7E8"/>
<path d="M62.4107 57.0617H57.4673C57.2951 57.0617 57.13 56.9932 57.0082 56.8712C56.8865 56.7493 56.8181 56.5839 56.8181 56.4114C56.8181 56.239 56.8865 56.0736 57.0082 55.9517C57.13 55.8297 57.2951 55.7612 57.4673 55.7612H62.4107C62.5829 55.7612 62.748 55.8297 62.8697 55.9517C62.9915 56.0736 63.0599 56.239 63.0599 56.4114C63.0599 56.5839 62.9915 56.7493 62.8697 56.8712C62.748 56.9932 62.5829 57.0617 62.4107 57.0617Z" fill="#E6E7E8"/>
<path d="M23.9144 46.6694C25.1183 46.6694 26.0943 45.6918 26.0943 44.4859C26.0943 43.28 25.1183 42.3025 23.9144 42.3025C22.7105 42.3025 21.7346 43.28 21.7346 44.4859C21.7346 45.6918 22.7105 46.6694 23.9144 46.6694Z" fill="#E6E7E8"/>
<path d="M42.2873 49.3207H22.3837C22.2116 49.3207 22.0465 49.2522 21.9247 49.1303C21.803 49.0084 21.7346 48.843 21.7346 48.6706C21.7346 48.4981 21.803 48.3328 21.9247 48.2108C22.0465 48.0889 22.2116 48.0204 22.3837 48.0204H42.2873C42.4595 48.0204 42.6246 48.0889 42.7463 48.2108C42.8681 48.3328 42.9364 48.4981 42.9364 48.6706C42.9364 48.843 42.8681 49.0084 42.7463 49.1303C42.6246 49.2522 42.4595 49.3207 42.2873 49.3207Z" fill="#E6E7E8"/>
<path d="M27.3272 51.89H22.3837C22.2115 51.89 22.0464 51.8215 21.9247 51.6996C21.803 51.5776 21.7346 51.4123 21.7346 51.2398C21.7346 51.0674 21.803 50.902 21.9247 50.78C22.0464 50.6581 22.2115 50.5896 22.3837 50.5896H27.3272C27.4993 50.5896 27.6644 50.6581 27.7862 50.78C27.9079 50.902 27.9763 51.0674 27.9763 51.2398C27.9763 51.4123 27.9079 51.5776 27.7862 51.6996C27.6644 51.8215 27.4993 51.89 27.3272 51.89Z" fill="#E6E7E8"/>
<path d="M58.998 33.5164C60.2019 33.5164 61.1779 32.5388 61.1779 31.333C61.1779 30.1271 60.2019 29.1495 58.998 29.1495C57.7941 29.1495 56.8181 30.1271 56.8181 31.333C56.8181 32.5388 57.7941 33.5164 58.998 33.5164Z" fill="#E6E7E8"/>
<path d="M77.3708 36.1679H57.4672C57.2951 36.1679 57.13 36.0994 57.0082 35.9775C56.8865 35.8556 56.8181 35.6902 56.8181 35.5177C56.8181 35.3453 56.8865 35.1799 57.0082 35.058C57.13 34.9361 57.2951 34.8676 57.4672 34.8676H77.3708C77.543 34.8676 77.7081 34.9361 77.8298 35.058C77.9515 35.1799 78.0199 35.3453 78.0199 35.5177C78.0199 35.6902 77.9515 35.8556 77.8298 35.9775C77.7081 36.0994 77.543 36.1679 77.3708 36.1679Z" fill="#E6E7E8"/>
<path d="M69.4274 38.7371H57.4673C57.2951 38.7371 57.13 38.6686 57.0082 38.5466C56.8865 38.4247 56.8181 38.2593 56.8181 38.0869C56.8181 37.9144 56.8865 37.749 57.0082 37.6271C57.13 37.5051 57.2951 37.4366 57.4673 37.4366H69.4274C69.5996 37.4366 69.7647 37.5051 69.8864 37.6271C70.0082 37.749 70.0766 37.9144 70.0766 38.0869C70.0766 38.2593 70.0082 38.4247 69.8864 38.5466C69.7647 38.6686 69.5996 38.7371 69.4274 38.7371Z" fill="#E6E7E8"/>
<path d="M66.095 41.3063H57.4673C57.2951 41.3063 57.13 41.2378 57.0082 41.1158C56.8865 40.9939 56.8181 40.8285 56.8181 40.6561C56.8181 40.4836 56.8865 40.3182 57.0082 40.1963C57.13 40.0744 57.2951 40.0059 57.4673 40.0059H66.095C66.2672 40.0059 66.4323 40.0744 66.554 40.1963C66.6758 40.3182 66.7441 40.4836 66.7441 40.6561C66.7441 40.8285 66.6758 40.9939 66.554 41.1158C66.4323 41.2378 66.2672 41.3063 66.095 41.3063Z" fill="#E6E7E8"/>
<path d="M39.1232 17.1445V40.0687C39.1231 40.2287 39.0596 40.382 38.9467 40.4952C38.8339 40.6084 38.6808 40.6722 38.5211 40.6726H26.462C25.1278 39.4334 24.0333 37.9583 23.2333 36.3214C23.1807 36.216 23.1305 36.1097 23.0828 36.0018C22.3538 34.4176 21.9126 32.7159 21.7798 30.9766C21.7708 30.8695 21.7634 30.7632 21.7584 30.6553C21.742 30.3793 21.7346 30.0991 21.7346 29.8182C21.7321 27.948 22.0847 26.0945 22.7735 24.3563C22.8146 24.2484 22.8582 24.1413 22.9035 24.035C23.8104 21.8992 25.2047 20.0062 26.9744 18.5081C27.0797 18.4182 27.1861 18.3309 27.2936 18.246L27.3183 18.2262C28.7032 17.128 30.4192 16.5331 32.1855 16.5389H38.5211C38.6811 16.5394 38.8343 16.6034 38.9472 16.7169C39.0601 16.8305 39.1234 16.9842 39.1232 17.1445Z" fill="#FFD957"/>
<path opacity="0.2" d="M39.1553 24.3563V24.0349H33.7773V16.5388H33.4573V24.0349H27.2936V18.246C27.1859 18.3309 27.0795 18.4182 26.9745 18.508V24.0349H22.9035C22.8582 24.1412 22.8146 24.2483 22.7735 24.3563H26.9745V30.6552H21.7584C21.7634 30.7632 21.7708 30.8695 21.7798 30.9766H26.9745V36.0017H23.0828C23.1305 36.1097 23.1807 36.2159 23.2333 36.3214H26.9745V40.5457H27.2936V36.3214H33.4573V40.5457H33.7773V36.3214H39.1553V36.0017H33.7773C33.7771 35.3418 33.9068 34.6883 34.1589 34.0785C34.411 33.4688 34.7805 32.9148 35.2464 32.4481C35.7123 31.9815 36.2654 31.6113 36.8741 31.3588C37.4829 31.1063 38.1353 30.9764 38.7942 30.9766H39.1553V30.6552H33.7773V24.3563H39.1553ZM33.4573 36.0017H27.2936V30.9766H33.4573V36.0017ZM33.4573 30.6552H27.2936V30.5292C27.2937 29.7185 27.4531 28.9157 27.7629 28.1668C28.0727 27.4178 28.5267 26.7373 29.0991 26.1641C29.6714 25.5909 30.3509 25.1362 31.0987 24.826C31.8464 24.5158 32.6479 24.3562 33.4573 24.3563V30.6552Z" fill="black"/>
<path d="M38.5487 36.0827C38.4198 36.0886 38.2922 36.0547 38.1831 35.9856C38.0741 35.9164 37.9889 35.8153 37.9391 35.6961C37.8893 35.5768 37.8773 35.4451 37.9048 35.3188C37.9322 35.1924 37.9978 35.0776 38.0925 34.9899C38.1084 34.9267 38.1198 34.8813 38.1357 34.8181C38.13 34.8043 38.1243 34.7906 38.1185 34.7769C37.539 33.3927 33.841 37.2512 33.6811 38.5521C33.6107 39.1271 33.6404 39.71 33.7689 40.2748C32.5711 37.6576 31.9491 34.813 31.9451 31.9339C31.9448 31.2114 31.9849 30.4894 32.0651 29.7714C32.1314 29.1828 32.2234 28.5984 32.341 28.0182C32.9831 24.8699 34.3615 21.9191 36.3632 19.4081C37.5079 19.4721 38.5112 19.2974 38.608 17.0752C38.6253 16.6799 38.918 16.3376 38.9825 15.9482C38.8732 15.9626 38.7621 15.9715 38.6528 15.9787C38.6188 15.9805 38.583 15.9823 38.5489 15.9841L38.5361 15.9847C38.416 15.9901 38.2969 15.9606 38.1931 15.8998C38.0893 15.8389 38.0053 15.7494 37.9512 15.6418C37.8971 15.5343 37.8751 15.4134 37.888 15.2936C37.9009 15.1739 37.9481 15.0605 38.0239 14.967C38.071 14.9088 38.1183 14.8507 38.1655 14.7925C38.2372 14.7028 38.3106 14.6149 38.3823 14.5252C38.3906 14.5166 38.3983 14.5076 38.4056 14.4982C38.488 14.3959 38.5704 14.2955 38.6528 14.1932C38.5024 13.9593 38.3001 13.7634 38.0616 13.6207C37.2357 13.1362 36.0962 13.4718 35.4996 14.2201C34.9012 14.9684 34.7884 16.0182 34.9962 16.9531C35.2005 17.7487 35.5386 18.5036 35.9959 19.1855C35.9511 19.243 35.9045 19.2986 35.8597 19.356C35.041 20.4106 34.3273 21.543 33.7291 22.7369C33.8984 21.4127 31.8287 16.6304 31.0282 15.6174C30.0668 14.4007 28.0953 14.9317 27.926 16.4741C27.9243 16.489 27.9227 16.5039 27.9212 16.5189C28.04 16.5861 28.1564 16.6574 28.2703 16.7328C28.4133 16.8285 28.5242 16.9653 28.5883 17.1252C28.6524 17.2851 28.6668 17.4607 28.6296 17.6289C28.5924 17.7971 28.5053 17.9502 28.3797 18.068C28.2542 18.1858 28.0961 18.2629 27.926 18.2892L27.9086 18.2919C26.3172 20.5678 31.4188 26.4913 32.6958 25.1613C32.0947 26.8674 31.7177 28.6445 31.5742 30.448C31.493 31.512 31.4978 32.5808 31.5886 33.644L31.5832 33.6063C31.2995 31.2906 26.432 27.8476 25.0106 28.1344C24.1917 28.2996 23.3852 28.2621 23.5096 29.0894C23.5116 29.1026 23.5136 29.1158 23.5156 29.129C23.7362 29.219 23.951 29.3227 24.1588 29.4394C24.2777 29.5066 24.3941 29.5779 24.5079 29.6534C24.651 29.7491 24.7618 29.8859 24.8259 30.0458C24.89 30.2057 24.9044 30.3812 24.8672 30.5495C24.83 30.7177 24.7429 30.8708 24.6174 30.9886C24.4918 31.1064 24.3337 31.1835 24.1637 31.2098L24.1462 31.2124C24.1337 31.2142 24.1229 31.216 24.1104 31.2178C23.386 33.7144 28.758 37.7434 32.0239 36.4614H32.0257C32.3494 37.8701 32.8183 39.2413 33.4249 40.5529H38.4235C38.4414 40.4973 38.4575 40.4399 38.4737 40.3842C38.011 40.4134 37.5465 40.3857 37.0905 40.3017C37.4614 39.8459 37.8323 39.3865 38.2031 38.9307C38.2114 38.9222 38.2192 38.9132 38.2264 38.9038C38.4145 38.6705 38.6044 38.439 38.7926 38.2057L38.7927 38.2054C38.8027 37.4903 38.7208 36.7769 38.5489 36.0828L38.5487 36.0827ZM32.8248 24.8042L32.8274 24.8006L32.8248 24.8078V24.8042ZM31.7176 34.8015L31.6746 34.7046C31.6764 34.6346 31.6764 34.5646 31.6746 34.4928C31.6746 34.4731 31.671 34.4534 31.671 34.4336C31.6871 34.5574 31.7014 34.6813 31.7193 34.8051L31.7176 34.8015Z" fill="#2F2E41"/>
</svg>
