<svg width="79" height="52" viewBox="0 0 79 52" fill="none" xmlns="http://www.w3.org/2000/svg">
<path d="M79 2.27258H0V51.3919H79V2.27258Z" fill="#E6E6E6"/>
<path d="M77 6.28235H2V49.3871H77V6.28235Z" fill="white"/>
<path d="M78.862 0.2677H0V3.59674H78.862V0.2677Z" fill="#FFD957"/>
<path d="M2.48968 2.84233C2.83263 2.84233 3.11064 2.56607 3.11064 2.2253C3.11064 1.88453 2.83263 1.60828 2.48968 1.60828C2.14673 1.60828 1.86871 1.88453 1.86871 2.2253C1.86871 2.56607 2.14673 2.84233 2.48968 2.84233Z" fill="white"/>
<path d="M4.84667 2.84233C5.18962 2.84233 5.46764 2.56607 5.46764 2.2253C5.46764 1.88453 5.18962 1.60828 4.84667 1.60828C4.50372 1.60828 4.22571 1.88453 4.22571 2.2253C4.22571 2.56607 4.50372 2.84233 4.84667 2.84233Z" fill="white"/>
<path d="M7.20376 2.84233C7.54671 2.84233 7.82472 2.56607 7.82472 2.2253C7.82472 1.88453 7.54671 1.60828 7.20376 1.60828C6.86081 1.60828 6.58279 1.88453 6.58279 2.2253C6.58279 2.56607 6.86081 2.84233 7.20376 2.84233Z" fill="white"/>
<path d="M72.9909 30.3451H36.1252C36.0946 30.3451 36.0653 30.333 36.0437 30.3115C36.022 30.29 36.0099 30.2609 36.0099 30.2305V12.6729C36.0099 12.6425 36.022 12.6133 36.0437 12.5918C36.0653 12.5703 36.0946 12.5582 36.1252 12.5582C36.1558 12.5582 36.1852 12.5703 36.2068 12.5918C36.2284 12.6133 36.2406 12.6425 36.2406 12.6729V30.1159H72.9909C73.0215 30.1159 73.0509 30.1279 73.0725 30.1494C73.0941 30.1709 73.1063 30.2001 73.1063 30.2305C73.1063 30.2609 73.0941 30.2901 73.0725 30.3116C73.0509 30.333 73.0215 30.3451 72.9909 30.3451Z" fill="#3F3D56"/>
<path d="M44.0018 29.084H40.6488C40.558 29.0839 40.4709 29.048 40.4067 28.9842C40.3425 28.9205 40.3064 28.834 40.3063 28.7437V24.1508C40.3064 24.0606 40.3425 23.9741 40.4067 23.9103C40.4709 23.8465 40.558 23.8106 40.6488 23.8105H44.0018C44.0926 23.8106 44.1797 23.8465 44.2439 23.9103C44.3081 23.9741 44.3442 24.0606 44.3443 24.1508V28.7437C44.3442 28.834 44.3081 28.9205 44.2439 28.9842C44.1797 29.048 44.0926 29.0839 44.0018 29.084Z" fill="#FFD957"/>
<path d="M50.1166 29.0841H46.7635C46.6727 29.084 46.5857 29.0481 46.5215 28.9843C46.4572 28.9205 46.4211 28.834 46.421 28.7438V19.7945C46.4211 19.7043 46.4572 19.6178 46.5215 19.554C46.5857 19.4902 46.6727 19.4543 46.7635 19.4542H50.1166C50.2074 19.4543 50.2944 19.4902 50.3586 19.554C50.4228 19.6178 50.459 19.7043 50.4591 19.7945V28.7438C50.459 28.834 50.4228 28.9205 50.3586 28.9843C50.2944 29.0481 50.2074 29.084 50.1166 29.0841Z" fill="#FFD957"/>
<path d="M56.2313 29.084H52.8783C52.7875 29.0839 52.7004 29.048 52.6362 28.9842C52.572 28.9205 52.5359 28.834 52.5358 28.7437V24.1508C52.5359 24.0606 52.572 23.9741 52.6362 23.9103C52.7004 23.8465 52.7875 23.8106 52.8783 23.8105H56.2313C56.3221 23.8106 56.4092 23.8465 56.4734 23.9103C56.5376 23.9741 56.5737 24.0606 56.5738 24.1508V28.7437C56.5737 28.834 56.5376 28.9205 56.4734 28.9842C56.4092 29.048 56.3221 29.0839 56.2313 29.084Z" fill="#FFD957"/>
<path d="M62.3461 29.084H58.993C58.9043 29.0859 58.8184 29.0528 58.7542 28.9919C58.69 28.931 58.6528 28.8473 58.6505 28.7591V18.0594C58.6528 17.9713 58.69 17.8876 58.7542 17.8267C58.8184 17.7658 58.9043 17.7327 58.993 17.7346H62.3461C62.4348 17.7327 62.5207 17.7658 62.5849 17.8267C62.6491 17.8876 62.6864 17.9713 62.6886 18.0594V28.7591C62.6864 28.8473 62.6491 28.931 62.5849 28.9919C62.5207 29.0528 62.4348 29.0859 62.3461 29.084Z" fill="#FFD957"/>
<path d="M68.4609 29.084H65.1078C65.017 29.0839 64.9299 29.048 64.8657 28.9842C64.8015 28.9204 64.7654 28.834 64.7653 28.7437V14.9796C64.7654 14.8893 64.8015 14.8029 64.8657 14.7391C64.9299 14.6753 65.017 14.6394 65.1078 14.6393H68.4609C68.5517 14.6394 68.6387 14.6753 68.7029 14.7391C68.7671 14.8029 68.8033 14.8893 68.8034 14.9796V28.7437C68.8033 28.834 68.7671 28.9204 68.7029 28.9842C68.6387 29.048 68.5517 29.0839 68.4609 29.084Z" fill="#FFD957"/>
<path d="M42.3253 22.4349C42.7076 22.4349 43.0175 22.1269 43.0175 21.747C43.0175 21.3672 42.7076 21.0592 42.3253 21.0592C41.943 21.0592 41.6331 21.3672 41.6331 21.747C41.6331 22.1269 41.943 22.4349 42.3253 22.4349Z" fill="#3F3D56"/>
<path d="M48.44 17.9638C48.8224 17.9638 49.1323 17.6559 49.1323 17.276C49.1323 16.8961 48.8224 16.5881 48.44 16.5881C48.0577 16.5881 47.7478 16.8961 47.7478 17.276C47.7478 17.6559 48.0577 17.9638 48.44 17.9638Z" fill="#3F3D56"/>
<path d="M54.5548 22.4349C54.9371 22.4349 55.247 22.1269 55.247 21.747C55.247 21.3672 54.9371 21.0592 54.5548 21.0592C54.1725 21.0592 53.8625 21.3672 53.8625 21.747C53.8625 22.1269 54.1725 22.4349 54.5548 22.4349Z" fill="#3F3D56"/>
<path d="M60.6696 15.7857C61.0519 15.7857 61.3618 15.4778 61.3618 15.0979C61.3618 14.718 61.0519 14.41 60.6696 14.41C60.2872 14.41 59.9773 14.718 59.9773 15.0979C59.9773 15.4778 60.2872 15.7857 60.6696 15.7857Z" fill="#3F3D56"/>
<path d="M66.7843 13.2636C67.1666 13.2636 67.4765 12.9557 67.4765 12.5758C67.4765 12.1959 67.1666 11.8879 66.7843 11.8879C66.402 11.8879 66.0921 12.1959 66.0921 12.5758C66.0921 12.9557 66.402 13.2636 66.7843 13.2636Z" fill="#3F3D56"/>
<path d="M54.5694 21.9011L48.4401 17.3393L42.3944 21.8388L42.2561 21.6552L48.4401 17.0527L54.5401 21.5929L60.6021 15.0013L60.6264 14.9915L66.7412 12.5433L66.8275 12.7561L60.737 15.1943L54.5694 21.9011Z" fill="#3F3D56"/>
<path d="M21.165 9.39661H10.6934V10.1787H21.165V9.39661Z" fill="#E6E6E6"/>
<path d="M26.8638 11.6925H10.6934V12.4746H26.8638V11.6925Z" fill="#FFD957"/>
<path d="M24.0401 13.879H10.8616V14.6611H24.0401V13.879Z" fill="#E6E6E6"/>
<path d="M18.3868 16.2782H10.6934V17.0603H18.3868V16.2782Z" fill="#E6E6E6"/>
<path d="M22.3047 18.6216H10.6934V19.4037H22.3047V18.6216Z" fill="#FFD957"/>
<path d="M7.20292 9.15051H5.92068V10.4246H7.20292V9.15051Z" fill="#E6E6E6"/>
<path d="M7.20292 11.4464H5.92068V12.7205H7.20292V11.4464Z" fill="#FFD957"/>
<path d="M7.20292 13.6331H5.92068V14.9072H7.20292V13.6331Z" fill="#E6E6E6"/>
<path d="M7.20292 16.0321H5.92068V17.3062H7.20292V16.0321Z" fill="#E6E6E6"/>
<path d="M7.20292 18.3756H5.92068V19.6497H7.20292V18.3756Z" fill="#FFD957"/>
<path d="M21.165 20.9797H10.6934V21.7618H21.165V20.9797Z" fill="#E6E6E6"/>
<path d="M26.8638 23.2756H10.6934V24.0577H26.8638V23.2756Z" fill="#FFD957"/>
<path d="M24.0401 25.4622H10.8616V26.2442H24.0401V25.4622Z" fill="#E6E6E6"/>
<path d="M18.3868 27.8613H10.6934V28.6434H18.3868V27.8613Z" fill="#E6E6E6"/>
<path d="M22.3047 30.2047H10.6934V30.9868H22.3047V30.2047Z" fill="#E6E6E6"/>
<path d="M7.20292 20.7336H5.92068V22.0077H7.20292V20.7336Z" fill="#E6E6E6"/>
<path d="M7.20292 23.0295H5.92068V24.3036H7.20292V23.0295Z" fill="#FFD957"/>
<path d="M7.20292 25.2162H5.92068V26.4903H7.20292V25.2162Z" fill="#E6E6E6"/>
<path d="M7.20292 27.6152H5.92068V28.8893H7.20292V27.6152Z" fill="#E6E6E6"/>
</svg>
