<svg width="40" height="41" viewBox="0 0 40 41" fill="none" xmlns="http://www.w3.org/2000/svg">
<path d="M19.9999 1.92214L20.3652 0.639027C20.1264 0.570825 19.8733 0.570825 19.6345 0.639027L19.9999 1.92214ZM1.33318 7.26847L0.967846 5.98535C0.665198 6.07183 0.402817 6.26283 0.227127 6.52456C0.0514367 6.78629 -0.0262381 7.10188 0.0078454 7.41549L1.33318 7.26847ZM3.99985 31.3269L2.67451 31.474C2.699 31.6956 2.77845 31.9077 2.9056 32.0907C3.03276 32.2737 3.20359 32.4219 3.40251 32.5218L3.99985 31.3269ZM19.9999 39.3464L19.4025 40.5413C19.5879 40.6345 19.7925 40.683 19.9999 40.683C20.2072 40.683 20.4118 40.6345 20.5972 40.5413L19.9999 39.3464ZM35.9999 31.3269L36.5972 32.5218C36.7961 32.4219 36.967 32.2737 37.0941 32.0907C37.2213 31.9077 37.3007 31.6956 37.3252 31.474L35.9999 31.3269ZM38.6665 7.26847L39.9919 7.41549C40.0266 7.10145 39.9493 6.78522 39.7735 6.52293C39.5978 6.26063 39.335 6.06922 39.0319 5.98268L38.6665 7.26847ZM19.9999 8.60505L21.2212 8.07042L19.9999 5.27162L18.7785 8.07042L19.9999 8.60505ZM19.6345 0.639027L0.967846 5.98535L1.69851 8.55159L20.3652 3.20526L19.6345 0.639027ZM0.0078454 7.41282L2.67451 31.4713L5.32518 31.1772L2.65851 7.11877L0.0078454 7.41282ZM3.40251 32.5218L19.4025 40.5413L20.5972 38.1488L4.59718 30.1294L3.40251 32.5218ZM20.5972 40.5413L36.5972 32.5218L35.4025 30.1294L19.4025 38.1488L20.5972 40.5413ZM37.3252 31.4713L39.9919 7.41282L37.3412 7.11877L34.6745 31.1772L37.3252 31.4713ZM39.0319 5.98001L20.3652 0.63368L19.6345 3.20526L38.3012 8.55159L39.0319 5.98001ZM11.8879 30.525L21.2212 9.13968L18.7785 8.07042L9.44518 29.4557L11.8879 30.525ZM18.7785 9.13968L28.1119 30.525L30.5545 29.4557L21.2212 8.07042L18.7785 9.13968ZM13.3332 24.644H26.6665V21.9709H13.3332V24.644Z" fill="white"/>
</svg>
