<svg width="189" height="147" viewBox="0 0 189 147" fill="none" xmlns="http://www.w3.org/2000/svg">
<g clip-path="url(#clip0_50_129)">
<path d="M181.169 128.555C180.418 122.506 176.678 116.546 170.922 114.577C173.192 120.804 173.192 127.634 170.921 133.86C170.036 136.258 168.803 138.832 169.635 141.249C170.153 142.753 171.419 143.903 172.835 144.623C174.25 145.342 175.821 145.685 177.373 146.021L177.678 146.274C180.14 140.7 181.919 134.604 181.169 128.555Z" fill="#F0F0F0"/>
<path d="M170.865 114.692C174.217 118.456 176.3 123.183 176.819 128.202C176.95 129.28 176.91 130.373 176.702 131.439C176.465 132.47 175.957 133.42 175.23 134.189C174.567 134.919 173.805 135.589 173.33 136.468C173.094 136.922 172.956 137.42 172.926 137.931C172.895 138.442 172.973 138.953 173.153 139.432C173.572 140.636 174.398 141.617 175.238 142.549C176.172 143.584 177.158 144.643 177.554 146.015C177.603 146.181 177.857 146.097 177.809 145.931C177.119 143.545 174.808 142.189 173.705 140.04C173.191 139.037 172.975 137.873 173.457 136.814C173.879 135.888 174.665 135.197 175.343 134.463C176.062 133.724 176.591 132.819 176.881 131.828C177.143 130.776 177.225 129.687 177.122 128.608C176.93 126.174 176.357 123.786 175.425 121.53C174.375 118.95 172.893 116.569 171.042 114.49C170.928 114.362 170.751 114.564 170.865 114.692Z" fill="white"/>
<path d="M176.747 126.576C177.575 126.374 178.305 125.884 178.806 125.193C179.307 124.502 179.547 123.655 179.482 122.803C179.468 122.631 179.201 122.644 179.214 122.817C179.276 123.61 179.053 124.399 178.585 125.041C178.117 125.684 177.435 126.138 176.663 126.321C176.495 126.361 176.58 126.616 176.747 126.576Z" fill="white"/>
<path d="M175.615 133.863C174.119 132.967 173.015 131.54 172.523 129.865C172.474 129.699 172.219 129.783 172.268 129.949C172.784 131.691 173.936 133.174 175.495 134.103C175.643 134.191 175.763 133.951 175.615 133.863Z" fill="white"/>
<path d="M174.127 119.205C173.823 119.35 173.487 119.417 173.151 119.399C172.814 119.382 172.487 119.282 172.199 119.107C172.052 119.016 171.932 119.257 172.079 119.347C172.398 119.539 172.759 119.649 173.131 119.669C173.502 119.689 173.873 119.617 174.211 119.46C174.244 119.448 174.271 119.423 174.287 119.392C174.303 119.36 174.306 119.324 174.296 119.29C174.285 119.256 174.261 119.229 174.229 119.213C174.197 119.197 174.161 119.194 174.127 119.205Z" fill="white"/>
<path d="M153.378 125.382C153.468 125.441 153.559 125.5 153.649 125.561C154.861 126.36 156.007 127.256 157.074 128.241C157.158 128.316 157.242 128.393 157.323 128.47C159.869 130.87 161.949 133.723 163.456 136.884C164.054 138.143 164.557 139.445 164.958 140.78C165.512 142.623 165.967 144.666 167.064 146.174C167.177 146.333 167.299 146.484 167.431 146.628H177.346C177.369 146.616 177.391 146.607 177.414 146.596L177.81 146.614C177.794 146.544 177.776 146.471 177.76 146.401C177.751 146.36 177.74 146.319 177.731 146.278C177.724 146.251 177.717 146.224 177.712 146.199C177.71 146.19 177.708 146.181 177.706 146.174C177.701 146.149 177.694 146.126 177.69 146.104C177.59 145.698 177.488 145.292 177.382 144.886C177.382 144.884 177.382 144.884 177.38 144.882C176.568 141.791 175.491 138.741 173.987 135.952C173.941 135.869 173.896 135.782 173.846 135.698C173.161 134.445 172.375 133.25 171.496 132.125C171.012 131.511 170.498 130.921 169.955 130.359C168.55 128.908 166.925 127.689 165.141 126.744C161.585 124.862 157.468 124.141 153.667 125.291C153.57 125.321 153.475 125.35 153.378 125.382Z" fill="#F0F0F0"/>
<path d="M153.4 125.508C158.337 126.491 162.84 129.008 166.269 132.702C167.022 133.484 167.646 134.38 168.12 135.357C168.551 136.324 168.716 137.389 168.597 138.441C168.506 139.424 168.3 140.419 168.449 141.407C168.533 141.912 168.722 142.393 169.005 142.819C169.287 143.246 169.656 143.607 170.088 143.88C171.146 144.589 172.395 144.875 173.626 145.111C174.992 145.374 176.416 145.625 177.557 146.481C177.695 146.585 177.847 146.364 177.709 146.26C175.725 144.771 173.065 145.084 170.894 144.033C169.881 143.542 169.01 142.743 168.759 141.607C168.539 140.613 168.751 139.587 168.852 138.592C168.982 137.567 168.861 136.526 168.497 135.56C168.075 134.562 167.485 133.643 166.755 132.843C165.14 131.016 163.248 129.454 161.149 128.216C158.761 126.79 156.147 125.783 153.421 125.24C153.252 125.206 153.232 125.475 153.4 125.508Z" fill="white"/>
<path d="M165.235 131.447C165.775 130.787 166.064 129.955 166.049 129.101C166.033 128.247 165.716 127.426 165.153 126.784C165.038 126.655 164.832 126.827 164.947 126.957C165.473 127.553 165.768 128.318 165.781 129.113C165.793 129.908 165.521 130.682 165.015 131.294C164.905 131.428 165.126 131.58 165.235 131.447Z" fill="white"/>
<path d="M168.709 137.948C166.976 138.136 165.237 137.663 163.838 136.622C163.699 136.519 163.547 136.74 163.685 136.843C165.143 137.923 166.954 138.412 168.757 138.213C168.928 138.193 168.88 137.929 168.709 137.948Z" fill="white"/>
<path d="M158.715 127.143C158.559 127.442 158.332 127.698 158.053 127.887C157.774 128.077 157.453 128.194 157.117 128.228C156.945 128.245 156.994 128.509 157.165 128.492C157.535 128.453 157.89 128.323 158.199 128.115C158.507 127.906 158.76 127.625 158.936 127.296C158.955 127.266 158.962 127.23 158.956 127.196C158.949 127.161 158.93 127.13 158.902 127.109C158.873 127.089 158.837 127.081 158.802 127.087C158.767 127.094 158.736 127.114 158.715 127.143Z" fill="white"/>
<path d="M137.412 22.2616L19.0789 0.531454C18.838 0.485033 18.5902 0.487964 18.3504 0.54007C18.133 0.587804 17.9288 0.683373 17.7528 0.81987C17.5806 0.954428 17.4422 1.12731 17.3483 1.32483C17.2484 1.53815 17.1976 1.77123 17.1997 2.00687V108.264C17.1975 108.499 17.2481 108.733 17.3478 108.946C17.4416 109.144 17.5799 109.317 17.7519 109.451C17.9278 109.588 18.1319 109.684 18.3493 109.731C18.589 109.784 18.8368 109.787 19.0778 109.741L137.412 88.0102C137.51 87.99 137.601 87.9437 137.675 87.8764C137.762 87.7988 137.835 87.7068 137.89 87.6043C137.954 87.4874 138.002 87.3626 138.034 87.2331C138.069 87.0922 138.087 86.9475 138.087 86.8023V23.4731C138.087 23.3275 138.069 23.1824 138.034 23.0411C138.002 22.9115 137.954 22.7867 137.89 22.6697C137.835 22.5673 137.762 22.4752 137.676 22.3976C137.601 22.3302 137.511 22.2839 137.413 22.2636L137.412 22.2616Z" fill="#E4E4E4"/>
<path d="M139.222 22.2616L20.8887 0.531454C20.6478 0.485033 20.4 0.487964 20.1603 0.54007C19.9428 0.587804 19.7387 0.683373 19.5626 0.81987C19.3905 0.954428 19.252 1.12731 19.1581 1.32483C19.0582 1.53815 19.0074 1.77123 19.0095 2.00687V108.264C19.0073 108.499 19.0579 108.733 19.1576 108.946C19.2514 109.144 19.3897 109.317 19.5617 109.451C19.7377 109.588 19.9417 109.684 20.1591 109.731C20.3988 109.784 20.6466 109.787 20.8876 109.741L139.222 88.0102C139.32 87.99 139.411 87.9437 139.485 87.8764C139.572 87.7988 139.644 87.7068 139.699 87.6043C139.763 87.4874 139.812 87.3626 139.844 87.2331C139.879 87.0922 139.896 86.9475 139.897 86.8023V23.4731C139.897 23.3275 139.879 23.1824 139.844 23.0411C139.812 22.9115 139.764 22.7867 139.7 22.6697C139.645 22.5673 139.572 22.4752 139.485 22.3976C139.411 22.3302 139.32 22.2839 139.222 22.2636L139.222 22.2616Z" fill="white"/>
<path d="M139.222 22.2616L20.8887 0.531454C20.6478 0.485033 20.4 0.487964 20.1603 0.54007C19.9428 0.587804 19.7387 0.683373 19.5626 0.81987C19.3905 0.954428 19.252 1.12731 19.1581 1.32483C19.0582 1.53815 19.0074 1.77123 19.0095 2.00687V108.264C19.0073 108.499 19.0579 108.733 19.1576 108.946C19.2514 109.144 19.3897 109.317 19.5617 109.451C19.7377 109.588 19.9417 109.684 20.1591 109.731C20.3988 109.784 20.6466 109.787 20.8876 109.741L139.222 88.0102C139.32 87.99 139.411 87.9437 139.485 87.8764C139.572 87.7988 139.644 87.7068 139.699 87.6043C139.763 87.4874 139.812 87.3626 139.844 87.2331C139.879 87.0922 139.896 86.9475 139.897 86.8023V23.4731C139.897 23.3275 139.879 23.1824 139.844 23.0411C139.812 22.9115 139.764 22.7867 139.7 22.6697C139.645 22.5673 139.572 22.4752 139.485 22.3976C139.411 22.3302 139.32 22.2839 139.222 22.2636L139.222 22.2616ZM139.672 86.8406C139.672 86.9379 139.661 87.0347 139.637 87.129C139.616 87.2155 139.584 87.2988 139.541 87.3769C139.504 87.4452 139.456 87.5066 139.398 87.5583C139.348 87.6031 139.288 87.6338 139.223 87.6471L20.8898 109.136C20.7293 109.167 20.5642 109.165 20.4046 109.129C20.2599 109.097 20.1242 109.033 20.0071 108.942C19.8927 108.853 19.8007 108.737 19.7384 108.606C19.6721 108.464 19.6384 108.309 19.6397 108.152V2.11979C19.6384 1.96316 19.672 1.80821 19.7381 1.6663C19.8004 1.53464 19.8923 1.41928 20.0067 1.32936C20.1236 1.23823 20.2593 1.17426 20.4039 1.14207C20.5635 1.10692 20.7286 1.10452 20.8892 1.13504L139.223 22.6248C139.288 22.6382 139.348 22.6689 139.398 22.7137C139.456 22.7654 139.504 22.8268 139.541 22.8951C139.584 22.9731 139.616 23.0563 139.637 23.1427C139.661 23.237 139.673 23.3339 139.673 23.4311V86.8404L139.672 86.8406Z" fill="#CACACA"/>
<path d="M0.000153237 33.664C-0.00553933 32.9391 0.147437 32.2218 0.448302 31.5626C0.729487 30.9536 1.14503 30.4166 1.66357 29.9921C2.18553 29.5678 2.79491 29.2648 3.44779 29.1049C4.15414 28.9341 4.88815 28.912 5.60347 29.0398C6.35374 29.1708 7.07367 29.4386 7.72748 29.83C8.37339 30.2152 8.95158 30.7044 9.43886 31.278C9.92204 31.8434 10.3081 32.4854 10.5813 33.1777C10.8535 33.8646 10.9949 34.5966 10.998 35.3358C11.0031 36.0348 10.8611 36.7271 10.5813 37.3674C10.3185 37.9625 9.92851 38.4924 9.43886 38.9197C8.94254 39.3501 8.3585 39.6667 7.72748 39.8475C7.03715 40.0429 6.31382 40.0921 5.60347 39.9922C4.84679 39.8877 4.11615 39.6429 3.44892 39.2702C2.77856 38.8974 2.17561 38.4141 1.66538 37.8406C1.15299 37.2683 0.741909 36.6124 0.449883 35.9013C0.157068 35.1917 0.00433933 34.4319 0.000153237 33.664Z" fill="#E4E4E4"/>
<path d="M0.000153237 55.6581C-0.00553933 54.9332 0.147437 54.2158 0.448302 53.5566C0.729487 52.9476 1.14503 52.4106 1.66357 51.9862C2.18553 51.5618 2.79491 51.2588 3.44779 51.0989C4.15414 50.9282 4.88815 50.906 5.60347 51.0339C6.35374 51.1648 7.07367 51.4327 7.72748 51.8241C8.37339 52.2093 8.95158 52.6985 9.43886 53.272C9.92204 53.8375 10.3081 54.4794 10.5813 55.1717C10.8535 55.8587 10.9949 56.5907 10.998 57.3298C11.0031 58.0289 10.8611 58.7211 10.5813 59.3615C10.3185 59.9565 9.92851 60.4864 9.43886 60.9137C8.94254 61.3441 8.3585 61.6608 7.72748 61.8416C7.03715 62.0369 6.31382 62.0862 5.60347 61.9862C4.84679 61.8818 4.11615 61.6369 3.44892 61.2643C2.77856 60.8915 2.17561 60.4082 1.66538 59.8347C1.15299 59.2623 0.741909 58.6064 0.449883 57.8953C0.157068 57.1857 0.00433933 56.426 0.000153237 55.6581Z" fill="#E4E4E4"/>
<path d="M0.000153237 77.6521C-0.00553933 76.9272 0.147437 76.2099 0.448302 75.5507C0.729487 74.9417 1.14503 74.4047 1.66357 73.9802C2.18553 73.5559 2.79491 73.2529 3.44779 73.093C4.15414 72.9222 4.88815 72.9001 5.60347 73.0279C6.35374 73.1589 7.07367 73.4267 7.72748 73.8181C8.37339 74.2033 8.95158 74.6925 9.43886 75.2661C9.92204 75.8315 10.3081 76.4735 10.5813 77.1658C10.8535 77.8527 10.9949 78.5847 10.998 79.3239C11.0031 80.0229 10.8611 80.7152 10.5813 81.3555C10.3185 81.9506 9.92851 82.4805 9.43886 82.9078C8.94254 83.3382 8.3585 83.6548 7.72748 83.8356C7.03715 84.031 6.31382 84.0802 5.60347 83.9803C4.84679 83.8758 4.11615 83.631 3.44892 83.2583C2.77856 82.8855 2.17561 82.4022 1.66538 81.8287C1.15299 81.2564 0.741909 80.6005 0.449883 79.8894C0.157068 79.1798 0.00433933 78.42 0.000153237 77.6521Z" fill="#E4E4E4"/>
<path d="M1.35751 33.664C1.35182 32.9391 1.5048 32.2218 1.80566 31.5626C2.08685 30.9536 2.50239 30.4166 3.02093 29.9921C3.5429 29.5678 4.15227 29.2648 4.80515 29.1049C5.5115 28.9341 6.24551 28.912 6.96083 29.0398C7.7111 29.1708 8.43103 29.4386 9.08484 29.83C9.73075 30.2152 10.3089 30.7044 10.7962 31.278C11.2794 31.8434 11.6655 32.4854 11.9386 33.1777C12.2109 33.8646 12.3522 34.5966 12.3553 35.3358C12.3604 36.0348 12.2184 36.7271 11.9386 37.3674C11.6759 37.9625 11.2859 38.4924 10.7962 38.9197C10.2999 39.3501 9.71586 39.6667 9.08484 39.8475C8.39451 40.0429 7.67118 40.0921 6.96083 39.9922C6.20415 39.8877 5.47351 39.6429 4.80628 39.2702C4.13592 38.8974 3.53297 38.4141 3.02274 37.8406C2.51035 37.2683 2.09927 36.6124 1.80724 35.9013C1.51443 35.1917 1.3617 34.4319 1.35751 33.664Z" fill="#F3C834"/>
<path d="M1.35748 55.5082C1.35402 54.7726 1.50678 54.0446 1.80563 53.3727C2.08941 52.7398 2.50357 52.1741 3.0209 51.713C3.53835 51.2522 4.14604 50.9046 4.80512 50.6926C5.50077 50.4707 6.23447 50.3942 6.9608 50.4679C7.70267 50.5408 8.42371 50.7556 9.08481 51.1008C9.72859 51.4365 10.308 51.8838 10.7962 52.422C11.2811 52.9541 11.6679 53.5683 11.9386 54.2359C12.2128 54.9124 12.3543 55.6356 12.3551 56.3657C12.3582 57.0748 12.2164 57.777 11.9384 58.4291C11.6718 59.0496 11.281 59.6086 10.7901 60.0716C10.2992 60.5346 9.71872 60.8916 9.08458 61.1205C8.40456 61.3654 7.6817 61.4681 6.96057 61.4223C6.21287 61.3763 5.48118 61.1853 4.80602 60.86C3.45814 60.2105 2.39225 59.0913 1.80744 57.7117C1.5127 57.0145 1.35973 56.2654 1.35748 55.5082Z" fill="#F3C834"/>
<path d="M1.35749 77.3523C1.35656 76.6205 1.50346 75.8961 1.78934 75.2226C2.07521 74.5492 2.49415 73.9408 3.0209 73.434C3.66865 72.8124 4.45765 72.3582 5.31974 72.1107C6.18183 71.8632 7.09109 71.8297 7.96896 72.0133C8.84683 72.1969 9.6669 72.5919 10.3583 73.1643C11.0498 73.7367 11.5918 74.4692 11.9375 75.2985C12.2773 76.1239 12.4103 77.0201 12.3247 77.9088C12.2392 78.7976 11.9377 79.6518 11.4468 80.3968C10.9558 81.1418 10.2902 81.7549 9.50818 82.1826C8.72617 82.6102 7.85157 82.8393 6.96081 82.8499C5.87029 82.8659 4.79937 82.5587 3.88252 81.9667C2.96567 81.3747 2.24376 80.5243 1.80744 79.5225C1.51068 78.8377 1.35753 78.099 1.35749 77.3523Z" fill="#F3C834"/>
<path d="M4.77549 33.6391L6.41832 33.8921V32.2687C6.41753 32.1984 6.43188 32.1288 6.46039 32.0646C6.48706 32.0052 6.52673 31.9527 6.57645 31.9109C6.62666 31.8689 6.68554 31.8386 6.74883 31.8222C6.8178 31.8045 6.88967 31.8014 6.9599 31.8131C7.03429 31.8252 7.10584 31.8508 7.17096 31.8889C7.23589 31.9266 7.29413 31.9749 7.34334 32.0317C7.39246 32.088 7.43184 32.1522 7.45985 32.2215C7.48778 32.2903 7.50245 32.3638 7.50306 32.438V34.0592L9.11467 34.3071C9.18788 34.3187 9.25831 34.3438 9.32234 34.3812C9.45074 34.4559 9.55058 34.5715 9.60603 34.7095C9.63336 34.7778 9.64756 34.8507 9.64788 34.9243C9.6484 34.9938 9.63413 35.0627 9.60603 35.1263C9.58005 35.185 9.54142 35.2372 9.49291 35.2791C9.44368 35.321 9.38582 35.3515 9.32347 35.3684C9.25576 35.3866 9.18503 35.3903 9.1158 35.3793L7.50193 35.1374V36.755C7.50245 36.8253 7.48795 36.8949 7.4594 36.9591C7.43267 37.0186 7.39312 37.0715 7.34357 37.1139C7.29353 37.1563 7.23486 37.1873 7.17164 37.2046C7.10296 37.2233 7.03117 37.2274 6.9608 37.2169C6.88649 37.206 6.81484 37.1814 6.74951 37.1443C6.68452 37.1075 6.62618 37.0599 6.5769 37.0037C6.52768 36.9479 6.48829 36.8841 6.46039 36.8151C6.43266 36.7461 6.41838 36.6724 6.41832 36.5981V34.9746L4.77549 34.7274C4.70001 34.7158 4.62731 34.6904 4.56103 34.6524C4.49507 34.6148 4.43582 34.5664 4.3857 34.5093C4.33589 34.4531 4.29589 34.3889 4.26739 34.3193C4.23898 34.2497 4.22424 34.1753 4.22395 34.1001C4.22341 34.0292 4.23823 33.959 4.26739 33.8944C4.29474 33.8345 4.33518 33.7815 4.3857 33.7393C4.4368 33.6965 4.49665 33.6656 4.56103 33.6486C4.6311 33.6307 4.70411 33.6274 4.77549 33.6391Z" fill="white"/>
<path d="M5.92853 57.3958L10.4905 57.7273H10.5073L8.36789 53.8342C8.35462 53.8097 8.33559 53.7888 8.31247 53.7734C8.30112 53.7658 8.28889 53.7596 8.27604 53.755C8.26314 53.7503 8.24968 53.7474 8.236 53.7462C8.22271 53.745 8.20932 53.7456 8.19619 53.748C8.18354 53.7504 8.17128 53.7545 8.15977 53.7602C8.13672 53.7717 8.11747 53.7895 8.10434 53.8117L6.6486 56.2102L6.57847 56.3256L5.92853 57.3958Z" fill="white"/>
<path d="M3.32495 57.2065L7.34991 57.499L6.57849 56.3254L6.52284 56.2406L5.51117 54.7012C5.49326 54.6773 5.4709 54.6572 5.44534 54.6418C5.43292 54.6344 5.41981 54.6281 5.40621 54.6232C5.39213 54.6182 5.37758 54.6146 5.36277 54.6125C5.34846 54.6105 5.33398 54.61 5.31956 54.6109C5.30554 54.6119 5.29167 54.6143 5.27816 54.6182C5.26487 54.6221 5.25205 54.6274 5.23993 54.6341C5.22774 54.6408 5.21636 54.6488 5.206 54.6581L5.2026 54.6622L5.19831 54.6663L5.19491 54.6706L5.19152 54.6749L3.32495 57.2065Z" fill="white"/>
<path d="M6.36876 53.1934C6.46156 53.2015 6.55194 53.2273 6.63502 53.2696C6.71647 53.3111 6.78992 53.3667 6.85197 53.4339C6.91389 53.5008 6.96338 53.5782 6.99811 53.6625C7.03331 53.7478 7.05153 53.8391 7.05172 53.9314C7.05213 54.0208 7.03386 54.1093 6.99811 54.1913C6.96416 54.2688 6.91437 54.3383 6.85197 54.3953C6.78924 54.4525 6.71537 54.4959 6.63502 54.523C6.54935 54.5516 6.45873 54.5623 6.36876 54.5545C6.27584 54.5467 6.1853 54.5211 6.10204 54.479C6.0202 54.4377 5.94636 54.3821 5.88396 54.3148C5.82159 54.2479 5.77171 54.1704 5.73669 54.0858C5.70116 54.0002 5.68279 53.9083 5.68262 53.8155C5.68223 53.7258 5.70065 53.637 5.73669 53.5548C5.77097 53.4772 5.82115 53.4076 5.88396 53.3507C5.94713 53.2939 6.02139 53.2508 6.10204 53.2242C6.18791 53.1958 6.27868 53.1853 6.36876 53.1934Z" fill="white"/>
<path d="M55.5974 68.7128L100.77 25.7548L100.963 26.0949L55.8797 69.0762L55.5974 68.7128Z" fill="#E6E6E6"/>
<path d="M55.6047 20.0236L55.8879 19.6835L100.959 66.5796L100.765 66.9027L55.6047 20.0236Z" fill="#E6E6E6"/>
<path d="M100.313 25.1276L56.4028 19.0813C56.1998 19.0522 55.9928 19.0699 55.7976 19.133C55.6118 19.1944 55.4423 19.297 55.3015 19.4332C55.1559 19.5741 55.0415 19.744 54.9656 19.932C54.8825 20.1394 54.8405 20.3611 54.8418 20.5846V67.9602C54.8412 68.1867 54.8832 68.4114 54.9656 68.6223C55.0422 68.8184 55.1562 68.9977 55.3013 69.1502C55.4412 69.297 55.6102 69.4128 55.7974 69.4903C55.9891 69.5688 56.1958 69.6035 56.4025 69.5919L100.313 67.168C100.461 67.1582 100.604 67.1115 100.73 67.0319C100.863 66.9478 100.978 66.8383 101.069 66.7097C101.17 66.5691 101.247 66.4131 101.298 66.2479C101.354 66.0683 101.382 65.8813 101.382 65.6932V26.689C101.382 26.4986 101.353 26.3093 101.298 26.1273C101.246 25.9565 101.169 25.7944 101.069 25.6466C100.978 25.5103 100.863 25.3917 100.73 25.2963C100.606 25.2078 100.463 25.15 100.313 25.1276ZM56.4028 69.1044C56.2552 69.1124 56.1076 69.0873 55.9709 69.0309C55.8373 68.9753 55.7168 68.8924 55.6171 68.7874C55.5136 68.6782 55.4323 68.5499 55.3777 68.4096C55.319 68.2591 55.2891 68.0989 55.2895 67.9373V20.6433C55.2887 20.484 55.3186 20.3261 55.3777 20.1783C55.4317 20.0438 55.5133 19.9222 55.6171 19.8214C55.7175 19.7242 55.8384 19.651 55.9709 19.6071C56.1101 19.5618 56.2578 19.5488 56.4028 19.5692L100.313 25.5337C100.42 25.5497 100.523 25.591 100.611 25.6543C100.706 25.7221 100.789 25.8066 100.854 25.9037C100.926 26.0093 100.981 26.1251 101.018 26.2473C101.057 26.3774 101.078 26.5127 101.078 26.6488V65.7091C101.078 65.8437 101.058 65.9775 101.018 66.1059C100.981 66.2241 100.926 66.3356 100.854 66.4361C100.789 66.5279 100.706 66.606 100.611 66.666C100.521 66.7224 100.419 66.7554 100.313 66.7619L56.4028 69.1044Z" fill="#E6E6E6"/>
<path d="M54.9481 74.5949C54.8314 74.6077 54.7201 74.6511 54.6253 74.7206C54.5207 74.7975 54.4318 74.8938 54.3633 75.0042C54.2855 75.1276 54.2266 75.2619 54.1887 75.4028C54.1467 75.5566 54.1264 75.7155 54.1283 75.8749C54.1292 76.0276 54.1521 76.1793 54.1962 76.3255C54.2345 76.4539 54.2942 76.575 54.3726 76.6837C54.441 76.7793 54.5296 76.8585 54.6321 76.9157C54.7289 76.9688 54.8386 76.9935 54.9488 76.9871L131.82 70.6072C131.881 70.6021 131.939 70.5757 131.983 70.5326C132.039 70.479 132.084 70.4153 132.116 70.3449C132.157 70.2581 132.188 70.1668 132.207 70.0728C132.23 69.9641 132.241 69.8533 132.242 69.7422C132.243 69.6323 132.233 69.5225 132.212 69.4146C132.195 69.3228 132.165 69.2338 132.125 69.1495C132.095 69.0822 132.05 69.022 131.995 68.9729C131.951 68.9333 131.893 68.9119 131.834 68.913H131.82L54.9481 74.5949Z" fill="#E6E6E6"/>
<path d="M54.9481 81.8553C54.8308 81.8715 54.7196 81.9178 54.6253 81.9897C54.5208 82.0692 54.432 82.1675 54.3633 82.2795C54.2857 82.4046 54.2268 82.5405 54.1887 82.6829C54.1467 82.8376 54.1263 82.9975 54.1283 83.1579C54.1291 83.31 54.152 83.4611 54.1962 83.6066C54.2343 83.7337 54.294 83.8533 54.3726 83.9601C54.4409 84.0537 54.5294 84.1305 54.6317 84.1848C54.7291 84.2355 54.839 84.2572 54.9484 84.2476L131.82 75.7479C131.882 75.7409 131.939 75.713 131.983 75.6688C132.039 75.6137 132.084 75.5487 132.116 75.4772C132.157 75.3892 132.188 75.2967 132.207 75.2015C132.23 75.0924 132.241 74.9812 132.242 74.8698C132.243 74.76 132.233 74.6505 132.212 74.5428C132.195 74.4519 132.166 74.3636 132.125 74.2802C132.095 74.2141 132.05 74.1553 131.995 74.1079C131.95 74.0694 131.892 74.0495 131.833 74.0524H131.82L54.9481 81.8553Z" fill="#E6E6E6"/>
<path d="M54.9481 88.9981C54.8302 89.0178 54.7191 89.0671 54.6253 89.1414C54.5208 89.2237 54.4321 89.3244 54.3633 89.4384C54.2858 89.5653 54.227 89.7028 54.1887 89.8466C54.1468 90.0018 54.1264 90.1621 54.1283 90.3229C54.129 90.4744 54.1519 90.6248 54.1962 90.7696C54.2341 90.8953 54.2939 91.0134 54.3726 91.1184C54.4409 91.2101 54.5296 91.2847 54.6316 91.336C54.7298 91.3842 54.8398 91.403 54.9483 91.3902L131.82 80.8052C131.882 80.7963 131.939 80.767 131.983 80.7217C132.039 80.6652 132.084 80.5991 132.116 80.5265C132.157 80.4376 132.187 80.3443 132.207 80.2483C132.229 80.1389 132.241 80.0275 132.242 79.9157C132.243 79.8062 132.233 79.697 132.212 79.5896C132.195 79.4994 132.166 79.4119 132.125 79.3293C132.095 79.2642 132.05 79.2066 131.995 79.1606C131.95 79.1232 131.892 79.1048 131.833 79.1094H131.82L54.9481 88.9981Z" fill="#E6E6E6"/>
<path d="M9.15382 75.0518L4.76554 74.9992C4.69237 74.9967 4.61932 75.007 4.54972 75.0298C4.48245 75.0519 4.41947 75.0854 4.36354 75.1289C4.30781 75.1722 4.26004 75.2249 4.22238 75.2847C4.18379 75.346 4.15658 75.4139 4.14207 75.4849C4.12759 75.5698 4.132 75.6568 4.15497 75.7398C4.16643 75.7812 4.18236 75.8213 4.20247 75.8593C4.24348 75.9367 4.30084 76.0043 4.37056 76.0572C4.47511 76.1366 4.60245 76.1801 4.73364 76.1812L6.05343 76.1933C6.11566 76.1937 6.17643 76.2123 6.22827 76.2468C6.28011 76.2813 6.32077 76.3302 6.34526 76.3876C6.36172 76.4264 6.37018 76.4681 6.37014 76.5102V79.1051C6.36688 79.2483 6.4145 79.3881 6.50452 79.4994C6.5946 79.6111 6.72108 79.6873 6.86172 79.7148C6.98919 79.7362 7.12015 79.7152 7.23455 79.6549C7.34895 79.5946 7.44049 79.4984 7.49515 79.381C7.53114 79.3037 7.54982 79.2194 7.5499 79.1341V76.5175C7.54992 76.4767 7.55797 76.4362 7.57358 76.3985C7.58919 76.3608 7.61206 76.3266 7.64088 76.2977C7.6697 76.2689 7.70391 76.246 7.74155 76.2304C7.77919 76.2148 7.81953 76.2068 7.86026 76.2068L7.86321 76.2069L9.12395 76.2168C9.26471 76.2214 9.40251 76.1757 9.51282 76.088C9.62314 76.0003 9.69882 75.8761 9.72639 75.7377C9.74022 75.6539 9.73583 75.5682 9.71353 75.4862C9.69123 75.4043 9.65153 75.3282 9.59717 75.2631C9.5428 75.1979 9.47504 75.1453 9.39852 75.1089C9.322 75.0724 9.23853 75.053 9.15382 75.0518Z" fill="white"/>
<path d="M9.15403 78.5477C9.27916 78.5477 9.40097 78.5881 9.50143 78.6628C9.60189 78.7376 9.67565 78.8428 9.71179 78.9629C9.74793 79.0829 9.74454 79.2115 9.7021 79.3295C9.65966 79.4475 9.58045 79.5486 9.47618 79.6179C9.37191 79.6873 9.24814 79.7211 9.12319 79.7144C8.99824 79.7077 8.87876 79.6609 8.78243 79.5809C8.68611 79.5008 8.61808 79.3918 8.5884 79.2699C8.55872 79.1481 8.56898 79.0199 8.61766 78.9044C8.662 78.7986 8.73659 78.7082 8.83203 78.6448C8.92747 78.5813 9.0395 78.5475 9.15403 78.5477Z" fill="white"/>
<path d="M112.006 44.1603C111.985 44.3186 111.953 44.475 111.908 44.6282L121.055 55.6061L124.472 55.0161L126.034 60.0675L120.087 61.7012C119.607 61.8331 119.097 61.8054 118.633 61.622C118.17 61.4386 117.778 61.1095 117.518 60.6842L109.016 46.8213C108.403 46.8231 107.803 46.6376 107.298 46.2896C106.792 45.9415 106.404 45.4475 106.185 44.8731C105.967 44.2987 105.928 43.6712 106.074 43.074C106.219 42.4769 106.543 41.9384 107.002 41.5302C107.461 41.122 108.032 40.8634 108.641 40.7888C109.25 40.7143 109.867 40.8273 110.41 41.1128C110.953 41.3983 111.397 41.8428 111.682 42.3872C111.967 42.9316 112.08 43.5501 112.006 44.1603Z" fill="#FFB6B6"/>
<path d="M121.46 54.9941C121.558 54.8354 121.689 54.6997 121.844 54.5962C121.998 54.4928 122.174 54.4241 122.358 54.3947L128.775 53.3689C129.683 53.0818 130.668 53.1672 131.513 53.6065C132.358 54.0458 132.995 54.803 133.284 55.7122C133.573 56.6214 133.49 57.6084 133.054 58.4567C132.618 59.305 131.865 59.9454 130.958 60.2375L125.095 63.0949C124.927 63.1764 124.744 63.2208 124.558 63.2251C124.372 63.2294 124.188 63.1935 124.017 63.1197C123.846 63.046 123.693 62.9362 123.568 62.7979C123.443 62.6595 123.35 62.4958 123.294 62.3179L121.327 56.0666C121.271 55.8887 121.254 55.7008 121.277 55.5157C121.3 55.3306 121.362 55.1527 121.46 54.9941Z" fill="#3F3D56"/>
<path d="M121.818 143.918H119.045L117.725 133.195L121.819 133.196L121.818 143.918Z" fill="#FFB6B6"/>
<path d="M122.525 146.612L113.583 146.612V146.499C113.583 145.573 113.949 144.686 114.602 144.032C115.255 143.377 116.14 143.01 117.063 143.01L122.526 143.01L122.525 146.612Z" fill="#2F2E41"/>
<path d="M150.775 143.918H148.001L146.682 133.195L150.775 133.196L150.775 143.918Z" fill="#FFB6B6"/>
<path d="M151.482 146.612L142.539 146.612V146.499C142.539 145.573 142.906 144.686 143.559 144.032C144.212 143.377 145.097 143.01 146.02 143.01L151.482 143.01L151.482 146.612Z" fill="#2F2E41"/>
<path d="M122.901 78.6047L134.919 75.1237C139.297 78.2361 142.32 84.4746 141.341 92.5465C139.763 105.554 148.897 122.279 152.836 139.226L146.025 139.44L131.11 103.665L122.366 140.185L116.281 140.377L120.35 90.0923L122.901 78.6047Z" fill="#2F2E41"/>
<path d="M128.253 46.971C131.686 46.971 134.47 44.1811 134.47 40.7397C134.47 37.2982 131.686 34.5083 128.253 34.5083C124.819 34.5083 122.036 37.2982 122.036 40.7397C122.036 44.1811 124.819 46.971 128.253 46.971Z" fill="#FFB6B6"/>
<path d="M121.927 68.4483C120.553 66.0306 119.874 63.0943 121.07 60.5833C121.371 59.951 122.192 59.3534 122.622 58.8009L127.425 51.6223L132.849 50.7477C137.543 54.6936 133.533 68.1745 137.379 77.0175L121.317 85.6337C122.465 81.2391 124.015 72.1224 121.927 68.4483Z" fill="#3F3D56"/>
<path d="M121.996 38.2445C121.996 38.2445 122.417 37.4629 124.937 38.4712C125.819 38.8241 126.233 38.743 126.29 39.5109C126.494 42.4009 127.549 45.1653 129.32 47.4547L129.34 47.4795L130.6 46.3272L132.219 47.6236L139.059 47.7676C139.059 47.7676 140.139 42.4381 136.539 36.3883C132.939 30.3386 125.56 33.6515 125.56 33.6515C120.52 33.9396 121.996 38.2445 121.996 38.2445Z" fill="#2F2E41"/>
<path d="M106.124 30.2796L62.2145 24.2333C62.0115 24.2042 61.8045 24.2219 61.6093 24.285C61.4235 24.3464 61.254 24.449 61.1132 24.5852C60.9677 24.7261 60.8532 24.896 60.7773 25.084C60.6942 25.2914 60.6522 25.5131 60.6535 25.7366V73.1122C60.6529 73.3387 60.6949 73.5633 60.7773 73.7743C60.8539 73.9704 60.9679 74.1497 61.113 74.3021C61.2529 74.4489 61.4219 74.5648 61.6091 74.6423C61.8008 74.7208 62.0075 74.7555 62.2143 74.7438L106.124 72.32C106.273 72.3102 106.416 72.2635 106.542 72.1839C106.675 72.0998 106.79 71.9903 106.881 71.8617C106.982 71.7211 107.059 71.5651 107.11 71.3998C107.165 71.2203 107.194 71.0333 107.193 70.8452V31.8409C107.193 31.6506 107.165 31.4613 107.11 31.2793C107.058 31.1084 106.981 30.9464 106.881 30.7986C106.79 30.6623 106.675 30.5436 106.542 30.4483C106.418 30.3598 106.275 30.3019 106.124 30.2796Z" fill="#DFB525"/>
<path opacity="0.2" d="M106.124 30.2796L62.2145 24.2333C62.0115 24.2042 61.8045 24.2219 61.6093 24.285C61.4235 24.3464 61.254 24.449 61.1132 24.5852C60.9677 24.7261 60.8532 24.896 60.7773 25.084C60.6942 25.2914 60.6522 25.5131 60.6535 25.7366V73.1122C60.6529 73.3387 60.6949 73.5633 60.7773 73.7743C60.8539 73.9704 60.9679 74.1497 61.113 74.3021C61.2529 74.4489 61.4219 74.5648 61.6091 74.6423C61.8008 74.7208 62.0075 74.7555 62.2143 74.7438L106.124 72.32C106.273 72.3102 106.416 72.2635 106.542 72.1839C106.675 72.0998 106.79 71.9903 106.881 71.8617C106.982 71.7211 107.059 71.5651 107.11 71.3998C107.165 71.2203 107.194 71.0333 107.193 70.8452V31.8409C107.193 31.6506 107.165 31.4613 107.11 31.2793C107.058 31.1084 106.981 30.9464 106.881 30.7986C106.79 30.6623 106.675 30.5436 106.542 30.4483C106.418 30.3598 106.275 30.3019 106.124 30.2796Z" fill="black"/>
<path d="M107.934 30.2796L64.0243 24.2333C63.8213 24.2042 63.6143 24.2219 63.4191 24.285C63.2334 24.3464 63.0638 24.449 62.923 24.5852C62.7775 24.7261 62.663 24.896 62.5871 25.084C62.504 25.2914 62.462 25.5131 62.4634 25.7366V73.1122C62.4627 73.3387 62.5047 73.5633 62.5871 73.7743C62.6637 73.9704 62.7778 74.1497 62.9228 74.3021C63.0627 74.4489 63.2317 74.5648 63.4189 74.6423C63.6106 74.7208 63.8173 74.7555 64.0241 74.7438L107.934 72.32C108.082 72.3102 108.226 72.2635 108.352 72.1839C108.485 72.0998 108.6 71.9903 108.691 71.8617C108.791 71.7211 108.869 71.5651 108.919 71.3998C108.975 71.2203 109.004 71.0333 109.003 70.8452V31.8409C109.003 31.6506 108.975 31.4613 108.919 31.2793C108.868 31.1084 108.791 30.9464 108.691 30.7986C108.6 30.6623 108.485 30.5436 108.352 30.4483C108.228 30.3598 108.085 30.3019 107.934 30.2796Z" fill="#FFD957"/>
<path d="M107.746 68.1549C107.865 68.2603 107.976 68.3751 108.078 68.4981L122.274 67.0436L123.698 63.8756L128.749 65.4049L126.772 71.2588C126.612 71.7317 126.304 72.14 125.893 72.4222C125.482 72.7044 124.991 72.8454 124.493 72.8241L108.273 72.1275C107.931 72.638 107.442 73.032 106.871 73.2572C106.301 73.4825 105.675 73.5282 105.078 73.3884C104.48 73.2485 103.94 72.9297 103.528 72.4744C103.115 72.019 102.851 71.4487 102.771 70.8393C102.69 70.2299 102.796 69.6102 103.075 69.0628C103.354 68.5153 103.793 68.066 104.333 67.7746C104.873 67.4832 105.489 67.3635 106.099 67.4314C106.708 67.4993 107.283 67.7517 107.746 68.1549Z" fill="#FFB6B6"/>
<path d="M121.995 66.3647C121.918 66.1947 121.879 66.0101 121.88 65.8236C121.881 65.6371 121.923 65.4531 122.001 65.284L124.745 59.3791C125.015 58.4642 125.637 57.6942 126.473 57.2379C127.309 56.7817 128.292 56.6764 129.206 56.9453C130.119 57.2141 130.889 57.8351 131.346 58.672C131.804 59.5089 131.911 60.4935 131.646 61.4098L130.727 67.8795C130.7 68.0642 130.635 68.241 130.534 68.3979C130.434 68.5548 130.3 68.6882 130.144 68.7889C129.987 68.8896 129.811 68.9553 129.627 68.9815C129.442 69.0077 129.255 68.9938 129.076 68.9407L122.807 67.0757C122.628 67.0227 122.463 66.9318 122.323 66.8091C122.183 66.6864 122.071 66.5348 121.995 66.3647Z" fill="#3F3D56"/>
<path d="M188.774 146.854H102.583C102.523 146.854 102.465 146.83 102.423 146.788C102.38 146.745 102.357 146.688 102.357 146.627C102.357 146.567 102.38 146.51 102.423 146.467C102.465 146.425 102.523 146.401 102.583 146.401H188.774C188.834 146.401 188.891 146.425 188.934 146.467C188.976 146.51 189 146.567 189 146.627C189 146.688 188.976 146.745 188.934 146.788C188.891 146.83 188.834 146.854 188.774 146.854Z" fill="#CACACA"/>
</g>
<defs>
<clipPath id="clip0_50_129">
<rect width="189" height="146.356" fill="white" transform="translate(0 0.498688)"/>
</clipPath>
</defs>
</svg>
