<svg width="509" height="257" viewBox="0 0 509 257" fill="none" xmlns="http://www.w3.org/2000/svg">
<g clip-path="url(#clip0_43_101)">
<path d="M167.624 256.362C152.265 256.362 136.93 256.087 121.617 255.536C99.7367 254.749 77.1116 253.935 56.0824 242.251C41.3716 234.078 28.3429 220.965 18.4052 204.328C11.7629 193.053 6.89258 180.82 3.96514 168.06C-1.49565 144.828 -1.30965 120.623 4.50751 97.4778C6.54606 89.5425 9.35635 81.8265 12.898 74.4406C28.2338 42.6258 56.205 21.2695 89.6399 15.8479C89.916 15.812 90.1952 15.806 90.4726 15.8301C90.623 15.8381 90.7729 15.8468 90.9257 15.8404L91.1224 15.7777C91.6267 15.6021 92.1447 15.469 92.6711 15.3796C144.237 7.68907 198.749 23.2497 250.31 60.3779C290.178 89.0893 343.013 104.55 411.836 107.643L412.814 107.695C431.972 108.797 450.505 116.71 466.409 130.579C482.107 144.268 493.894 162.531 500.494 183.396C501.306 185.939 502.05 188.587 502.705 191.265C503.316 193.754 503.273 196.359 502.58 198.826C501.888 201.293 500.57 203.538 498.755 205.344V205.349L498.583 205.526C498.171 205.937 497.736 206.331 497.293 206.698L496.771 207.129C492.372 210.758 488.899 213.626 484.741 215.853C481.968 217.328 479.019 218.443 475.965 219.172C459.193 223.268 442.162 227.066 425.343 230.461C392.68 237.058 359.157 242.501 325.704 246.637C273.259 253.115 220.466 256.363 167.624 256.362ZM90.0816 16.9569C89.9789 16.9559 89.8763 16.9629 89.7746 16.9778C56.6523 22.3487 28.9458 43.4954 13.7622 74.9952C10.2554 82.3079 7.47295 89.9474 5.45466 97.8041C-0.309486 120.744 -0.493173 144.734 4.91905 167.76C7.81783 180.398 12.641 192.513 19.2191 203.681C29.0595 220.154 41.955 233.136 56.5116 241.223C77.352 252.802 99.8704 253.613 121.648 254.396C189.759 256.834 257.956 253.86 325.598 245.503C359.029 241.37 392.531 235.931 425.173 229.337C441.98 225.945 459 222.15 475.76 218.056C478.741 217.346 481.619 216.258 484.325 214.818C488.399 212.636 491.839 209.796 496.195 206.201L496.717 205.771C497.099 205.455 497.473 205.118 497.832 204.767L497.935 204.659C501.514 201.044 502.906 196.275 501.754 191.575V191.575C501.105 188.925 500.369 186.306 499.566 183.788C486.082 141.166 451.2 111.045 412.766 108.834L411.794 108.783C380.357 107.369 352.847 103.455 327.695 96.8135C297.671 88.886 271.458 76.9526 249.787 61.3452C198.422 24.3592 144.137 8.85652 92.797 16.5105C92.3175 16.5934 91.8456 16.716 91.3862 16.877L91.0316 16.9764C90.8302 16.9854 90.6284 16.983 90.4273 16.9691C90.3088 16.963 90.1939 16.9569 90.0816 16.9569Z" fill="#F0F0F0"/>
<path d="M158.991 84.0258C157.569 82.6592 156.115 75.0381 154.299 74.2645C155.656 77.2688 154.671 78.0642 154.664 81.3613C154.681 83.2335 154.463 85.1004 154.014 86.918H123.264V62.8763C123.264 60.7161 123.689 58.5771 124.514 56.5813C125.339 54.5855 126.548 52.7721 128.073 51.2446C129.598 49.7171 131.408 48.5054 133.4 47.6788C135.392 46.8521 137.528 46.4267 139.684 46.4268C140.507 46.4429 141.325 46.5628 142.118 46.7837C144.761 47.4986 147.17 48.8972 149.103 50.8392C151.036 52.7812 152.426 55.1984 153.132 57.8482C155.476 66.4321 159.204 80.7207 158.991 84.0258Z" fill="#2F2E41"/>
<path d="M125.068 113.602L125.084 94.8625L114.088 95.8469L117.969 107.666L116.152 137.372C115.272 137.57 114.467 138.021 113.838 138.669C113.208 139.317 112.78 140.134 112.606 141.022C112.432 141.909 112.52 142.828 112.858 143.667C113.197 144.505 113.772 145.227 114.512 145.744C115.253 146.26 116.128 146.55 117.03 146.578C117.933 146.605 118.823 146.369 119.594 145.898C120.365 145.427 120.982 144.741 121.37 143.925C121.759 143.109 121.902 142.197 121.782 141.3L125.068 113.602Z" fill="#FFB6B6"/>
<path d="M146.707 247.511L151.149 247.511L153.263 230.346H146.706L146.707 247.511Z" fill="#FFB6B6"/>
<path d="M145.203 245.316L152.225 244.896V247.91L158.901 252.529C159.231 252.757 159.479 253.085 159.61 253.465C159.74 253.844 159.747 254.255 159.627 254.639C159.508 255.022 159.27 255.357 158.947 255.595C158.624 255.833 158.234 255.961 157.833 255.961H149.473L148.032 252.98L147.469 255.961H144.317L145.203 245.316Z" fill="#2F2E41"/>
<path d="M121.022 247.511L125.464 247.511L127.577 230.346H121.021L121.022 247.511Z" fill="#FFB6B6"/>
<path d="M119.518 245.316L126.54 244.896V247.91L133.216 252.529C133.546 252.757 133.794 253.085 133.925 253.465C134.055 253.844 134.062 254.255 133.942 254.639C133.823 255.022 133.585 255.357 133.262 255.595C132.939 255.833 132.549 255.961 132.148 255.961H123.788L122.347 252.98L121.784 255.961H118.632L119.518 245.316Z" fill="#2F2E41"/>
<path d="M142.751 74.626L133.549 74.8067L127.053 81.6758L121.846 82.441C119.49 82.7871 117.324 83.9328 115.71 85.6865C114.096 87.4403 113.132 89.6958 112.979 92.0761L113.881 97.0408H119.294L122.426 115.461C121.208 118.569 121.125 121.022 123.625 121.986L131.384 136.628L154.299 126.325C155.461 124.323 155.834 122.313 154.646 120.358L156.284 92.1601H161.792C161.792 86.8863 160.012 82.4403 154.78 81.8534C152.703 81.6282 150.615 81.5085 148.525 81.495L142.751 74.626Z" fill="#E6E6E6"/>
<path d="M154.299 126.325C154.299 126.325 131.925 130.301 123.625 121.986C123.625 121.986 122.782 123.419 121.513 125.796C121.147 126.48 120.442 126.943 120.016 127.771C119.629 128.523 118.633 129.448 118.212 130.302C117.873 130.988 118.417 131.886 118.064 132.627C113.813 141.559 108.847 154.158 109.912 162.478C110.598 167.843 112.016 180.327 113.51 193.735C113.627 194.783 112.681 196.128 112.799 197.184C112.909 198.18 114.082 198.886 114.193 199.884C114.266 200.546 113.447 201.222 113.52 201.884C113.601 202.61 114.574 203.322 114.653 204.046C116.699 222.56 118.573 239.845 118.573 239.845H129.038L131.013 200.367L129.399 185.977L133.188 156.874L138.421 184.531L139.094 200.096L144.624 240.568H154.299V201.389L155.021 199.354L154.299 196.743L155.021 193.931L154.299 190.868V126.325Z" fill="#2F2E41"/>
<path d="M145.576 69.28C144.15 71.177 142.123 72.5311 139.826 73.1193C137.53 73.7075 135.102 73.4947 132.943 72.5159C130.783 71.5372 129.021 69.8509 127.946 67.7347C126.871 65.6185 126.547 63.1987 127.029 60.8737C127.51 58.5486 128.767 56.4571 130.593 54.9435C132.419 53.4299 134.706 52.5845 137.075 52.5465C139.445 52.5085 141.757 53.2802 143.631 54.7345C145.505 56.1888 146.828 58.2389 147.383 60.5473C147.413 60.6726 147.438 60.7971 147.463 60.9264C147.756 62.3733 147.74 63.8661 147.414 65.3061C147.089 66.7461 146.462 68.1006 145.576 69.28Z" fill="#FFB6B6"/>
<path d="M143.401 63.3175C143.18 62.205 142.62 61.1883 141.799 60.4072C141.88 61.4734 141.732 62.5446 141.366 63.5489C138.622 63.7923 135.866 63.2454 133.423 61.9727C131.582 60.7218 129.24 60.8302 126.512 61.9727C126.512 60.6433 126.773 59.3269 127.281 58.0986C127.789 56.8704 128.533 55.7544 129.471 54.8144C130.409 53.8744 131.523 53.1287 132.749 52.6201C133.975 52.1114 135.289 51.8497 136.616 51.8499H138.421C141.101 51.8503 143.67 52.917 145.565 54.8153C147.46 56.7136 148.525 59.2881 148.525 61.9727C146.86 62.5711 145.145 63.0211 143.401 63.3175Z" fill="#2F2E41"/>
<path d="M64.4605 192.337C80.4927 192.337 93.4894 179.316 93.4894 163.255C93.4894 147.194 80.4927 134.174 64.4605 134.174C48.4283 134.174 35.4317 147.194 35.4317 163.255C35.4317 179.316 48.4283 192.337 64.4605 192.337Z" fill="#F0F0F0"/>
<path d="M249.448 58.9042C265.48 58.9042 278.477 45.8841 278.477 29.8229C278.477 13.7616 265.48 0.741455 249.448 0.741455C233.416 0.741455 220.419 13.7616 220.419 29.8229C220.419 45.8841 233.416 58.9042 249.448 58.9042Z" fill="#F0F0F0"/>
<path d="M479.971 196.898C496.003 196.898 509 183.878 509 167.817C509 151.756 496.003 138.736 479.971 138.736C463.939 138.736 450.942 151.756 450.942 167.817C450.942 183.878 463.939 196.898 479.971 196.898Z" fill="#F0F0F0"/>
<path d="M301.814 32.9944V98.9385C301.814 100.308 301.275 101.623 300.313 102.596C299.351 103.57 298.045 104.124 296.678 104.138C296.659 104.14 296.64 104.141 296.621 104.141H288.96C282.83 104.141 276.951 101.701 272.616 97.359C268.282 93.0166 265.847 87.1271 265.847 80.9861V32.9944C265.847 31.6146 266.394 30.2914 267.368 29.3157C268.342 28.3401 269.662 27.792 271.04 27.792H274.144C272.706 31.9949 292.225 33.7644 293.296 27.792H296.621C297.998 27.792 299.319 28.3401 300.293 29.3157C301.267 30.2914 301.814 31.6146 301.814 32.9944Z" fill="#262E33"/>
<path d="M279.079 22.8607C279.079 22.68 279.151 22.5067 279.278 22.3789C279.406 22.2511 279.579 22.1792 279.759 22.179H284.387C284.567 22.1795 284.74 22.2515 284.867 22.3793C284.994 22.5071 285.066 22.6803 285.066 22.8607C285.066 23.0412 284.994 23.2143 284.867 23.3421C284.74 23.4699 284.567 23.542 284.387 23.5425H279.759C279.579 23.5423 279.406 23.4704 279.278 23.3426C279.151 23.2148 279.079 23.0415 279.079 22.8607Z" fill="#3F3D56"/>
<path d="M298.211 112.505H268.945C266.675 112.503 264.498 111.598 262.892 109.99C261.287 108.381 260.384 106.2 260.381 103.926V57.8282C260.22 57.7126 260.089 57.5603 259.999 57.3839C259.909 57.2075 259.862 57.0121 259.862 56.8139V52.1778C259.862 51.9796 259.909 51.7842 259.999 51.6079C260.089 51.4315 260.22 51.2793 260.381 51.1637V49.9194C260.22 49.8039 260.089 49.6516 259.999 49.4752C259.909 49.2989 259.862 49.1035 259.862 48.9054V44.269C259.862 44.0708 259.909 43.8755 259.999 43.6991C260.089 43.5227 260.22 43.3705 260.381 43.2549V41.0061C260.183 40.8993 260.017 40.7405 259.902 40.5467C259.786 40.3529 259.726 40.1313 259.726 39.9057V35.2696C259.726 35.0439 259.786 34.8223 259.901 34.6284C260.017 34.4346 260.183 34.2758 260.381 34.1689V28.0067C260.384 25.7321 261.287 23.5513 262.892 21.9429C264.498 20.3345 266.675 19.4298 268.945 19.4272H298.211C300.481 19.4298 302.658 20.3345 304.264 21.943C305.869 23.5514 306.772 25.7321 306.775 28.0068V41.439C306.929 41.5357 307.056 41.67 307.144 41.8294C307.233 41.9888 307.279 42.1681 307.279 42.3503V51.1905C307.279 51.3727 307.233 51.552 307.144 51.7115C307.056 51.8709 306.929 52.0053 306.775 52.102V103.926C306.772 106.2 305.869 108.381 304.264 109.99C302.658 111.598 300.481 112.503 298.211 112.505ZM268.945 20.5677C266.977 20.5699 265.089 21.3544 263.697 22.749C262.305 24.1436 261.522 26.0345 261.519 28.0068V35.139L260.972 35.1602C260.943 35.1612 260.916 35.1731 260.896 35.1935C260.876 35.2138 260.865 35.2411 260.865 35.2696V39.9057C260.865 39.9342 260.877 39.9614 260.897 39.9817C260.916 40.0021 260.943 40.014 260.972 40.0151L261.519 40.036V44.0557L261.086 44.1626C261.062 44.1684 261.041 44.182 261.026 44.2012C261.01 44.2204 261.001 44.2443 261.001 44.269V48.9054C261.001 48.9301 261.01 48.9539 261.026 48.9731C261.041 48.9924 261.062 49.0059 261.086 49.0117L261.519 49.1186V51.9645L261.086 52.0714C261.062 52.0772 261.041 52.0907 261.026 52.11C261.01 52.1292 261.001 52.153 261.001 52.1777V56.8139C261.001 56.8386 261.01 56.8625 261.025 56.8818C261.041 56.9011 261.062 56.9147 261.086 56.9205L261.519 57.0274V103.926C261.522 105.898 262.305 107.789 263.697 109.184C265.089 110.578 266.977 111.363 268.945 111.365H298.211C300.18 111.363 302.067 110.578 303.459 109.184C304.851 107.789 305.634 105.898 305.637 103.926V51.1256H306.141V42.4155H305.637V28.0067C305.634 26.0345 304.851 24.1436 303.459 22.749C302.067 21.3544 300.18 20.5699 298.211 20.5677L268.945 20.5677Z" fill="#3F3D56"/>
<path d="M286.973 23.5425C287.349 23.5425 287.654 23.2373 287.654 22.8607C287.654 22.4842 287.349 22.179 286.973 22.179C286.597 22.179 286.293 22.4842 286.293 22.8607C286.293 23.2373 286.597 23.5425 286.973 23.5425Z" fill="#3F3D56"/>
<path d="M138.929 154.931H62.778C61.6965 154.929 60.6602 154.497 59.8955 153.731C59.1307 152.965 58.6998 151.927 58.6969 150.844V113.671C58.6997 112.588 59.1305 111.55 59.8951 110.784C60.6597 110.017 61.696 109.586 62.7774 109.583H138.928C140.009 109.586 141.046 110.017 141.811 110.783C142.575 111.549 143.006 112.587 143.009 113.671V150.843C143.006 151.926 142.576 152.965 141.811 153.731C141.046 154.497 140.01 154.928 138.929 154.931Z" fill="white"/>
<path d="M138.929 154.931H62.778C61.6965 154.929 60.6602 154.497 59.8955 153.731C59.1307 152.965 58.6998 151.927 58.6969 150.844V113.671C58.6997 112.588 59.1305 111.55 59.8951 110.784C60.6597 110.017 61.696 109.586 62.7774 109.583H138.928C140.009 109.586 141.046 110.017 141.811 110.783C142.575 111.549 143.006 112.587 143.009 113.671V150.843C143.006 151.926 142.576 152.965 141.811 153.731C141.046 154.497 140.01 154.928 138.929 154.931ZM62.778 110.723C61.9981 110.726 61.2509 111.037 60.6995 111.589C60.1481 112.142 59.8374 112.891 59.8353 113.672V150.843C59.8375 151.624 60.1484 152.373 60.6999 152.925C61.2514 153.478 61.9987 153.789 62.7785 153.791H138.927C139.707 153.789 140.455 153.477 141.006 152.925C141.558 152.372 141.869 151.624 141.871 150.842V113.671C141.868 112.89 141.558 112.141 141.006 111.589C140.455 111.037 139.707 110.725 138.927 110.723L62.778 110.723Z" fill="#3F3D56"/>
<path d="M104.935 149.438C89.916 149.438 74.2558 149.294 68.4128 149.201C67.644 149.185 66.9119 148.869 66.3728 148.32C65.8336 147.77 65.5302 147.032 65.5272 146.262V115.491C65.5275 115.215 65.6369 114.951 65.8313 114.756C66.0258 114.56 66.2895 114.45 66.5649 114.449H135.139C135.414 114.45 135.678 114.559 135.873 114.754C136.068 114.949 136.178 115.213 136.179 115.489V136.366C136.166 139.773 134.82 143.041 132.431 145.466C130.041 147.891 126.798 149.282 123.397 149.339C117.951 149.41 111.502 149.438 104.935 149.438Z" fill="#262E33"/>
<path d="M131.068 134.447H69.1064C68.5875 134.446 68.0817 134.284 67.6577 133.985C67.2336 133.686 66.9119 133.263 66.7362 132.773L59.723 113.063C59.5879 112.683 59.5457 112.276 59.6002 111.876C59.6546 111.476 59.8041 111.095 60.0359 110.765C60.2678 110.435 60.5753 110.166 60.9327 109.979C61.29 109.793 61.6867 109.695 62.0896 109.695L139.541 109.587C139.909 109.586 140.273 109.667 140.607 109.823C140.94 109.978 141.236 110.205 141.472 110.488C141.709 110.771 141.881 111.102 141.976 111.458C142.071 111.815 142.087 112.187 142.022 112.551L142.082 112.576L141.86 113.096L141.857 113.101L133.379 132.919C133.186 133.373 132.864 133.76 132.453 134.031C132.042 134.303 131.561 134.448 131.068 134.447ZM139.544 110.727L62.0918 110.835C61.8711 110.836 61.6538 110.889 61.458 110.991C61.2622 111.093 61.0937 111.241 60.9667 111.421C60.8397 111.602 60.7578 111.811 60.728 112.03C60.6981 112.249 60.7212 112.472 60.7952 112.68L67.8081 132.39C67.9045 132.658 68.0809 132.889 68.3133 133.054C68.5457 133.218 68.8229 133.306 69.1072 133.307H131.068C131.338 133.307 131.601 133.228 131.826 133.079C132.051 132.93 132.227 132.719 132.333 132.471L140.811 112.652C140.901 112.442 140.938 112.213 140.917 111.985C140.897 111.757 140.821 111.538 140.695 111.348C140.57 111.157 140.399 111 140.198 110.892C139.997 110.784 139.773 110.727 139.544 110.727Z" fill="#3F3D56"/>
<path d="M100.737 138.738C103.417 138.738 105.589 136.562 105.589 133.877C105.589 131.193 103.417 129.017 100.737 129.017C98.0579 129.017 95.8857 131.193 95.8857 133.877C95.8857 136.562 98.0579 138.738 100.737 138.738Z" fill="white"/>
<path d="M284.018 96.5415C286.697 96.5415 288.869 94.3653 288.869 91.6809C288.869 88.9965 286.697 86.8203 284.018 86.8203C281.338 86.8203 279.166 88.9965 279.166 91.6809C279.166 94.3653 281.338 96.5415 284.018 96.5415Z" fill="white"/>
<path d="M467.523 162.183L454.562 149.365C453.931 148.736 453.183 148.238 452.359 147.899C451.536 147.561 450.654 147.388 449.764 147.392H449.719C448.822 147.394 447.934 147.575 447.108 147.923C446.281 148.272 445.532 148.781 444.903 149.422C442.005 152.36 440.357 156.309 440.305 160.439C440.253 164.569 441.801 168.559 444.624 171.569C444.761 171.717 444.903 171.86 445.045 172.003C445.834 172.787 446.704 173.485 447.641 174.084C450.203 175.742 453.191 176.62 456.241 176.61H456.338C458.432 176.603 460.504 176.18 462.433 175.365C464.363 174.551 466.112 173.362 467.58 171.866C468.852 170.573 469.56 168.828 469.549 167.013C469.539 165.198 468.81 163.461 467.523 162.183ZM466.772 171.062C464.365 173.49 461.197 175.013 457.8 175.375C454.404 175.736 450.987 174.914 448.125 173.046C447.306 172.503 446.542 171.883 445.842 171.193C443.05 168.43 441.467 164.668 441.442 160.736C441.418 156.804 442.954 153.024 445.711 150.226C446.236 149.69 446.861 149.265 447.551 148.974C448.241 148.684 448.981 148.533 449.73 148.532H449.764C450.505 148.53 451.239 148.673 451.925 148.955C452.611 149.237 453.234 149.651 453.76 150.174L466.72 162.999C467.793 164.062 468.401 165.508 468.411 167.02C468.42 168.531 467.831 169.985 466.772 171.062Z" fill="#3F3D56"/>
<path d="M424.998 120.112L412.038 107.288C410.762 106.02 409.037 105.31 407.24 105.315H407.2C406.302 105.318 405.414 105.5 404.586 105.849C403.759 106.199 403.008 106.709 402.379 107.35C399.983 109.788 398.43 112.93 397.946 116.316C397.463 119.703 398.075 123.155 399.692 126.168L399.698 126.173C400.365 127.406 401.194 128.543 402.162 129.555C402.271 129.68 402.396 129.806 402.521 129.931C405.497 132.891 409.524 134.548 413.717 134.539H413.82C415.914 134.53 417.985 134.106 419.915 133.29C421.844 132.475 423.593 131.285 425.061 129.789C425.691 129.149 426.19 128.392 426.528 127.559C426.865 126.727 427.036 125.836 427.031 124.937C427.025 124.039 426.842 123.15 426.494 122.322C426.145 121.494 425.637 120.743 424.998 120.112ZM424.247 128.99C422.885 130.379 421.261 131.483 419.471 132.24C417.68 132.996 415.757 133.39 413.814 133.398H413.717C410.798 133.397 407.945 132.531 405.517 130.91C403.088 129.289 401.192 126.984 400.067 124.286C398.942 121.588 398.639 118.617 399.195 115.747C399.751 112.876 401.142 110.235 403.193 108.154C404.254 107.08 405.697 106.471 407.206 106.461C408.715 106.451 410.166 107.042 411.241 108.103L424.202 120.922C425.274 121.987 425.881 123.434 425.889 124.947C425.898 126.459 425.307 127.913 424.247 128.99Z" fill="#3F3D56"/>
<path d="M468.351 166.213L454.063 152.075C453.126 151.15 451.861 150.635 450.545 150.644C449.23 150.652 447.971 151.182 447.046 152.119C445.888 153.291 444.973 154.679 444.351 156.206C443.729 157.732 443.414 159.367 443.424 161.015C443.433 162.664 443.766 164.294 444.405 165.814C445.044 167.333 445.975 168.711 447.146 169.87C448.317 171.028 449.704 171.944 451.229 172.565C452.753 173.186 454.385 173.5 456.03 173.489C457.676 173.478 459.303 173.142 460.819 172.5C462.335 171.859 463.71 170.924 464.865 169.75L468.351 166.213Z" fill="#262E33"/>
<path d="M425.829 124.14L411.541 110.002C410.604 109.077 409.339 108.562 408.024 108.57C406.708 108.578 405.45 109.109 404.524 110.046C403.367 111.217 402.451 112.606 401.829 114.132C401.208 115.659 400.892 117.293 400.902 118.942C400.911 120.59 401.245 122.221 401.883 123.74C402.522 125.259 403.454 126.638 404.624 127.796C405.795 128.955 407.182 129.871 408.707 130.492C410.231 131.113 411.863 131.427 413.508 131.415C415.154 131.404 416.781 131.068 418.297 130.427C419.813 129.785 421.188 128.85 422.343 127.676L425.829 124.14Z" fill="#262E33"/>
<path d="M452.65 175.019L452.308 175.92C450.703 175.31 449.147 174.698 447.641 174.084C420.957 163.175 408.219 150.408 399.698 126.173L399.692 126.168C399.288 125.027 398.895 123.86 398.514 122.667L399.413 122.376C399.714 123.524 400.154 124.631 400.722 125.672C401.189 127 401.669 128.295 402.163 129.555C410.171 150.009 421.982 161.698 444.624 171.569C445.763 172.065 446.93 172.557 448.125 173.046C449.513 173.952 451.042 174.619 452.65 175.019Z" fill="#3F3D56"/>
<path d="M411.801 133.501L411 134.312L440.563 163.564L441.363 162.752L411.801 133.501Z" fill="#3F3D56"/>
<path d="M161.517 109.263L161.532 90.5242L150.537 91.5085L154.417 103.327L140.331 124.719C139.45 124.917 138.646 125.367 138.016 126.015C137.387 126.663 136.959 127.481 136.785 128.368C136.611 129.256 136.699 130.175 137.037 131.013C137.376 131.851 137.95 132.573 138.691 133.09C139.432 133.607 140.307 133.897 141.209 133.924C142.111 133.951 143.002 133.715 143.773 133.244C144.543 132.773 145.16 132.088 145.549 131.271C145.937 130.455 146.08 129.543 145.96 128.647L161.517 109.263Z" fill="#FFB6B6"/>
</g>
<defs>
<clipPath id="clip0_43_101">
<rect width="509" height="255.621" fill="white" transform="translate(0 0.741455)"/>
</clipPath>
</defs>
</svg>
