<svg width="591" height="412" viewBox="0 0 591 412" fill="none" xmlns="http://www.w3.org/2000/svg">
<g clip-path="url(#clip0_10_476)">
<path d="M103.405 93.2366H38.284C30.8996 93.2366 24.9101 99.2462 24.9101 106.655V278.335C24.9101 285.744 30.8996 291.754 38.284 291.754H103.405C110.789 291.754 116.778 285.744 116.778 278.335V106.644C116.778 99.2351 110.789 93.2255 103.405 93.2255V93.2366Z" fill="white"/>
<path d="M103.405 292.054H38.284C30.7335 292.054 24.6001 285.889 24.6001 278.324V106.644C24.6001 99.0685 30.7446 92.9145 38.284 92.9145H103.405C110.955 92.9145 117.088 99.0796 117.088 106.644V278.324C117.088 285.9 110.944 292.054 103.405 292.054ZM38.2951 93.5476C31.0989 93.5476 25.2422 99.424 25.2422 106.644V278.324C25.2422 285.544 31.0989 291.421 38.2951 291.421H103.416C110.612 291.421 116.468 285.544 116.468 278.324V106.644C116.468 99.424 110.612 93.5476 103.416 93.5476H38.2951Z" fill="#3F3D56"/>
<path d="M19.5406 122.951C18.9649 122.951 18.4999 123.418 18.4999 123.996V132.316C18.4999 132.893 18.9649 133.36 19.5406 133.36C20.1163 133.36 20.5813 132.893 20.5813 132.316V123.996C20.5813 123.418 20.1163 122.951 19.5406 122.951Z" fill="#3F3D56"/>
<path d="M108.121 120.696H81.9486C80.8415 120.696 79.9337 119.786 79.9337 118.675C79.9337 117.564 80.8415 116.653 81.9486 116.653H108.121C109.228 116.653 110.136 117.564 110.136 118.675C110.136 119.786 109.228 120.696 108.121 120.696Z" fill="#E6E6E6"/>
<path d="M83.565 136.581H58.1235C57.4814 136.581 56.9611 136.059 56.9611 135.415C56.9611 134.771 57.4814 134.249 58.1235 134.249H83.565C84.2072 134.249 84.7275 134.771 84.7275 135.415C84.7275 136.059 84.2072 136.581 83.565 136.581Z" fill="#3A3A3A"/>
<path d="M20.548 142.347C31.8964 142.347 41.0961 133.31 41.0961 122.163C41.0961 111.016 31.8964 101.979 20.548 101.979C9.19967 101.979 0 111.016 0 122.163C0 133.31 9.19967 142.347 20.548 142.347Z" fill="#3A3A3A"/>
<path d="M27.5229 111.987C24.7883 116.986 22.0537 121.985 19.3192 126.984C17.581 123.896 15.8428 120.796 14.0936 117.708C13.4847 116.642 11.8461 117.597 12.4551 118.675C14.4811 122.252 16.485 125.851 18.511 129.428C18.8542 130.039 19.8063 130.05 20.1495 129.428C23.1498 123.94 26.1611 118.453 29.1614 112.954C29.7482 111.876 28.1097 110.91 27.5229 111.987Z" fill="white"/>
<path d="M47.617 97.5688H33.0916C33.0366 97.5688 32.992 97.6136 32.992 97.6688V99.3573C32.992 99.4125 33.0366 99.4573 33.0916 99.4573H47.617C47.672 99.4573 47.7166 99.4125 47.7166 99.3573V97.6688C47.7166 97.6136 47.672 97.5688 47.617 97.5688Z" fill="#E6E6E6"/>
<path d="M96.5404 99.4573C97.372 99.4573 98.0461 98.7809 98.0461 97.9466C98.0461 97.1122 97.372 96.4358 96.5404 96.4358C95.7088 96.4358 95.0347 97.1122 95.0347 97.9466C95.0347 98.7809 95.7088 99.4573 96.5404 99.4573Z" fill="#E6E6E6"/>
<path d="M100.692 99.4573C101.524 99.4573 102.198 98.7809 102.198 97.9466C102.198 97.1122 101.524 96.4358 100.692 96.4358C99.8605 96.4358 99.1864 97.1122 99.1864 97.9466C99.1864 98.7809 99.8605 99.4573 100.692 99.4573Z" fill="#E6E6E6"/>
<path d="M104.844 99.4573C105.675 99.4573 106.349 98.7809 106.349 97.9466C106.349 97.1122 105.675 96.4358 104.844 96.4358C104.012 96.4358 103.338 97.1122 103.338 97.9466C103.338 98.7809 104.012 99.4573 104.844 99.4573Z" fill="#E6E6E6"/>
<path d="M38.129 142.835C38.129 143.046 38.2951 143.213 38.5054 143.213H103.183C103.393 143.213 103.56 143.046 103.56 142.835C103.56 142.624 103.393 142.458 103.183 142.458H38.5054C38.2951 142.458 38.129 142.624 38.129 142.835Z" fill="#3F3D56"/>
<path d="M96.9832 172.539H58.1678C57.5257 172.539 57.0053 172.017 57.0053 171.373C57.0053 170.728 57.5257 170.206 58.1678 170.206H96.9832C97.6253 170.206 98.1457 170.728 98.1457 171.373C98.1457 172.017 97.6253 172.539 96.9832 172.539Z" fill="#898989"/>
<path d="M96.9832 189.379H58.1678C57.5257 189.379 57.0053 188.857 57.0053 188.213C57.0053 187.569 57.5257 187.047 58.1678 187.047H96.9832C97.6253 187.047 98.1457 187.569 98.1457 188.213C98.1457 188.857 97.6253 189.379 96.9832 189.379Z" fill="#898989"/>
<path d="M96.9832 206.22H58.1678C57.5257 206.22 57.0053 205.698 57.0053 205.053C57.0053 204.409 57.5257 203.887 58.1678 203.887H96.9832C97.6253 203.887 98.1457 204.409 98.1457 205.053C98.1457 205.698 97.6253 206.22 96.9832 206.22Z" fill="#898989"/>
<path d="M46.3992 174.083C47.9706 174.083 49.2445 172.805 49.2445 171.228C49.2445 169.652 47.9706 168.374 46.3992 168.374C44.8278 168.374 43.5539 169.652 43.5539 171.228C43.5539 172.805 44.8278 174.083 46.3992 174.083Z" fill="#3A3A3A"/>
<path d="M46.0781 175.994V175.361C48.4363 175.361 50.3516 173.439 50.3516 171.073C50.3516 168.707 48.4363 166.785 46.0781 166.785V166.152C48.7795 166.152 50.9826 168.362 50.9826 171.073C50.9826 173.783 48.7795 175.994 46.0781 175.994Z" fill="#3F3D56"/>
<path d="M46.3992 190.923C47.9706 190.923 49.2445 189.645 49.2445 188.069C49.2445 186.492 47.9706 185.214 46.3992 185.214C44.8278 185.214 43.5539 186.492 43.5539 188.069C43.5539 189.645 44.8278 190.923 46.3992 190.923Z" fill="#3A3A3A"/>
<path d="M46.0781 192.834V192.201C48.4363 192.201 50.3516 190.279 50.3516 187.913C50.3516 185.547 48.4363 183.625 46.0781 183.625V182.992C48.7795 182.992 50.9826 185.203 50.9826 187.913C50.9826 190.624 48.7795 192.834 46.0781 192.834Z" fill="#3F3D56"/>
<path d="M46.3992 207.764C47.9706 207.764 49.2445 206.486 49.2445 204.909C49.2445 203.332 47.9706 202.054 46.3992 202.054C44.8278 202.054 43.5539 203.332 43.5539 204.909C43.5539 206.486 44.8278 207.764 46.3992 207.764Z" fill="#3A3A3A"/>
<path d="M46.7977 209.674V209.041C48.8127 209.041 50.4512 207.119 50.4512 204.753C50.4512 202.387 48.8127 200.466 46.7977 200.466V199.832C49.1116 199.832 50.9826 202.043 50.9826 204.753C50.9826 207.464 49.1005 209.674 46.7977 209.674Z" fill="#3F3D56"/>
<path d="M13.4847 393.351H590.446" stroke="#1A2E35" stroke-linecap="round" stroke-linejoin="round"/>
<path d="M417.438 100.824H127.13C127.54 98.4909 128.337 96.2803 129.455 94.2808C133.031 87.8935 139.851 83.5612 147.656 83.5612H396.901C404.706 83.5612 411.526 87.8935 415.102 94.2808C416.22 96.2803 417.028 98.4909 417.438 100.824Z" fill="#F0F0F0"/>
<path d="M473.912 303.173C473.912 303.495 473.657 303.751 473.336 303.751H354.044C353.723 303.751 353.469 303.495 353.469 303.173C353.469 303.018 353.524 302.885 353.624 302.785H396.901C397.82 302.785 398.727 302.718 399.613 302.596H473.336C473.657 302.596 473.912 302.851 473.912 303.173Z" fill="#403D56"/>
<path d="M340.139 185.769H204.429C203.167 185.769 202.137 184.469 202.137 182.87C202.137 181.27 203.167 179.971 204.429 179.971H340.139C341.401 179.971 342.431 181.27 342.431 182.87C342.431 184.469 341.401 185.769 340.139 185.769Z" fill="#E4E4E4"/>
<path d="M417.438 100.824C417.028 98.4909 416.22 96.2803 415.102 94.2808C411.537 87.8935 404.706 83.5612 396.901 83.5612H147.656C139.851 83.5612 133.031 87.8935 129.455 94.2808C128.337 96.2803 127.54 98.4909 127.13 100.824C126.92 102.012 126.809 103.234 126.809 104.489V282.823C126.809 294.364 136.164 303.751 147.667 303.751H396.912C399.292 303.751 401.595 303.34 403.732 302.596C411.891 299.763 417.77 291.965 417.77 282.823V104.5C417.77 103.256 417.659 102.023 417.449 100.835L417.438 100.824ZM416.796 282.823C416.796 292.92 409.322 301.274 399.613 302.596C398.727 302.718 397.82 302.785 396.901 302.785H177.282C149.937 302.785 127.772 280.535 127.772 253.097V104.5C127.772 103.245 127.883 102.023 128.115 100.835C128.547 98.4798 129.389 96.2803 130.573 94.2919C134.038 88.46 140.404 84.5388 147.667 84.5388H396.912C404.174 84.5388 410.54 88.4489 414.006 94.2919C415.19 96.2803 416.032 98.4798 416.463 100.835C416.685 102.023 416.807 103.245 416.807 104.5V282.834L416.796 282.823Z" fill="#686868"/>
<path d="M269.693 232.957H237.055C235.063 232.957 233.446 231.336 233.446 229.336V226.059C233.446 224.06 235.063 222.438 237.055 222.438H269.693C271.686 222.438 273.302 224.06 273.302 226.059V229.336C273.302 231.336 271.686 232.957 269.693 232.957Z" fill="#424242"/>
<path d="M395.118 125.928H362.48C360.488 125.928 358.871 124.307 358.871 122.307V119.03C358.871 117.031 360.488 115.409 362.48 115.409H395.118C397.111 115.409 398.727 117.031 398.727 119.03V122.307C398.727 124.307 397.111 125.928 395.118 125.928Z" fill="#3D3D3D"/>
<path d="M318.118 233.202H285.481C283.355 233.202 281.628 231.469 281.628 229.336V226.059C281.628 223.926 283.355 222.193 285.481 222.193H318.118C320.244 222.193 321.971 223.926 321.971 226.059V229.336C321.971 231.469 320.244 233.202 318.118 233.202ZM285.481 223.16C283.886 223.16 282.591 224.46 282.591 226.059V229.336C282.591 230.936 283.886 232.235 285.481 232.235H318.118C319.713 232.235 321.008 230.936 321.008 229.336V226.059C321.008 224.46 319.713 223.16 318.118 223.16H285.481Z" fill="#333333"/>
<path d="M358.152 170.762H186.416C184.822 170.762 183.526 169.462 183.526 167.863C183.526 166.263 184.822 164.963 186.416 164.963H358.152C359.746 164.963 361.041 166.263 361.041 167.863C361.041 169.462 359.746 170.762 358.152 170.762Z" fill="#E4E4E4"/>
<path d="M175.478 123.573H153.767C152.173 123.573 150.878 122.274 150.878 120.674C150.878 119.075 152.173 117.775 153.767 117.775H175.478C177.072 117.775 178.367 119.075 178.367 120.674C178.367 122.274 177.072 123.573 175.478 123.573Z" fill="#E4E4E4"/>
<path d="M305.243 123.573H283.532C281.938 123.573 280.643 122.274 280.643 120.674C280.643 119.075 281.938 117.775 283.532 117.775H305.243C306.837 117.775 308.132 119.075 308.132 120.674C308.132 122.274 306.837 123.573 305.243 123.573Z" fill="#E4E4E4"/>
<path d="M346.25 123.573H324.54C322.945 123.573 321.65 122.274 321.65 120.674C321.65 119.075 322.945 117.775 324.54 117.775H346.25C347.844 117.775 349.14 119.075 349.14 120.674C349.14 122.274 347.844 123.573 346.25 123.573Z" fill="#E4E4E4"/>
<path d="M320.034 200.777H224.523C222.929 200.777 221.633 199.477 221.633 197.877C221.633 196.278 222.929 194.978 224.523 194.978H320.034C321.628 194.978 322.923 196.278 322.923 197.877C322.923 199.477 321.628 200.777 320.034 200.777Z" fill="#E4E4E4"/>
<path d="M324.196 264.305H220.36C219.397 264.305 218.611 263.517 218.611 262.55C218.611 261.584 219.397 260.795 220.36 260.795H324.196C325.16 260.795 325.946 261.584 325.946 262.55C325.946 263.517 325.16 264.305 324.196 264.305Z" fill="#E4E4E4"/>
<path d="M325.171 93.9253H221.334C220.371 93.9253 219.585 93.1366 219.585 92.1702C219.585 91.2038 220.371 90.4151 221.334 90.4151H325.171C326.134 90.4151 326.92 91.2038 326.92 92.1702C326.92 93.1366 326.134 93.9253 325.171 93.9253Z" fill="white"/>
<path d="M364.196 162.786C358.417 163.286 351.066 156.343 351.066 156.343C351.066 156.343 349.937 157.432 349.007 156.077C348.066 154.721 343.992 151.567 343.759 148.845C343.527 146.123 348.343 141.702 348.343 141.702C344.623 142.724 344.235 140.536 344.235 140.536C344.235 140.536 350.479 135.359 352.66 135.215C353.513 135.159 357.244 137.315 360.831 140.214C364.595 143.257 371.647 153.966 371.647 153.966C371.647 153.966 395.539 171.395 401.573 175.861C409.544 181.748 418.988 192.19 418.988 192.19C418.988 192.19 450.717 206.553 459.408 214.451L447.584 242.599C447.584 242.599 418.755 223.193 415.866 218.261C412.987 213.34 410.097 216.295 407.219 213.085C404.34 209.863 401.573 206.186 401.573 206.186C401.573 206.186 394.598 203.12 387.855 196.167C381.113 189.213 375.179 178.582 371.448 172.206C367.717 165.83 364.185 162.797 364.185 162.797L364.196 162.786Z" fill="white" stroke="#1A2E35" stroke-linecap="round" stroke-linejoin="round"/>
<path d="M365.957 158.687C365.957 158.687 357.354 156.599 356.613 150.889C356.369 149.034 354.764 146.901 354.764 146.901C354.764 146.901 346.737 146.501 347.247 143.213L357.952 142.258C357.952 142.258 363.82 144.191 367.285 150.145" fill="white"/>
<path d="M365.957 158.687C365.957 158.687 357.354 156.599 356.613 150.889C356.369 149.034 354.764 146.901 354.764 146.901C354.764 146.901 346.737 146.501 347.247 143.213L357.952 142.258C357.952 142.258 363.82 144.191 367.285 150.145" stroke="#1A2E35" stroke-linecap="round" stroke-linejoin="round"/>
<path d="M351.066 156.343C351.066 156.343 351.609 155.588 351.431 154.01C351.431 154.01 353.79 153.577 353.535 151.478C353.535 151.478 357.033 151.044 354.775 146.901" stroke="#1A2E35" stroke-linecap="round" stroke-linejoin="round"/>
<path d="M353.524 151.478C353.524 151.478 348.819 147.967 348.287 146.368" stroke="#1A2E35" stroke-linecap="round" stroke-linejoin="round"/>
<path d="M351.42 154.01C351.42 154.01 346.405 150.944 346.317 149.145" stroke="#1A2E35" stroke-linecap="round" stroke-linejoin="round"/>
<path d="M352.572 138.225C352.572 138.225 350.978 141.102 348.343 141.713" stroke="#1A2E35" stroke-linecap="round" stroke-linejoin="round"/>
<path d="M351.775 139.347C351.775 139.347 353.048 139.992 354.133 140.914" stroke="#1A2E35" stroke-linecap="round" stroke-linejoin="round"/>
<path d="M535.002 236.634C535.002 236.634 516.048 228.347 496.851 223.826C477.643 219.305 446.61 215.284 446.61 215.284C446.61 215.284 455.157 302.94 452.91 308.205C450.662 313.482 437.144 331.189 437.144 331.189C437.144 331.189 510.269 359.837 523.023 362.27C535.766 364.714 529.123 320.258 529.123 320.258C529.123 320.258 542.519 263.75 535.024 236.634H535.002Z" fill="#232323"/>
<path d="M508.764 227.214C508.764 227.214 510.502 230.547 505.929 232.235C494.094 236.634 481.473 232.746 482.824 228.092C483.333 226.315 486.267 228.092 486.079 221.449C486.057 220.594 485.747 219.594 485.282 218.528C484.562 216.884 483.422 215.084 482.27 213.462C480.266 210.652 478.218 208.375 478.218 208.375C478.218 208.375 497.006 196.322 510.945 208.375C510.945 208.375 505.763 211.007 508.764 227.214Z" fill="white" stroke="#1A2E35" stroke-linecap="round" stroke-linejoin="round"/>
<path d="M532.046 383.331C524.64 395.45 487.097 401.138 466.594 400.594C446.112 400.071 387.114 372.001 383.117 366.058C379.408 360.559 370.308 342.364 384.346 331.366C385.464 330.5 386.704 329.678 388.132 328.911C397.742 323.679 461.656 340.175 461.656 340.175C461.656 340.175 465.608 337.665 467.07 337.842C471.531 338.409 474.687 342.041 483.732 344.619C490.042 346.429 507.258 339.464 518.251 345.452C519.458 346.096 520.565 346.907 521.595 347.896C531.869 357.76 539.453 371.212 532.057 383.331H532.046Z" fill="#EAEAEA"/>
<mask id="mask0_10_476" style="mask-type:luminance" maskUnits="userSpaceOnUse" x="376" y="327" width="160" height="74">
<path d="M532.046 383.331C524.64 395.45 487.097 401.138 466.594 400.594C446.112 400.071 387.114 372.001 383.117 366.058C379.408 360.559 370.308 342.364 384.346 331.366C385.464 330.5 386.704 329.678 388.132 328.911C397.742 323.679 461.656 340.175 461.656 340.175C461.656 340.175 465.608 337.665 467.07 337.842C471.531 338.409 474.687 342.041 483.732 344.619C490.042 346.429 507.258 339.464 518.251 345.452C519.458 346.096 520.565 346.907 521.595 347.896C531.869 357.76 539.453 371.212 532.057 383.331H532.046Z" fill="white"/>
</mask>
<g mask="url(#mask0_10_476)">
<path opacity="0.3" d="M518.24 345.463C506.97 344.707 496.917 347.073 489.909 351.239C481.595 356.182 442.303 375.2 442.303 375.2C442.392 373.156 444.573 369.035 444.573 369.035C440.875 365.724 431.21 363.158 431.21 363.158C423.726 356.738 394.011 337.565 384.346 331.377C385.464 330.511 386.704 329.689 388.132 328.922C397.742 323.69 461.656 340.186 461.656 340.186C461.656 340.186 465.608 337.676 467.07 337.854C471.531 338.42 474.687 342.053 483.732 344.63C490.042 346.44 507.258 339.475 518.252 345.463H518.24Z" fill="black"/>
</g>
<path d="M532.046 383.331C524.64 395.45 487.097 401.138 466.594 400.594C446.112 400.071 387.114 372.001 383.117 366.058C379.408 360.559 370.308 342.364 384.346 331.366C385.464 330.5 386.704 329.678 388.132 328.911C397.742 323.679 461.656 340.175 461.656 340.175C461.656 340.175 465.608 337.665 467.07 337.842C471.531 338.409 474.687 342.041 483.732 344.619C490.042 346.429 507.258 339.464 518.251 345.452C519.458 346.096 520.565 346.907 521.595 347.896C531.869 357.76 539.453 371.212 532.057 383.331H532.046Z" stroke="#1A2E35" stroke-linecap="round" stroke-linejoin="round"/>
<path d="M520.521 394.262L521.462 398.405C521.462 398.405 518.949 405.57 507.889 406.748C496.829 407.914 490.286 410.38 484.983 410.702C479.669 411.024 476.58 410.569 476.58 410.569L475.495 408.936L520.521 394.273V394.262Z" fill="white" stroke="#1A2E35" stroke-linecap="round" stroke-linejoin="round"/>
<path d="M456.342 393.829L475.495 408.925C475.495 408.925 490.341 407.747 502.951 404.804C512.029 402.682 519.945 399.66 520.388 395.506C521.052 389.196 514.343 387.475 506.372 387.719C504.878 387.752 503.35 387.863 501.811 388.03C489.046 389.407 472.827 382.32 472.827 382.32L456.342 393.817V393.829Z" fill="#1A2E35"/>
<mask id="mask1_10_476" style="mask-type:luminance" maskUnits="userSpaceOnUse" x="456" y="382" width="65" height="27">
<path d="M456.342 393.829L475.495 408.925C475.495 408.925 490.341 407.747 502.951 404.804C512.029 402.682 519.945 399.66 520.388 395.506C521.052 389.196 514.343 387.475 506.372 387.719C504.878 387.752 503.35 387.863 501.811 388.03C489.046 389.407 472.827 382.32 472.827 382.32L456.342 393.817V393.829Z" fill="white"/>
</mask>
<g mask="url(#mask1_10_476)">
<path opacity="0.3" d="M520.399 395.373C516.956 396.739 512.683 398.627 509.749 400.638C509.749 400.638 491.958 409.836 464.634 400.36L456.353 393.829L472.838 382.331C472.838 382.331 489.057 389.419 501.822 388.03C503.372 387.863 504.889 387.752 506.383 387.73C514.299 387.486 520.964 389.174 520.41 395.373H520.399Z" fill="black"/>
</g>
<path d="M456.342 393.829L475.495 408.925C475.495 408.925 490.341 407.747 502.951 404.804C512.029 402.682 519.945 399.66 520.388 395.506C521.052 389.196 514.343 387.475 506.372 387.719C504.878 387.752 503.35 387.863 501.811 388.03C489.046 389.407 472.827 382.32 472.827 382.32L456.342 393.817V393.829Z" stroke="#1A2E35" stroke-linecap="round" stroke-linejoin="round"/>
<path d="M474.199 399.783C470.745 400.349 474.543 407.447 479.226 405.292C483.909 403.137 477.654 399.216 474.199 399.783Z" fill="white"/>
<mask id="mask2_10_476" style="mask-type:luminance" maskUnits="userSpaceOnUse" x="472" y="399" width="9" height="7">
<path d="M474.199 399.783C470.745 400.349 474.543 407.447 479.226 405.292C483.909 403.137 477.654 399.216 474.199 399.783Z" fill="white"/>
</mask>
<g mask="url(#mask2_10_476)">
<path opacity="0.2" d="M480.676 404.137C478.318 403.848 475.838 403.426 473.236 402.837C472.572 401.449 472.727 400.016 474.188 399.783C477.089 399.305 481.96 401.993 480.665 404.148L480.676 404.137Z" fill="black"/>
</g>
<path d="M474.199 399.783C470.745 400.349 474.543 407.447 479.226 405.292C483.909 403.137 477.654 399.216 474.199 399.783Z" stroke="#1A2E35" stroke-linecap="round" stroke-linejoin="round"/>
<path d="M502.951 404.793C512.029 402.682 519.945 399.649 520.388 395.506C521.052 389.196 514.343 387.475 506.372 387.719C506.018 388.052 498.29 395.561 502.962 404.793H502.951Z" fill="white"/>
<mask id="mask3_10_476" style="mask-type:luminance" maskUnits="userSpaceOnUse" x="501" y="387" width="20" height="18">
<path d="M502.951 404.793C512.029 402.682 519.945 399.649 520.388 395.506C521.052 389.196 514.343 387.475 506.372 387.719C506.018 388.052 498.29 395.561 502.962 404.793H502.951Z" fill="white"/>
</mask>
<g mask="url(#mask3_10_476)">
<path opacity="0.3" d="M520.399 395.373C516.956 396.739 512.683 398.627 509.749 400.638C509.749 400.638 507.092 402.004 502.265 403.148C499.209 394.695 506.051 388.041 506.383 387.719C514.299 387.475 520.964 389.163 520.41 395.362L520.399 395.373Z" fill="black"/>
</g>
<path d="M502.951 404.793C512.029 402.682 519.945 399.649 520.388 395.506C521.052 389.196 514.343 387.475 506.372 387.719C506.018 388.052 498.29 395.561 502.962 404.793H502.951Z" stroke="#1A2E35" stroke-linecap="round" stroke-linejoin="round"/>
<path d="M496.486 396.961C496.486 396.961 496.519 396.961 496.541 396.961C497.061 396.983 497.504 396.583 497.537 396.061C497.726 392.085 500.77 388.852 500.803 388.819C501.169 388.441 501.158 387.841 500.77 387.475C500.394 387.108 499.796 387.119 499.431 387.497C499.287 387.652 495.866 391.263 495.644 395.961C495.622 396.472 495.998 396.906 496.486 396.95V396.961Z" fill="white" stroke="#1A2E35" stroke-linecap="round" stroke-linejoin="round"/>
<path d="M492.688 397.194C492.688 397.194 492.744 397.194 492.766 397.194C493.286 397.194 493.718 396.783 493.729 396.261C493.806 392.251 496.596 388.763 496.629 388.73C496.962 388.319 496.906 387.719 496.497 387.386C496.087 387.052 495.5 387.108 495.168 387.519C495.035 387.675 491.924 391.529 491.836 396.217C491.836 396.717 492.201 397.128 492.677 397.183L492.688 397.194Z" fill="white" stroke="#1A2E35" stroke-linecap="round" stroke-linejoin="round"/>
<path d="M488.149 396.717C488.149 396.717 488.149 396.717 488.16 396.717C488.68 396.761 489.145 396.372 489.19 395.85C489.478 392.518 492.312 388.252 492.334 388.208C492.622 387.775 492.511 387.175 492.079 386.886C491.647 386.586 491.061 386.708 490.762 387.141C490.629 387.33 487.64 391.851 487.297 395.684C487.252 396.206 487.629 396.661 488.138 396.717H488.149Z" fill="white" stroke="#1A2E35" stroke-linecap="round" stroke-linejoin="round"/>
<path d="M483.864 396.261C483.953 396.261 484.031 396.261 484.119 396.261C484.639 396.172 484.983 395.684 484.894 395.162C484.219 391.118 487.961 387.652 487.994 387.619C488.382 387.264 488.415 386.664 488.06 386.275C487.706 385.886 487.108 385.853 486.721 386.208C486.533 386.375 482.171 390.396 483.023 395.484C483.09 395.917 483.444 396.228 483.853 396.272L483.864 396.261Z" fill="white" stroke="#1A2E35" stroke-linecap="round" stroke-linejoin="round"/>
<path d="M479.215 395.128C479.314 395.128 479.425 395.128 479.525 395.106C480.034 394.984 480.355 394.473 480.233 393.962C479.414 390.352 482.946 386.286 482.979 386.242C483.322 385.853 483.289 385.242 482.901 384.897C482.514 384.553 481.916 384.586 481.562 384.975C481.385 385.175 477.344 389.818 478.384 394.384C478.473 394.795 478.816 395.073 479.204 395.117L479.215 395.128Z" fill="white" stroke="#1A2E35" stroke-linecap="round" stroke-linejoin="round"/>
<path d="M380.704 388.074L379.331 392.096C379.331 392.096 381.08 399.494 391.952 401.815C402.824 404.148 409.068 407.281 414.327 408.158C419.585 409.036 422.696 408.914 422.696 408.914L423.947 407.403L380.704 388.063V388.074Z" fill="white" stroke="#1A2E35" stroke-linecap="round" stroke-linejoin="round"/>
<path d="M444.573 394.406L423.947 407.403C423.947 407.403 409.3 404.659 397.067 400.405C388.265 397.339 380.704 393.495 380.704 389.319C380.704 382.976 387.557 381.965 395.461 383.053C396.945 383.242 398.451 383.52 399.967 383.842C412.511 386.553 429.383 381.221 429.383 381.221L444.573 394.395V394.406Z" fill="#1A2E35"/>
<mask id="mask4_10_476" style="mask-type:luminance" maskUnits="userSpaceOnUse" x="380" y="381" width="65" height="27">
<path d="M444.573 394.406L423.947 407.403C423.947 407.403 409.3 404.659 397.067 400.405C388.265 397.339 380.704 393.495 380.704 389.319C380.704 382.976 387.557 381.965 395.461 383.053C396.945 383.242 398.451 383.52 399.967 383.842C412.511 386.553 429.383 381.221 429.383 381.221L444.573 394.395V394.406Z" fill="white"/>
</mask>
<g mask="url(#mask4_10_476)">
<path opacity="0.3" d="M444.573 394.406L432.439 402.049C420.261 398.361 412.334 390.563 407.806 384.62C418.567 384.653 429.372 381.232 429.372 381.232L444.562 394.406H444.573Z" fill="black"/>
</g>
<path d="M444.573 394.406L423.947 407.403C423.947 407.403 409.3 404.659 397.067 400.405C388.265 397.339 380.704 393.495 380.704 389.319C380.704 382.976 387.557 381.965 395.461 383.053C396.945 383.242 398.451 383.52 399.967 383.842C412.511 386.553 429.383 381.221 429.383 381.221L444.573 394.395V394.406Z" stroke="#1A2E35" stroke-linecap="round" stroke-linejoin="round"/>
<path d="M397.078 400.405C388.276 397.35 380.715 393.506 380.715 389.33C380.715 382.987 387.568 381.976 395.472 383.065C395.782 383.431 402.68 391.718 397.089 400.405H397.078Z" fill="white" stroke="#1A2E35" stroke-linecap="round" stroke-linejoin="round"/>
<path d="M404.329 393.295C404.329 393.295 404.296 393.295 404.274 393.295C403.754 393.262 403.355 392.818 403.377 392.296C403.599 388.33 400.919 384.786 400.886 384.753C400.565 384.342 400.643 383.742 401.052 383.42C401.462 383.098 402.06 383.176 402.381 383.587C402.514 383.753 405.536 387.708 405.27 392.407C405.237 392.918 404.828 393.306 404.329 393.306V393.295Z" fill="white" stroke="#1A2E35" stroke-linecap="round" stroke-linejoin="round"/>
<path d="M408.071 393.917C408.071 393.917 408.016 393.917 407.994 393.917C407.474 393.873 407.086 393.406 407.13 392.884C407.474 388.885 405.06 385.131 405.027 385.086C404.739 384.642 404.861 384.053 405.304 383.764C405.747 383.476 406.322 383.598 406.61 384.031C406.721 384.209 409.411 388.363 409.012 393.029C408.968 393.529 408.559 393.895 408.071 393.895V393.917Z" fill="white" stroke="#1A2E35" stroke-linecap="round" stroke-linejoin="round"/>
<path d="M412.644 393.917H412.622C412.101 393.917 411.681 393.473 411.692 392.951C411.747 389.596 409.389 385.064 409.367 385.02C409.123 384.553 409.3 383.975 409.765 383.731C410.23 383.487 410.806 383.664 411.05 384.131C411.16 384.331 413.662 389.152 413.596 392.984C413.596 393.506 413.164 393.917 412.644 393.917Z" fill="white" stroke="#1A2E35" stroke-linecap="round" stroke-linejoin="round"/>
<path d="M416.95 393.917C416.862 393.917 416.784 393.917 416.696 393.884C416.187 393.74 415.899 393.218 416.032 392.707C417.128 388.752 413.773 384.92 413.729 384.875C413.386 384.486 413.419 383.887 413.806 383.531C414.194 383.176 414.792 383.209 415.146 383.598C415.312 383.787 419.231 388.241 417.858 393.207C417.737 393.629 417.36 393.906 416.95 393.906V393.917Z" fill="white" stroke="#1A2E35" stroke-linecap="round" stroke-linejoin="round"/>
<path d="M421.7 393.295C421.6 393.295 421.49 393.273 421.39 393.24C420.892 393.073 420.637 392.529 420.803 392.029C421.999 388.53 418.91 384.109 418.877 384.064C418.578 383.631 418.678 383.042 419.098 382.731C419.519 382.431 420.117 382.52 420.416 382.954C420.571 383.165 424.114 388.219 422.597 392.651C422.464 393.04 422.099 393.295 421.7 393.295Z" fill="white" stroke="#1A2E35" stroke-linecap="round" stroke-linejoin="round"/>
<path d="M426.195 398.45C429.572 399.372 425.055 406.037 420.626 403.393C416.198 400.749 422.818 397.517 426.195 398.45Z" fill="white" stroke="#1A2E35" stroke-linecap="round" stroke-linejoin="round"/>
<path d="M387.202 363.147C392.273 370.279 407.274 378.155 422.231 384.653C423.837 387.319 427.114 392.318 431.609 396.961C440.82 406.47 444.573 401.149 444.573 401.149C444.573 401.149 450.385 400.494 458.977 399.316C459.552 400.427 460.848 402.16 463.316 401.771C464.435 401.593 466.582 399.994 469.007 397.872C490.684 394.595 520.1 389.13 528.049 382.698" fill="#EAEAEA"/>
<path d="M387.202 363.147C392.273 370.279 407.274 378.155 422.231 384.653C423.837 387.319 427.114 392.318 431.609 396.961C440.82 406.47 444.573 401.149 444.573 401.149C444.573 401.149 450.385 400.494 458.977 399.316C459.552 400.427 460.848 402.16 463.316 401.771C464.435 401.593 466.582 399.994 469.007 397.872C490.684 394.595 520.1 389.13 528.049 382.698" stroke="#1A2E35" stroke-linecap="round" stroke-linejoin="round"/>
<path d="M519.547 349.584C515.794 345.441 512.052 345.252 504.18 345.818C504.18 345.818 483.643 352.361 469.317 361.07C454.991 369.779 434.078 378.932 434.078 378.932C434.078 378.932 427.701 377.077 423.272 378.932C423.272 378.932 420.161 379.177 422.242 384.642" stroke="#1A2E35" stroke-linecap="round" stroke-linejoin="round"/>
<path d="M529.112 374.333C529.112 374.333 529.223 380.71 520.211 385.131" stroke="#1A2E35" stroke-linecap="round" stroke-linejoin="round"/>
<path d="M429.76 347.707C429.76 347.707 443.986 358.037 446.82 364.847C446.82 364.847 452.29 367.18 454.902 369.035" stroke="#1A2E35" stroke-linecap="round" stroke-linejoin="round"/>
<path d="M447.85 356.293C448.802 359.259 449.168 362.481 448.348 365.525" stroke="#1A2E35" stroke-linecap="round" stroke-linejoin="round"/>
<path d="M444.573 349.584C445.348 350.706 446.023 351.917 446.61 353.15" stroke="#1A2E35" stroke-linecap="round" stroke-linejoin="round"/>
<path d="M464.811 348.651C464.811 348.651 469.572 355.038 470.756 360.226" stroke="#1A2E35" stroke-linecap="round" stroke-linejoin="round"/>
<path d="M491.304 387.264C493.076 387.152 494.836 386.952 496.574 386.608" stroke="#1A2E35" stroke-linecap="round" stroke-linejoin="round"/>
<path d="M446.688 382.687C459.663 385.175 473.878 387.086 487.573 387.408" stroke="#1A2E35" stroke-linecap="round" stroke-linejoin="round"/>
<path d="M542.885 285.822C542.885 285.822 540.316 330.8 537.294 333.432C534.271 336.065 529.489 336.82 520.444 337.576C511.398 338.331 471.409 340.797 471.409 340.797L467.136 327.889C467.136 327.889 488.404 325.723 497.836 322.235C507.269 318.747 519.558 316.459 519.558 316.459C519.558 316.459 517.775 305.128 517.775 300.263V277.324" fill="white"/>
<path d="M542.885 285.822C542.885 285.822 540.316 330.8 537.294 333.432C534.271 336.065 529.489 336.82 520.444 337.576C511.398 338.331 471.409 340.797 471.409 340.797L467.136 327.889C467.136 327.889 488.404 325.723 497.836 322.235C507.269 318.747 519.558 316.459 519.558 316.459C519.558 316.459 517.775 305.128 517.775 300.263V277.324" stroke="#1A2E35" stroke-linecap="round" stroke-linejoin="round"/>
<path d="M535.002 236.634C544.756 242.666 547.623 256.596 544.247 286.355C544.247 286.355 547.125 289.866 542.874 291.632C542.874 291.632 526.953 285.644 519.536 289.766C512.129 293.887 514.044 284.067 514.044 284.067C514.044 284.067 511 256.696 517.742 251.753" fill="#1A2E35"/>
<path d="M516.89 247.554C516.89 247.554 507.512 257.351 515.76 282.079C515.76 282.079 514.62 286.577 514.62 288.233C514.62 289.888 516.879 290.743 516.879 290.743" stroke="white" stroke-linecap="round" stroke-linejoin="round"/>
<path d="M505.929 264.127C505.929 264.127 506.616 276.18 514.067 281.456" stroke="white" stroke-linecap="round" stroke-linejoin="round"/>
<path d="M508.343 236.079C508.343 236.079 493.817 241.666 482.259 235.479C475.406 231.813 478.229 225.904 478.229 225.904" stroke="white" stroke-linecap="round" stroke-linejoin="round"/>
<path d="M403.864 349.606H482.946C484.728 349.606 486.51 349.373 488.238 348.918L503.837 344.807C504.28 344.685 504.59 344.285 504.59 343.83C504.59 343.274 504.136 342.819 503.582 342.819H400.598C400.045 342.819 399.591 343.274 399.591 343.83V345.307C399.591 347.684 401.506 349.606 403.864 349.606Z" fill="#757575" stroke="#1A2E35" stroke-linecap="round" stroke-linejoin="round"/>
<path d="M396.015 345.663H475.318C476.701 345.663 477.532 344.519 477.166 343.108L462.453 285.633C462.088 284.222 460.681 283.078 459.298 283.078H379.995C378.611 283.078 377.781 284.222 378.146 285.633L392.86 343.108C393.225 344.519 394.631 345.663 396.015 345.663Z" fill="#999999" stroke="#1A2E35" stroke-linecap="round" stroke-linejoin="round"/>
<path d="M382.796 285.111H381.29" stroke="#1A2E35" stroke-linecap="round" stroke-linejoin="round"/>
<path d="M394.421 285.111H386.671" stroke="#1A2E35" stroke-linecap="round" stroke-linejoin="round"/>
<path d="M473.413 338.398L460.427 287.677C460.062 286.266 458.655 285.122 457.272 285.122H396.17" stroke="#1A2E35" stroke-linecap="round" stroke-linejoin="round"/>
<path d="M474.543 342.819L474.221 341.553" stroke="#1A2E35" stroke-linecap="round" stroke-linejoin="round"/>
<path d="M419.884 315.815C419.94 316.27 420.028 316.725 420.161 317.192C421.169 320.658 424.401 322.757 427.368 321.88C430.335 321.002 431.919 317.481 430.9 314.026C429.882 310.56 426.649 308.461 423.693 309.338C423.339 309.45 423.006 309.583 422.696 309.772C422.951 312.327 421.855 314.726 419.895 315.826L419.884 315.815Z" fill="white" stroke="#1A2E35" stroke-linecap="round" stroke-linejoin="round"/>
<path d="M454.891 208.097C448.027 207.342 444.274 200.788 440.156 199.766C436.026 198.744 433.391 197.577 433.391 197.577C433.391 197.577 431.963 192.59 429.848 194.323C427.723 196.067 424.911 233.313 427.667 232.135C430.413 230.969 430.413 235.357 430.413 235.357L455.899 257.929L477.266 219.927C477.266 219.927 461.767 208.841 454.902 208.086L454.891 208.097Z" fill="#1A2E35"/>
<path d="M459.408 218.172C459.408 218.172 452.91 230.436 452.079 249.22" stroke="white" stroke-linecap="round" stroke-linejoin="round"/>
<path d="M440.167 226.67C440.167 226.67 442.126 237.101 447.85 244.666" stroke="white" stroke-linecap="round" stroke-linejoin="round"/>
<path d="M467.125 269.726C467.125 269.726 476.945 302.196 498.346 311.76" stroke="white" stroke-linecap="round" stroke-linejoin="round"/>
<path d="M492.987 210.952C492.987 210.952 492.057 218.039 485.282 218.528C484.562 216.884 483.422 215.084 482.27 213.462C486.765 212.007 492.987 210.952 492.987 210.952Z" fill="#1A2E35"/>
<path d="M507.435 211.452C507.435 211.452 518.772 212.84 523.521 197.555C528.271 182.27 524.54 170.74 505.774 165.196C495.367 162.119 484.972 164.597 481.219 172.506C478.008 179.293 479.525 184.925 478.783 187.202C477.953 189.746 470.28 191.912 470.28 193.656C470.28 195.1 474.532 197.555 474.532 197.555L473.28 201.354L474.454 201.987C474.454 201.987 472.273 210.552 473.28 213.562C474.011 215.762 493.209 216.684 494.714 211.218" fill="white"/>
<path d="M507.435 211.452C507.435 211.452 518.772 212.84 523.521 197.555C528.271 182.27 524.54 170.74 505.774 165.196C495.367 162.119 484.972 164.597 481.219 172.506C478.008 179.293 479.525 184.925 478.783 187.202C477.953 189.746 470.28 191.912 470.28 193.656C470.28 195.1 474.532 197.555 474.532 197.555L473.28 201.354L474.454 201.987C474.454 201.987 472.273 210.552 473.28 213.562C474.011 215.762 493.209 216.684 494.714 211.218" stroke="#1A2E35" stroke-linecap="round" stroke-linejoin="round"/>
<path d="M481.307 178.06C481.307 178.06 485.06 179.004 486.09 180.981" stroke="#1A2E35" stroke-linecap="round" stroke-linejoin="round"/>
<path d="M481.971 186.736C481.805 187.846 482.06 188.791 482.536 188.868C483.012 188.935 483.521 188.102 483.687 186.991C483.853 185.88 483.599 184.936 483.123 184.858C482.647 184.781 482.137 185.625 481.971 186.736Z" fill="#1A2E35"/>
<path d="M474.454 201.976C474.454 201.976 480.554 204.331 482.824 202.909" stroke="#1A2E35" stroke-linecap="round" stroke-linejoin="round"/>
<path d="M476.591 185.858C476.137 188.313 476.679 190.468 477.809 190.679C478.938 190.89 480.222 189.068 480.676 186.613C481.13 184.158 480.587 182.003 479.458 181.792C478.329 181.581 477.045 183.403 476.591 185.858Z" stroke="#1A2E35" stroke-linecap="round" stroke-linejoin="round"/>
<path d="M524.009 173.35C524.009 173.35 523.134 166.952 516.89 162.297C510.646 157.654 503.139 156.643 503.139 156.643C503.139 156.643 506.76 158.232 508.144 160.331C508.144 160.331 498.766 153.255 487.651 157.909C476.524 162.553 477.908 174.627 477.908 174.627L479.536 171.473C479.536 171.473 479.348 175.238 481.318 176.616C481.318 176.616 482.503 172.972 483.71 171.339C483.71 171.339 486.666 180.259 494.781 183.27C494.781 183.27 493.906 181.515 494.659 178.871C494.659 178.871 499.154 188.668 497.847 193.434L499.287 195.944C499.287 195.944 504.457 190.679 508.664 195.067C511.077 197.588 504.036 207.119 503.04 207.119L507.291 213.396C507.291 213.396 517.908 214.917 524.042 203.354C530.164 191.79 528.669 186.847 528.669 186.847C528.669 186.847 530.673 189.657 530.917 191.29C530.917 191.29 532.666 178.86 524.042 173.339L524.009 173.35Z" fill="#1A2E35"/>
<path d="M499.021 197.077C499.021 197.077 502.276 186.002 509.273 189.901C516.27 193.8 511.266 199.71 508.764 201.965C506.261 204.22 504.39 208.364 502.763 208.364C501.135 208.364 500.759 206.353 500.759 206.353" fill="white"/>
<path d="M499.021 197.077C499.021 197.077 502.276 186.002 509.273 189.901C516.27 193.8 511.266 199.71 508.764 201.965C506.261 204.22 504.39 208.364 502.763 208.364C501.135 208.364 500.759 206.353 500.759 206.353" stroke="#1A2E35" stroke-linecap="round" stroke-linejoin="round"/>
<path d="M480.676 186.624L500.139 190.69" stroke="#1A2E35" stroke-linecap="round" stroke-linejoin="round"/>
<path d="M232.638 289.854H173.23V327.212H232.638V289.854Z" fill="#1A2E35" stroke="#1A2E35" stroke-linecap="round" stroke-linejoin="round"/>
<path d="M232.638 289.854H173.23V295.531H232.638V289.854Z" fill="white" stroke="#1A2E35" stroke-linecap="round" stroke-linejoin="round"/>
<path d="M179.286 300.319H194.476" stroke="white" stroke-linecap="round" stroke-linejoin="round"/>
<path d="M186.881 304.573H213.164" stroke="white" stroke-linecap="round" stroke-linejoin="round"/>
<path d="M183.526 308.539H191.265" stroke="white" stroke-linecap="round" stroke-linejoin="round"/>
<path d="M186.881 313.215H204.584" stroke="white" stroke-linecap="round" stroke-linejoin="round"/>
<path d="M179.286 317.459H194.476" stroke="white" stroke-linecap="round" stroke-linejoin="round"/>
</g>
<g clip-path="url(#clip1_10_476)">
<path d="M424.132 0.370178L424 0.970684L533.301 1.10373C564.763 1.10373 590.27 26.7169 590.27 58.31V125.675H591V8.70894C591 4.10267 587.283 0.370178 582.696 0.370178H424.132Z" fill="#E6E6E6"/>
<path d="M544.516 29.0542C546.225 29.0542 547.61 27.6327 547.61 25.8791C547.61 24.1255 546.225 22.704 544.516 22.704C542.807 22.704 541.422 24.1255 541.422 25.8791C541.422 27.6327 542.807 29.0542 544.516 29.0542Z" fill="#3F3D56"/>
<path d="M533.823 29.0542C535.532 29.0542 536.917 27.6327 536.917 25.8791C536.917 24.1255 535.532 22.704 533.823 22.704C532.115 22.704 530.729 24.1255 530.729 25.8791C530.729 27.6327 532.115 29.0542 533.823 29.0542Z" fill="#3F3D56"/>
<path d="M523.134 29.0542C524.843 29.0542 526.228 27.6327 526.228 25.8791C526.228 24.1255 524.843 22.704 523.134 22.704C521.426 22.704 520.04 24.1255 520.04 25.8791C520.04 27.6327 521.426 29.0542 523.134 29.0542Z" fill="#3F3D56"/>
<path d="M497.81 73.9232H454.527C453.041 73.9232 451.835 72.7114 451.835 71.2191C451.835 69.7268 453.041 68.515 454.527 68.515H497.81C499.296 68.515 500.503 69.7268 500.503 71.2191C500.503 72.7114 499.296 73.9232 497.81 73.9232Z" fill="#E6E6E6"/>
<path d="M531.589 83.0782H454.531C453.045 83.0782 451.838 81.8664 451.838 80.3742C451.838 78.8819 453.045 77.6701 454.531 77.6701H531.589C533.075 77.6701 534.282 78.8819 534.282 80.3742C534.282 81.8664 533.075 83.0782 531.589 83.0782Z" fill="#E6E6E6"/>
<path d="M546.17 97.2926H439.949C437.658 97.2926 435.792 95.4192 435.792 93.1178V58.4754C435.792 56.1741 437.658 54.3007 439.949 54.3007H546.17C548.462 54.3007 550.328 56.1741 550.328 58.4754V93.1178C550.328 95.4192 548.462 97.2926 546.17 97.2926ZM439.949 55.0342C438.059 55.0342 436.523 56.5768 436.523 58.4754V93.1178C436.523 95.0164 438.059 96.559 439.949 96.559H546.17C548.061 96.559 549.597 95.0164 549.597 93.1178V58.4754C549.597 56.5768 548.061 55.0342 546.17 55.0342H439.949Z" fill="#3F3D56"/>
<path d="M548.186 106.566C553.239 106.566 557.336 102.453 557.336 97.3789C557.336 92.3048 553.239 88.1915 548.186 88.1915C543.133 88.1915 539.037 92.3048 539.037 97.3789C539.037 102.453 543.133 106.566 548.186 106.566Z" fill="#474747"/>
<path d="M550.428 94.4339C549.698 93.5457 548.473 93.0243 547.338 93.3587C546.299 93.6644 545.433 94.6532 545.529 95.7787C545.576 96.3037 545.787 96.8036 546.152 97.1847C546.564 97.6126 547.091 97.7637 547.667 97.8104C548.283 97.8607 548.81 97.9542 549.221 98.4648C549.579 98.9071 549.69 99.4968 549.486 100.029C548.999 101.302 547.284 101.449 546.568 100.306C546.285 99.8564 545.572 100.27 545.855 100.723C546.439 101.658 547.631 102.169 548.699 101.82C549.737 101.482 550.503 100.396 550.407 99.2919C550.306 98.1412 549.393 97.1955 548.262 97.0373C547.664 96.9546 547.041 97.0193 546.636 96.4835C546.321 96.0628 546.253 95.4839 546.493 95.0164C546.783 94.4447 547.417 94.0815 548.05 94.0815C548.77 94.0815 549.4 94.4734 549.848 95.0164C550.188 95.4263 550.765 94.8402 550.432 94.4303L550.428 94.4339Z" fill="white"/>
<path d="M547.223 91.6974L546.829 103.262C546.819 103.618 547.366 103.618 547.377 103.262L547.771 91.6974C547.782 91.3415 547.234 91.3415 547.223 91.6974Z" fill="white"/>
<path d="M548.505 91.6974L548.111 103.262C548.101 103.618 548.648 103.618 548.659 103.262L549.053 91.6974C549.064 91.3415 548.516 91.3415 548.505 91.6974Z" fill="white"/>
</g>
<defs>
<clipPath id="clip0_10_476">
<rect width="591" height="327.796" fill="white" transform="translate(0 83.5723)"/>
</clipPath>
<clipPath id="clip1_10_476">
<rect width="167" height="125.304" fill="white" transform="translate(424 0.370178)"/>
</clipPath>
</defs>
</svg>
