<svg width="35" height="36" viewBox="0 0 35 36" fill="none" xmlns="http://www.w3.org/2000/svg">
<g clip-path="url(#clip0_12_6)">
<path d="M0 4.43262C0 2.31435 1.715 0.595177 3.82812 0.595177H31.1719C33.285 0.595177 35 2.31435 35 4.43262V8.81828C35 9.25446 34.8271 9.67278 34.5195 9.9812C34.2118 10.2896 33.7945 10.4629 33.3594 10.4629C32.9243 10.4629 32.507 10.2896 32.1993 9.9812C31.8916 9.67278 31.7188 9.25446 31.7188 8.81828V4.43262C31.7188 4.28723 31.6611 4.14779 31.5586 4.04498C31.456 3.94218 31.3169 3.88442 31.1719 3.88442H3.82812C3.68308 3.88442 3.54399 3.94218 3.44143 4.04498C3.33887 4.14779 3.28125 4.28723 3.28125 4.43262V31.843C3.28125 32.1456 3.52625 32.3912 3.82812 32.3912H33.3594C33.7945 32.3912 34.2118 32.5644 34.5195 32.8729C34.8271 33.1813 35 33.5996 35 34.0358C35 34.472 34.8271 34.8903 34.5195 35.1987C34.2118 35.5071 33.7945 35.6804 33.3594 35.6804H3.82812C2.81284 35.6804 1.83914 35.2761 1.12123 34.5565C0.403319 33.8368 0 32.8607 0 31.843L0 4.43262ZM18.0469 13.2039C18.482 13.2039 18.8993 13.3772 19.207 13.6856C19.5146 13.9941 19.6875 14.4124 19.6875 14.8486V23.6199C19.6875 25.8237 19.0837 27.4749 17.8391 28.5143C16.6512 29.5076 15.2119 29.6501 14.2188 29.6501C13.7836 29.6501 13.3663 29.4769 13.0587 29.1684C12.751 28.86 12.5781 28.4417 12.5781 28.0055C12.5781 27.5693 12.751 27.151 13.0587 26.8426C13.3663 26.5342 13.7836 26.3609 14.2188 26.3609C14.9756 26.3609 15.4503 26.2293 15.7391 25.9881C15.9709 25.7951 16.4062 25.2535 16.4062 23.6199V14.8486C16.4062 14.4124 16.5791 13.9941 16.8868 13.6856C17.1945 13.3772 17.6118 13.2039 18.0469 13.2039ZM24.6663 15.024C25.5806 13.932 27.0178 13.2039 28.9844 13.2039C30.8109 13.2039 32.1891 13.8311 33.1188 14.8157C33.4068 15.1345 33.5589 15.5538 33.5422 15.9836C33.5255 16.4135 33.3415 16.8197 33.0296 17.1151C32.7177 17.4106 32.3027 17.5718 31.8737 17.5641C31.4446 17.5565 31.0356 17.3806 30.7344 17.0743C30.4937 16.8199 30.0125 16.4932 28.9844 16.4932C27.8906 16.4932 27.4094 16.8616 27.1775 17.1401C26.9458 17.4223 26.8122 17.7726 26.7969 18.1378C26.7969 18.3659 26.8909 18.7956 27.1775 19.1355C27.4116 19.414 27.8884 19.7824 28.9844 19.7824C29.1506 19.7824 29.3103 19.8065 29.4613 19.8526C30.9116 20.0587 32.0075 20.7078 32.7556 21.6025C33.6175 22.6331 33.9062 23.8479 33.9062 24.7163C33.9062 25.5846 33.6175 26.7995 32.7556 27.8301C31.8412 28.9221 30.4041 29.6501 28.4375 29.6501C26.6109 29.6501 25.2328 29.023 24.3031 28.0384C24.015 27.7196 23.863 27.3003 23.8797 26.8705C23.8963 26.4406 24.0804 26.0344 24.3923 25.7389C24.7042 25.4435 25.1191 25.2823 25.5482 25.2899C25.9773 25.2976 26.3863 25.4734 26.6875 25.7798C26.9281 26.0342 27.4094 26.3609 28.4375 26.3609C29.5312 26.3609 30.0125 25.9925 30.2444 25.714C30.476 25.4317 30.6097 25.0815 30.625 24.7163C30.625 24.4882 30.5309 24.0584 30.2444 23.7185C30.0103 23.4401 29.5334 23.0717 28.4375 23.0717C28.276 23.072 28.1153 23.0483 27.9606 23.0015C26.5103 22.7932 25.4144 22.1463 24.6663 21.2516C23.9374 20.3769 23.5311 19.2774 23.5156 18.1378C23.5156 17.2694 23.8044 16.0546 24.6663 15.024Z" fill="white"/>
</g>
<defs>
<clipPath id="clip0_12_6">
<rect width="35" height="35.0852" fill="white" transform="translate(0 0.595177)"/>
</clipPath>
</defs>
</svg>
