<svg width="35" height="41" viewBox="0 0 35 41" fill="none" xmlns="http://www.w3.org/2000/svg">
<path d="M15.7352 17.2273C15.1335 17.5756 14.6483 18.0949 14.341 18.7196C14.0337 19.3443 13.9181 20.0463 14.0088 20.7369C14.0995 21.4275 14.3924 22.0756 14.8505 22.5993C15.3086 23.123 15.9113 23.4987 16.5825 23.6791C17.2536 23.8594 17.9631 23.8362 18.621 23.6124C19.279 23.3886 19.856 22.9742 20.2791 22.4216C20.7022 21.8691 20.9523 21.2032 20.9979 20.5082C21.0434 19.8132 20.8824 19.1202 20.5351 18.5169C20.3045 18.1163 19.9974 17.7651 19.6313 17.4834C19.2652 17.2018 18.8474 16.9952 18.4017 16.8754C17.9559 16.7556 17.491 16.7251 17.0335 16.7854C16.576 16.8458 16.1349 16.9959 15.7352 17.2273ZM31.4824 21.0489C31.2516 20.7847 31.0083 20.5198 30.7526 20.2542C30.9309 20.0649 31.1041 19.8763 31.2719 19.6883C34.4292 16.1309 35.763 12.5616 34.5276 10.4181C33.3433 8.36134 29.8202 7.74806 25.4078 8.60783C24.9737 8.69328 24.5416 8.78925 24.1114 8.89574C24.0288 8.61178 23.9416 8.32913 23.8498 8.0478C22.3528 3.52609 19.9351 0.585904 17.4644 0.587876C15.0959 0.587876 12.8061 3.3427 11.3445 7.6041C11.2003 8.02479 11.0671 8.4481 10.9452 8.87405C10.658 8.80306 10.3695 8.73732 10.0796 8.67685C5.4253 7.72045 1.67785 8.35148 0.444433 10.4989C-0.737835 12.5557 0.497546 15.9218 3.45027 19.3175C3.74403 19.6528 4.04566 19.9814 4.35516 20.3035C3.98927 20.6782 3.64502 21.0548 3.3224 21.4295C0.440499 24.7779 -0.724064 28.0868 0.456236 30.1357C1.67588 32.2536 5.37022 32.9457 9.86913 32.0584C10.2337 31.9861 10.5963 31.9045 10.957 31.8138C11.0881 32.2753 11.233 32.7334 11.3917 33.1883C12.8474 37.3629 15.1234 40.027 17.484 40.027C19.9233 40.027 22.3666 37.1618 23.8478 32.8116C23.9659 32.4685 24.0741 32.1116 24.1803 31.7448C24.6458 31.8605 25.1147 31.9631 25.5868 32.0524C29.9205 32.8748 33.3611 32.2299 34.5394 30.1791C35.7571 28.0592 34.5 24.5058 31.4824 21.0489ZM1.90014 11.339C2.65946 10.0178 5.72234 9.50113 9.74127 10.3294C9.99831 10.3819 10.2599 10.4411 10.5262 10.5068C10.1333 12.2468 9.85599 14.011 9.69602 15.7877C8.24672 16.8093 6.86485 17.9239 5.55907 19.1243C5.27186 18.8259 4.99187 18.5202 4.71909 18.2073C2.18734 15.3007 1.18802 12.5794 1.90014 11.339ZM9.54652 22.6344C8.54326 21.8712 7.60886 21.0903 6.76101 20.3055C7.60689 19.5246 8.5413 18.7476 9.54455 17.9865C9.50783 18.7608 9.49013 19.5358 9.49144 20.3114C9.49144 21.087 9.5098 21.8614 9.54652 22.6344ZM9.54652 30.4039C7.84142 30.7846 6.08099 30.8474 4.3532 30.5893C3.87953 30.5521 3.41849 30.418 2.99859 30.1951C2.57869 29.9723 2.20885 29.6655 1.91194 29.2937C1.19392 28.0513 2.1303 25.3931 4.59516 22.5299C4.90466 22.171 5.22465 21.8213 5.55514 21.4808C6.86151 22.6886 8.24614 23.8085 9.69996 24.8331C9.86152 26.6323 10.1415 28.4188 10.538 30.1811C10.2101 30.2639 9.87897 30.3388 9.54455 30.4059L9.54652 30.4039ZM23.5134 14.5513C22.8538 14.1346 22.1862 13.7316 21.5108 13.3425C20.8446 12.9586 20.1712 12.5886 19.4906 12.2323C20.6095 11.7585 21.7512 11.3406 22.9115 10.9801C23.1719 12.1596 23.3728 13.3515 23.5134 14.5513ZM12.936 8.15034C14.1871 4.50221 16.0401 2.2739 17.4683 2.2739C18.9889 2.27193 20.964 4.67575 22.2564 8.57825C22.3403 8.83329 22.419 9.08965 22.4925 9.34732C20.7958 9.8744 19.1359 10.5134 17.5234 11.2601C15.9163 10.5042 14.2601 9.85795 12.5661 9.32563C12.6802 8.93123 12.8035 8.53947 12.936 8.15034ZM12.1491 10.9584C13.304 11.3228 14.4398 11.7453 15.5523 12.2244C14.1726 12.9369 12.8297 13.7132 11.5235 14.5533C11.6809 13.2952 11.8914 12.0903 12.1491 10.9584ZM11.5255 26.0636C12.1773 26.483 12.8389 26.8859 13.5104 27.2724C14.1949 27.6668 14.888 28.0454 15.5897 28.4083C14.4692 28.9039 13.3241 29.3416 12.1589 29.7196C11.8882 28.5127 11.6768 27.2933 11.5255 26.0656V26.0636ZM22.2584 32.2674C21.735 33.9377 20.9095 35.4972 19.823 36.868C19.5548 37.2609 19.209 37.5946 18.807 37.8483C18.405 38.102 17.9554 38.2703 17.486 38.343C16.0519 38.343 14.2244 36.2034 12.9812 32.6322C12.8343 32.2102 12.6992 31.7843 12.576 31.3544C14.2779 30.804 15.9407 30.1386 17.5529 29.3627C19.1791 30.1154 20.8528 30.7604 22.5633 31.2932C22.4688 31.6206 22.3672 31.9453 22.2584 32.2674ZM22.9705 29.6565C21.7951 29.2886 20.6384 28.8634 19.5043 28.3826C20.1718 28.0316 20.844 27.6602 21.5207 27.2685C22.2157 26.8662 22.8924 26.4541 23.5508 26.0321C23.4193 27.2494 23.2256 28.4591 22.9705 29.6565ZM23.8498 20.3035C23.8498 21.5012 23.8124 22.6975 23.7377 23.8925C22.7679 24.5511 21.7449 25.194 20.6807 25.8092C19.6184 26.4225 18.5699 26.9865 17.5391 27.4972C16.4546 26.9766 15.391 26.4153 14.3484 25.8132C13.3123 25.215 12.2999 24.5781 11.3111 23.9023C11.2193 22.706 11.1734 21.5084 11.1734 20.3094C11.1734 19.1118 11.218 17.9148 11.3071 16.7185C13.2846 15.3651 15.3613 14.1634 17.5195 13.1236C18.5896 13.6455 19.6407 14.2049 20.6728 14.8018C21.7089 15.3986 22.7252 16.029 23.7219 16.6929C23.8072 17.8944 23.8498 19.098 23.8498 20.3035ZM25.7304 10.2603C29.5113 9.52479 32.3598 10.0198 33.0738 11.2601C33.8351 12.5813 32.7453 15.4959 30.0169 18.5682C29.8661 18.7378 29.71 18.908 29.5487 19.0789C28.2198 17.8747 26.8107 16.7626 25.3311 15.7503C25.1821 13.9932 24.9159 12.248 24.5344 10.5265C24.9409 10.4266 25.3396 10.3379 25.7304 10.2603ZM25.4747 17.9214C26.4731 18.6519 27.4331 19.4338 28.3507 20.2641C27.4373 21.1076 26.4806 21.9028 25.4845 22.6462C25.5147 21.8653 25.5298 21.0844 25.5298 20.3035C25.5298 19.5095 25.5114 18.7154 25.4747 17.9214ZM33.0857 29.3371C32.3696 30.5814 29.6077 31.1 25.8996 30.398C25.4747 30.3178 25.0393 30.2218 24.5934 30.1101C24.9657 28.3663 25.2201 26.5994 25.3547 24.8213C26.8317 23.7919 28.2363 22.662 29.5585 21.4394C29.7906 21.6799 30.011 21.9192 30.2195 22.1572C31.4019 23.446 32.3374 24.942 32.9794 26.5704C33.1849 26.9998 33.3003 27.4668 33.3186 27.9427C33.3369 28.4186 33.2576 28.8931 33.0857 29.3371Z" fill="white"/>
</svg>
