<svg width="243" height="146" viewBox="0 0 243 146" fill="none" xmlns="http://www.w3.org/2000/svg">
<g clip-path="url(#clip0_13_27)">
<path d="M14.3178 111.147C7.16391 108.539 0.956562 102.296 0.169434 94.7021C7.11409 99.2187 15.4271 101.127 23.6371 100.091C26.8023 99.6784 30.2796 98.8923 32.9897 100.584C34.6769 101.637 35.723 103.509 36.2013 105.441C36.6829 107.373 36.6596 109.391 36.6364 111.383L36.8589 111.826C29.3862 113.282 21.4717 113.751 14.3178 111.143V111.147Z" fill="#F0F0F0"/>
<path d="M0.32548 94.6654C3.96885 99.8183 9.13998 103.689 15.1049 105.727C16.3802 106.19 17.722 106.447 19.0771 106.49C20.3989 106.49 21.6975 106.134 22.8367 105.457C23.9094 104.851 24.939 104.105 26.1413 103.769C27.3901 103.442 28.7219 103.662 29.7979 104.382C31.1464 105.231 32.1095 106.517 33.0096 107.806C34.0092 109.238 35.0222 110.74 36.5799 111.61C36.7692 111.716 36.5931 112.003 36.4072 111.896C33.697 110.384 32.6907 107.18 30.3825 105.228C29.3064 104.318 27.948 103.729 26.5265 104.022C25.2811 104.278 24.2216 105.048 23.1389 105.671C22.0396 106.344 20.7908 106.737 19.5022 106.816C18.1471 106.843 16.802 106.637 15.5167 106.21C12.6073 105.294 9.86069 103.925 7.37642 102.157C4.53014 100.151 2.04587 97.6732 0.033213 94.8253C-0.089672 94.6488 0.205916 94.4889 0.328801 94.6654H0.32548Z" fill="white"/>
<path d="M13.1453 105.184C12.1623 107.16 9.89387 108.132 7.78821 107.476C7.5823 107.413 7.67197 107.086 7.87789 107.153C9.8374 107.766 11.9497 106.856 12.8564 105.011C12.9527 104.818 13.2383 104.991 13.142 105.184H13.1453Z" fill="white"/>
<path d="M22.3285 105.837C21.6576 103.755 20.2295 102.007 18.3265 100.934C18.1372 100.828 18.3132 100.541 18.4992 100.648C20.4753 101.767 21.9599 103.589 22.654 105.757C22.7204 105.964 22.395 106.044 22.3285 105.837Z" fill="white"/>
<path d="M18.2202 76.2589C18.2667 76.3855 18.3132 76.5121 18.3631 76.642C18.9974 78.3474 19.7679 79.9995 20.668 81.5817C20.7344 81.7049 20.8075 81.8282 20.8772 81.9514C23.0858 85.7386 25.9786 89.0795 29.4061 91.8075C30.7711 92.89 32.2158 93.8693 33.727 94.7354C35.816 95.9278 38.1741 97.057 39.7052 98.819C39.8679 99.0022 40.0174 99.1921 40.1535 99.3953L37.3836 111.526C37.3637 111.55 37.3471 111.576 37.3272 111.6L37.2375 112.089C37.1578 112.049 37.0748 112.009 36.9917 111.969C36.9452 111.946 36.8988 111.923 36.8523 111.899C36.8224 111.883 36.7892 111.866 36.7593 111.856C36.7493 111.849 36.7393 111.846 36.7294 111.839C36.6995 111.826 36.6762 111.813 36.6497 111.799C36.1847 111.563 35.7197 111.326 35.2548 111.083C35.2548 111.083 35.2536 111.082 35.2514 111.08C31.6944 109.265 28.3666 107.033 25.331 104.432C25.2413 104.352 25.1483 104.275 25.0619 104.188C23.7268 102.999 22.4946 101.704 21.3688 100.315C20.7576 99.5518 20.1831 98.7591 19.6484 97.9363C18.2767 95.8112 17.2471 93.4829 16.5962 91.0381C15.3009 86.1617 15.5732 80.9222 18.0343 76.5954C18.0974 76.4854 18.1605 76.3755 18.2269 76.2656L18.2202 76.2589Z" fill="#F0F0F0"/>
<path d="M18.3696 76.3222C18.1869 82.6376 19.9904 88.8497 23.5308 94.0792C24.2714 95.2183 25.1881 96.2343 26.2442 97.087C27.3004 97.883 28.5491 98.3827 29.8643 98.5326C31.0865 98.6958 32.3552 98.7224 33.5177 99.1821C34.7133 99.6751 35.6399 100.658 36.0684 101.88C36.6363 103.372 36.633 104.981 36.5765 106.553C36.5134 108.299 36.4237 110.111 37.1444 111.746C37.2308 111.943 36.9219 112.069 36.8322 111.873C35.5735 109.028 36.6994 105.864 36.0252 102.913C35.713 101.537 34.9823 100.245 33.6704 99.6218C32.5213 99.0755 31.2127 99.0489 29.9739 98.8923C28.6919 98.7657 27.4564 98.3261 26.3837 97.6099C25.2877 96.8138 24.3345 95.8379 23.564 94.7187C21.7905 92.2305 20.4188 89.4792 19.4988 86.5647C18.4294 83.2438 17.9345 79.7664 18.0375 76.2789C18.0441 76.0624 18.3762 76.1157 18.3696 76.3289V76.3222Z" fill="white"/>
<path d="M22.2921 92.4637C20.3193 93.4463 17.928 92.8534 16.6393 91.0581C16.5131 90.8815 16.7822 90.6783 16.905 90.8549C18.1007 92.527 20.3325 93.0766 22.1658 92.1506C22.3585 92.054 22.4814 92.3671 22.2921 92.4637Z" fill="white"/>
<path d="M29.2333 98.5292C29.9474 96.4641 29.8544 94.2024 28.9809 92.2006C28.8945 92.0007 29.2067 91.8775 29.2931 92.074C30.1998 94.1591 30.2894 96.5107 29.5422 98.6625C29.4724 98.8657 29.1636 98.7324 29.2333 98.5292Z" fill="white"/>
<path d="M18.8744 83.2838C19.7014 83.0673 20.3657 82.4444 20.6413 81.6317C20.7111 81.4252 21.0166 81.5584 20.9502 81.7649C20.6413 82.6609 19.914 83.3471 19.0006 83.5969C18.9143 83.6269 18.818 83.5869 18.7814 83.5036C18.7482 83.417 18.7881 83.3204 18.8744 83.2838Z" fill="white"/>
<path d="M230.801 110.897C237.58 107.426 242.977 100.464 242.827 92.8334C236.49 98.1728 228.473 101.091 220.197 101.074C217.005 101.057 213.458 100.701 210.977 102.716C209.432 103.969 208.625 105.954 208.383 107.932C208.144 109.911 208.413 111.909 208.682 113.885L208.516 114.354C216.108 114.877 224.023 114.368 230.801 110.897Z" fill="#F0F0F0"/>
<path d="M242.668 92.8168C239.682 98.3793 235.026 102.859 229.356 105.617C228.148 106.234 226.849 106.653 225.507 106.863C224.195 107.026 222.863 106.833 221.651 106.304C220.512 105.834 219.399 105.221 218.164 105.038C216.882 104.868 215.59 105.251 214.61 106.097C213.375 107.106 212.578 108.499 211.844 109.891C211.03 111.433 210.206 113.052 208.765 114.104C208.589 114.231 208.798 114.498 208.974 114.368C211.478 112.532 212.083 109.228 214.135 107.01C215.092 105.974 216.367 105.221 217.815 105.338C219.081 105.441 220.23 106.07 221.379 106.557C222.555 107.09 223.84 107.326 225.129 107.246C226.474 107.106 227.789 106.737 229.011 106.154C231.784 104.888 234.345 103.189 236.593 101.127C239.174 98.7857 241.333 96.0211 242.983 92.9467C243.086 92.7568 242.771 92.6336 242.671 92.8234L242.668 92.8168Z" fill="white"/>
<path d="M222.199 106.613C222.611 104.465 223.813 102.553 225.57 101.257C225.743 101.127 225.537 100.864 225.361 100.994C223.538 102.346 222.289 104.342 221.864 106.577C221.824 106.79 222.156 106.83 222.196 106.617L222.199 106.613Z" fill="white"/>
<path d="M222.651 76.7552C222.621 76.8885 222.591 77.0184 222.558 77.1516C222.14 78.9237 221.575 80.659 220.877 82.3378C220.824 82.4677 220.771 82.601 220.715 82.7309C218.984 86.7612 216.527 90.4352 213.461 93.5629C212.239 94.8053 210.927 95.9545 209.532 97.0004C207.606 98.4426 205.404 99.8516 204.102 101.79C203.962 101.99 203.84 102.2 203.727 102.416L207.961 114.114C207.984 114.138 208.004 114.158 208.028 114.181L208.177 114.657C208.254 114.607 208.33 114.557 208.406 114.507C208.449 114.481 208.493 114.448 208.536 114.421C208.566 114.401 208.592 114.381 208.622 114.364C208.632 114.358 208.642 114.351 208.649 114.344C208.675 114.328 208.699 114.311 208.725 114.294C209.16 114.005 209.592 113.708 210.024 113.412C210.024 113.412 210.025 113.411 210.027 113.408C213.335 111.17 216.364 108.545 219.057 105.587C219.137 105.497 219.217 105.408 219.297 105.314C220.476 103.972 221.542 102.533 222.485 101.014C223 100.181 223.471 99.322 223.9 98.4426C225.002 96.1643 225.74 93.7261 226.085 91.2179C226.776 86.2183 225.863 81.0521 222.89 77.0617C222.814 76.9584 222.737 76.8585 222.661 76.7586L222.651 76.7552Z" fill="#F0F0F0"/>
<path d="M222.511 76.8352C223.468 83.0806 222.438 89.4692 219.565 95.0918C218.968 96.3142 218.184 97.4334 217.241 98.4093C216.291 99.332 215.112 99.9815 213.826 100.291C212.634 100.604 211.379 100.788 210.283 101.384C209.157 102.02 208.356 103.109 208.081 104.375C207.702 105.927 207.898 107.523 208.147 109.075C208.423 110.8 208.735 112.586 208.22 114.298C208.157 114.504 208.483 114.591 208.546 114.384C209.446 111.406 207.941 108.402 208.247 105.391C208.39 103.985 208.954 102.616 210.18 101.833C211.252 101.151 212.548 100.961 213.757 100.654C215.015 100.371 216.184 99.7816 217.164 98.9389C218.154 98.0129 218.981 96.9271 219.609 95.7213C221.063 93.0333 222.086 90.1354 222.644 87.131C223.299 83.7035 223.362 80.1894 222.834 76.7419C222.8 76.5287 222.478 76.6187 222.511 76.8319V76.8352Z" fill="white"/>
<path d="M220.598 93.3364C222.677 94.0692 224.979 93.1832 226.035 91.2446C226.138 91.0547 225.849 90.8849 225.746 91.0747C224.767 92.8834 222.618 93.7028 220.685 93.01C220.482 92.9367 220.396 93.2631 220.598 93.3364Z" fill="white"/>
<path d="M214.454 100.215C213.494 98.2528 213.305 95.9978 213.929 93.9026C213.993 93.6961 213.667 93.6095 213.604 93.816C212.96 95.9978 213.159 98.3427 214.165 100.385C214.262 100.578 214.55 100.408 214.454 100.215Z" fill="white"/>
<path d="M222.867 83.8067C222.017 83.6935 221.283 83.1605 220.911 82.3844C220.818 82.1879 220.529 82.3611 220.622 82.5543C221.037 83.407 221.847 83.9966 222.781 84.1298C222.87 84.1498 222.96 84.0965 222.986 84.0099C223.01 83.92 222.957 83.83 222.867 83.8034V83.8067Z" fill="white"/>
<path d="M211.671 4.63495H163.915V7.71602C163.915 7.87257 163.968 8.02579 164.068 8.14903C163.972 10.5573 163.915 13.6317 163.915 16.9725V99.3453C163.915 107.066 164.224 113.348 164.603 113.348H210.984C211.362 113.348 211.671 107.066 211.671 99.3453V16.9725C211.671 13.6317 211.615 10.5573 211.518 8.14903C211.618 8.02579 211.671 7.87257 211.671 7.71602V4.63495Z" fill="white"/>
<path d="M210.984 113.681H164.603C164.241 113.681 164.002 113.681 163.786 109.258C163.656 106.603 163.583 103.083 163.583 99.3453V16.9725C163.583 13.7449 163.636 10.6039 163.736 8.1357C163.799 6.65346 163.869 5.46433 163.945 4.60497C164.098 2.91954 164.244 2.63641 164.603 2.63641H210.984C211.342 2.63641 211.488 2.91954 211.641 4.60497C211.717 5.46766 211.791 6.65679 211.85 8.1357C211.95 10.6039 212.003 13.7416 212.003 16.9725V99.3453C212.003 103.083 211.93 106.603 211.801 109.258C211.585 113.681 211.346 113.681 210.984 113.681ZM164.792 113.015H210.794C211.033 112.106 211.339 107.163 211.339 99.3453V16.9725C211.339 13.7482 211.286 10.6205 211.186 8.16235C211.126 6.69343 211.053 5.51763 210.977 4.66492C210.947 4.20526 210.884 3.75226 210.791 3.30259H164.795C164.702 3.75226 164.639 4.20859 164.609 4.66492C164.533 5.5143 164.463 6.6901 164.4 8.16235C164.301 10.6239 164.247 13.7516 164.247 16.9725V99.3453C164.247 107.163 164.55 112.106 164.792 113.015Z" fill="#E4E4E4"/>
<path d="M210.984 2.96948H164.603C164.224 2.96948 163.915 3.27925 163.915 3.65898V7.71599C163.915 7.87254 163.968 8.02577 164.068 8.14901C164.198 8.31222 164.394 8.40549 164.603 8.40549H210.984C211.193 8.40549 211.389 8.31222 211.518 8.14901C211.618 8.02577 211.671 7.87254 211.671 7.71599V3.65898C211.671 3.27925 211.362 2.96948 210.984 2.96948Z" fill="#CACACA"/>
<path d="M167.907 6.47025C168.447 6.47025 168.884 6.03181 168.884 5.49097C168.884 4.95013 168.447 4.51169 167.907 4.51169C167.368 4.51169 166.931 4.95013 166.931 5.49097C166.931 6.03181 167.368 6.47025 167.907 6.47025Z" fill="white"/>
<path d="M171.614 6.47025C172.153 6.47025 172.59 6.03181 172.59 5.49097C172.59 4.95013 172.153 4.51169 171.614 4.51169C171.074 4.51169 170.637 4.95013 170.637 5.49097C170.637 6.03181 171.074 6.47025 171.614 6.47025Z" fill="white"/>
<path d="M175.32 6.47025C175.86 6.47025 176.297 6.03181 176.297 5.49097C176.297 4.95013 175.86 4.51169 175.32 4.51169C174.781 4.51169 174.344 4.95013 174.344 5.49097C174.344 6.03181 174.781 6.47025 175.32 6.47025Z" fill="white"/>
<path d="M207.353 4.18195H203.086C202.913 4.18195 202.77 4.32517 202.77 4.49838C202.77 4.54501 202.78 4.59164 202.803 4.63495C202.856 4.74487 202.966 4.81481 203.086 4.81481H207.353C207.476 4.81481 207.586 4.74487 207.639 4.63495C207.659 4.59164 207.669 4.54501 207.669 4.49838C207.669 4.32517 207.529 4.18195 207.353 4.18195Z" fill="white"/>
<path d="M207.353 5.37106H203.086C202.913 5.37106 202.77 5.51429 202.77 5.6875C202.77 5.8607 202.91 6.00393 203.086 6.00393H207.353C207.526 6.00393 207.669 5.86403 207.669 5.6875C207.669 5.51429 207.529 5.37106 207.353 5.37106Z" fill="white"/>
<path d="M207.353 6.56018H203.086C202.913 6.56018 202.77 6.70341 202.77 6.87661C202.77 7.04982 202.91 7.19305 203.086 7.19305H207.353C207.526 7.19305 207.669 7.05315 207.669 6.87661C207.669 6.70341 207.529 6.56018 207.353 6.56018Z" fill="white"/>
<path d="M192.408 17.299H183.627C182.71 17.299 181.966 18.0451 181.966 18.9644V26.5921C181.966 27.5114 182.71 28.2576 183.627 28.2576H192.408C193.325 28.2576 194.065 27.5114 194.069 26.5921V18.9644C194.069 18.0451 193.325 17.299 192.408 17.299Z" fill="#FFD957"/>
<path d="M203.318 33.2406H172.713C172.298 33.2406 171.959 33.5803 171.959 33.9967C171.959 34.413 172.298 34.7528 172.713 34.7528H203.318C203.733 34.7528 204.072 34.413 204.072 33.9967C204.072 33.5803 203.733 33.2406 203.318 33.2406Z" fill="#E4E4E4"/>
<path d="M184.337 36.7846H172.713C172.298 36.7846 171.959 37.1244 171.959 37.5407C171.959 37.9571 172.298 38.2969 172.713 38.2969H184.337C184.753 38.2969 185.091 37.9571 185.091 37.5407C185.091 37.1244 184.753 36.7846 184.337 36.7846Z" fill="#E4E4E4"/>
<path d="M192.408 50.2747H183.627C182.71 50.2747 181.966 51.0208 181.966 51.9402V59.5679C181.966 60.4872 182.71 61.2333 183.627 61.2333H192.408C193.325 61.2333 194.065 60.4872 194.069 59.5679V51.9402C194.069 51.0208 193.325 50.2747 192.408 50.2747Z" fill="#FFD957"/>
<path d="M203.318 66.2163H172.713C172.298 66.2163 171.959 66.5561 171.959 66.9724C171.959 67.3888 172.298 67.7286 172.713 67.7286H203.318C203.733 67.7286 204.072 67.3888 204.072 66.9724C204.072 66.5561 203.733 66.2163 203.318 66.2163Z" fill="#E4E4E4"/>
<path d="M184.337 69.7604H172.713C172.298 69.7604 171.959 70.1001 171.959 70.5165C171.959 70.9328 172.298 71.2726 172.713 71.2726H184.337C184.753 71.2726 185.091 70.9328 185.091 70.5165C185.091 70.1001 184.753 69.7604 184.337 69.7604Z" fill="#E4E4E4"/>
<path d="M192.408 83.2505H183.627C182.71 83.2505 181.966 83.9966 181.966 84.9159V92.5437C181.966 93.463 182.71 94.2091 183.627 94.2091H192.408C193.325 94.2091 194.065 93.463 194.069 92.5437V84.9159C194.069 83.9966 193.325 83.2505 192.408 83.2505Z" fill="#FFD957"/>
<path d="M203.318 99.1921H172.713C172.298 99.1921 171.959 99.5285 171.956 99.9449C171.953 100.361 172.291 100.701 172.707 100.704H203.315C203.73 100.704 204.069 100.368 204.072 99.9515C204.075 99.5352 203.737 99.1954 203.322 99.1921H203.318Z" fill="#E4E4E4"/>
<path d="M184.337 102.736H172.713C172.298 102.736 171.959 103.073 171.956 103.489C171.953 103.905 172.291 104.245 172.707 104.248H184.334C184.749 104.248 185.088 103.912 185.091 103.496C185.095 103.079 184.756 102.739 184.341 102.736H184.337Z" fill="#E4E4E4"/>
<path d="M150.893 0.661203C150.893 0.281482 150.584 -0.0282898 150.205 -0.0282898H27.4365C27.0579 -0.0282898 26.749 0.281482 26.749 0.661203V4.71822C26.749 4.8881 26.8121 5.05131 26.925 5.17455C26.8154 7.92919 26.749 11.5599 26.749 15.5369V107.106C26.749 115.693 27.0579 122.675 27.4365 122.675H150.205C150.584 122.675 150.893 115.693 150.893 107.106V15.5369C150.893 11.5599 150.826 7.92919 150.717 5.17455C150.83 5.05131 150.893 4.8881 150.893 4.71822V0.661203Z" fill="white"/>
<path d="M150.205 123.008H27.4366C27.0613 123.008 26.8355 123.008 26.6196 118.125C26.4901 115.177 26.417 111.263 26.417 107.106V15.5369C26.417 11.7031 26.4801 8.01912 26.593 5.16122C26.8122 -0.361389 27.0613 -0.361389 27.4366 -0.361389H150.205C150.581 -0.361389 150.83 -0.361389 151.049 5.16122C151.162 8.01579 151.225 11.6997 151.225 15.5369V107.106C151.225 111.263 151.152 115.177 151.022 118.125C150.806 123.008 150.581 123.008 150.205 123.008ZM27.6292 122.342H150.009C150.282 121.296 150.557 115.433 150.557 107.106V15.5369C150.557 11.7097 150.494 8.03577 150.381 5.18786C150.242 1.69044 150.082 0.624553 150.003 0.304788H27.6326C27.5562 0.624553 27.3934 1.69044 27.2539 5.18786C27.141 8.03577 27.0779 11.7131 27.0779 15.5369V107.106C27.0779 115.433 27.3569 121.296 27.6259 122.342H27.6292Z" fill="#E4E4E4"/>
<path d="M150.205 -0.0282898H27.4365C27.0579 -0.0282898 26.749 0.281482 26.749 0.661203V4.71822C26.749 4.8881 26.8121 5.05131 26.925 5.17455C27.0546 5.32111 27.2406 5.40771 27.4365 5.40771H150.205C150.401 5.40771 150.587 5.32111 150.717 5.17455C150.83 5.05131 150.893 4.8881 150.893 4.71822V0.661203C150.893 0.281482 150.584 -0.0282898 150.205 -0.0282898Z" fill="#CACACA"/>
<path d="M30.7412 3.47248C31.2805 3.47248 31.7176 3.03404 31.7176 2.4932C31.7176 1.95235 31.2805 1.51392 30.7412 1.51392C30.2019 1.51392 29.7648 1.95235 29.7648 2.4932C29.7648 3.03404 30.2019 3.47248 30.7412 3.47248Z" fill="white"/>
<path d="M34.4476 3.47248C34.9869 3.47248 35.4241 3.03404 35.4241 2.4932C35.4241 1.95235 34.9869 1.51392 34.4476 1.51392C33.9084 1.51392 33.4712 1.95235 33.4712 2.4932C33.4712 3.03404 33.9084 3.47248 34.4476 3.47248Z" fill="white"/>
<path d="M38.1542 3.47248C38.6934 3.47248 39.1306 3.03404 39.1306 2.4932C39.1306 1.95235 38.6934 1.51392 38.1542 1.51392C37.6149 1.51392 37.1777 1.95235 37.1777 2.4932C37.1777 3.03404 37.6149 3.47248 38.1542 3.47248Z" fill="white"/>
<path d="M146.575 1.18414H142.307C142.135 1.18414 141.992 1.32737 141.992 1.50058C141.992 1.67378 142.131 1.81701 142.307 1.81701H146.575C146.748 1.81701 146.891 1.67711 146.891 1.50058C146.891 1.32737 146.751 1.18414 146.575 1.18414Z" fill="white"/>
<path d="M146.575 2.37326H142.307C142.135 2.37326 141.992 2.51649 141.992 2.68969C141.992 2.8629 142.131 3.00613 142.307 3.00613H146.575C146.748 3.00613 146.891 2.86623 146.891 2.68969C146.891 2.51649 146.751 2.37326 146.575 2.37326Z" fill="white"/>
<path d="M146.575 3.56238H142.307C142.135 3.56238 141.992 3.70561 141.992 3.87881C141.992 4.05202 142.131 4.19525 142.307 4.19525H146.575C146.748 4.19525 146.891 4.05535 146.891 3.87881C146.891 3.70561 146.751 3.56238 146.575 3.56238Z" fill="white"/>
<path d="M67.1184 20.2968H52.7508C51.2496 20.2968 50.0374 21.5159 50.0341 23.0214V35.5022C50.0341 37.0078 51.2496 38.2236 52.7508 38.2269H67.1184C68.6196 38.2269 69.8318 37.0078 69.8351 35.5022V23.0214C69.8351 21.5159 68.6196 20.3001 67.1184 20.2968Z" fill="#FFD957"/>
<path d="M126.379 25.1232H76.3016C75.6208 25.1232 75.0695 25.6795 75.0695 26.3623C75.0695 27.0451 75.6208 27.598 76.3016 27.598H126.379C127.06 27.598 127.611 27.0418 127.611 26.359C127.611 25.6761 127.06 25.1232 126.379 25.1232Z" fill="#E4E4E4"/>
<path d="M95.3222 30.9223H76.3016C75.6208 30.9223 75.0695 31.4785 75.0695 32.1614C75.0695 32.8442 75.6208 33.3971 76.3016 33.3971H95.3222C96.0031 33.3971 96.5544 32.8409 96.5544 32.158C96.5544 31.4752 96.0031 30.9223 95.3222 30.9223Z" fill="#E4E4E4"/>
<path d="M67.1184 53.6056H52.7508C51.2496 53.6056 50.0374 54.8247 50.0341 56.3303V68.8111C50.0341 70.3166 51.2496 71.5324 52.7508 71.5357H67.1184C68.6196 71.5357 69.8318 70.3166 69.8351 68.8111V56.3303C69.8351 54.8247 68.6196 53.6089 67.1184 53.6056Z" fill="#FFD957"/>
<path d="M126.379 58.432H76.3016C75.6208 58.432 75.0695 58.9883 75.0695 59.6711C75.0695 60.354 75.6208 60.9069 76.3016 60.9069H126.379C127.06 60.9069 127.611 60.3506 127.611 59.6678C127.611 58.985 127.06 58.432 126.379 58.432Z" fill="#E4E4E4"/>
<path d="M95.3222 64.2311H76.3016C75.6208 64.2311 75.0695 64.7874 75.0695 65.4702C75.0695 66.153 75.6208 66.706 76.3016 66.706H95.3222C96.0031 66.706 96.5544 66.1497 96.5544 65.4669C96.5544 64.784 96.0031 64.2311 95.3222 64.2311Z" fill="#E4E4E4"/>
<path d="M67.1184 86.9145H52.7508C51.2496 86.9145 50.0374 88.1336 50.0341 89.6391V102.12C50.0341 103.626 51.2496 104.841 52.7508 104.845H67.1184C68.6196 104.845 69.8318 103.626 69.8351 102.12V89.6391C69.8351 88.1336 68.6196 86.9178 67.1184 86.9145Z" fill="#FFD957"/>
<path d="M126.379 91.7409H76.3016C75.6208 91.7409 75.0695 92.2972 75.0695 92.98C75.0695 93.6628 75.6208 94.2158 76.3016 94.2158H126.379C127.06 94.2158 127.611 93.6595 127.611 92.9767C127.611 92.2938 127.06 91.7409 126.379 91.7409Z" fill="#E4E4E4"/>
<path d="M95.3222 97.54H76.3016C75.6208 97.54 75.0695 98.0962 75.0695 98.7791C75.0695 99.4619 75.6208 100.015 76.3016 100.015H95.3222C96.0031 100.015 96.5544 99.4586 96.5544 98.7757C96.5544 98.0929 96.0031 97.54 95.3222 97.54Z" fill="#E4E4E4"/>
<path d="M172.125 144.659H89.8753C89.4967 144.659 89.1879 138.813 89.1879 131.628V54.9746C89.1879 47.7899 89.4967 41.9442 89.8753 41.9442H172.125C172.504 41.9442 172.813 47.7899 172.813 54.9746V131.628C172.813 138.813 172.504 144.659 172.125 144.659Z" fill="white"/>
<path d="M172.125 144.992H89.8754C89.5267 144.992 89.2776 144.992 89.0584 140.855C88.9289 138.387 88.8558 135.109 88.8558 131.625V54.9713C88.8558 51.4905 88.9289 48.2129 89.0584 45.7447C89.2776 41.6078 89.5267 41.6078 89.8754 41.6078H172.125C172.474 41.6078 172.723 41.6078 172.942 45.7447C173.072 48.2129 173.145 51.4905 173.145 54.9713V131.625C173.145 135.106 173.072 138.383 172.942 140.855C172.723 144.992 172.474 144.992 172.125 144.992ZM90.0581 144.326H171.939C172.178 143.463 172.477 138.866 172.477 131.628V54.9746C172.477 47.7366 172.175 43.14 171.939 42.2773H90.0581C89.819 43.14 89.5201 47.7366 89.5201 54.9746V131.628C89.5201 138.866 89.8223 143.463 90.0581 144.326Z" fill="#E4E4E4"/>
<path d="M172.125 47.3769H89.8753C89.4967 47.3769 89.1879 47.0671 89.1879 46.6874V42.6304C89.1879 42.2506 89.4967 41.9409 89.8753 41.9409H172.125C172.504 41.9409 172.813 42.2506 172.813 42.6304V46.6874C172.813 47.0671 172.504 47.3769 172.125 47.3769Z" fill="#CACACA"/>
<path d="M93.1801 45.4416C93.7193 45.4416 94.1565 45.0032 94.1565 44.4623C94.1565 43.9215 93.7193 43.483 93.1801 43.483C92.6408 43.483 92.2036 43.9215 92.2036 44.4623C92.2036 45.0032 92.6408 45.4416 93.1801 45.4416Z" fill="white"/>
<path d="M96.8865 45.4416C97.4257 45.4416 97.8629 45.0032 97.8629 44.4623C97.8629 43.9215 97.4257 43.483 96.8865 43.483C96.3472 43.483 95.91 43.9215 95.91 44.4623C95.91 45.0032 96.3472 45.4416 96.8865 45.4416Z" fill="white"/>
<path d="M100.593 45.4416C101.132 45.4416 101.569 45.0032 101.569 44.4623C101.569 43.9215 101.132 43.483 100.593 43.483C100.054 43.483 99.6166 43.9215 99.6166 44.4623C99.6166 45.0032 100.054 45.4416 100.593 45.4416Z" fill="white"/>
<path d="M168.495 43.7862H164.228C164.051 43.7862 163.912 43.6429 163.912 43.4697C163.912 43.2965 164.055 43.1533 164.228 43.1533H168.495C168.671 43.1533 168.811 43.2965 168.811 43.4731C168.811 43.6463 168.668 43.7895 168.495 43.7895V43.7862Z" fill="white"/>
<path d="M168.495 44.9753H164.228C164.051 44.9753 163.912 44.832 163.912 44.6588C163.912 44.4856 164.055 44.3424 164.228 44.3424H168.495C168.671 44.3424 168.811 44.4856 168.811 44.6588C168.811 44.832 168.668 44.9753 168.495 44.9753Z" fill="white"/>
<path d="M168.495 46.1644H164.228C164.051 46.1644 163.912 46.0212 163.912 45.848C163.912 45.6748 164.055 45.5315 164.228 45.5315H168.495C168.671 45.5315 168.811 45.6748 168.811 45.8513C168.811 46.0245 168.668 46.1677 168.495 46.1677V46.1644Z" fill="white"/>
<path d="M115.15 72.5583H104.658C103.562 72.5583 102.675 71.6657 102.675 70.5698V61.4565C102.675 60.3573 103.566 59.468 104.658 59.468H115.15C116.246 59.468 117.133 60.3606 117.133 61.4565V70.5698C117.133 71.669 116.243 72.5583 115.15 72.5583Z" fill="#FFD957"/>
<path d="M158.429 64.7974H121.859C121.36 64.7974 120.959 64.3943 120.959 63.8947C120.959 63.3951 121.36 62.992 121.859 62.992H158.429C158.927 62.992 159.329 63.3951 159.329 63.8947C159.329 64.3943 158.927 64.7974 158.429 64.7974Z" fill="#E4E4E4"/>
<path d="M135.748 69.0309H121.859C121.361 69.0309 120.959 68.6279 120.955 68.1282C120.955 67.6286 121.357 67.2256 121.855 67.2222H135.748C136.246 67.2222 136.651 67.6253 136.651 68.1216C136.651 68.6212 136.25 69.0276 135.755 69.0276C135.755 69.0276 135.751 69.0276 135.748 69.0276V69.0309Z" fill="#E4E4E4"/>
<path d="M115.15 99.5385H104.658C103.562 99.5385 102.675 98.6458 102.675 97.55V88.4367C102.675 87.3375 103.566 86.4481 104.658 86.4481H115.15C116.246 86.4481 117.133 87.3408 117.133 88.4367V97.55C117.133 98.6492 116.243 99.5385 115.15 99.5385Z" fill="#FFD957"/>
<path d="M158.429 91.7775H121.859C121.36 91.7775 120.959 91.3745 120.959 90.8749C120.959 90.3752 121.36 89.9722 121.859 89.9722H158.429C158.927 89.9722 159.329 90.3752 159.329 90.8749C159.329 91.3745 158.927 91.7775 158.429 91.7775Z" fill="#E4E4E4"/>
<path d="M135.748 96.0111H121.859C121.36 96.0111 120.959 95.608 120.959 95.1084C120.959 94.6088 121.36 94.2057 121.859 94.2057H135.748C136.246 94.2057 136.648 94.6088 136.648 95.1084C136.648 95.608 136.246 96.0111 135.748 96.0111Z" fill="#E4E4E4"/>
<path d="M115.15 126.519H104.658C103.562 126.519 102.675 125.626 102.675 124.53V115.417C102.675 114.318 103.566 113.428 104.658 113.428H115.15C116.246 113.428 117.133 114.321 117.133 115.417V124.53C117.133 125.629 116.243 126.519 115.15 126.519Z" fill="#FFD957"/>
<path d="M158.429 118.758H121.859C121.36 118.758 120.959 118.355 120.959 117.855C120.959 117.355 121.36 116.952 121.859 116.952H158.429C158.927 116.952 159.329 117.355 159.329 117.855C159.329 118.355 158.927 118.758 158.429 118.758Z" fill="#E4E4E4"/>
<path d="M135.748 122.991H121.859C121.36 122.991 120.959 122.588 120.959 122.089C120.959 121.589 121.36 121.186 121.859 121.186H135.748C136.246 121.186 136.648 121.589 136.648 122.089C136.648 122.588 136.246 122.991 135.748 122.991Z" fill="#E4E4E4"/>
</g>
<defs>
<clipPath id="clip0_13_27">
<rect width="243" height="145.353" fill="white" transform="translate(0 0.498688)"/>
</clipPath>
</defs>
</svg>
